<?xml version="1.0" standalone="yes"?>

<svg version="1.1" viewBox="0.0 0.0 659.0 455.0" fill="none" stroke="none" stroke-linecap="square" stroke-miterlimit="10" xmlns="http://www.w3.org/2000/svg" xmlns:xlink="http://www.w3.org/1999/xlink"><clipPath id="p.0"><path d="m0 0l659.0 0l0 455.0l-659.0 0l0 -455.0z" clip-rule="nonzero"></path></clipPath><g clip-path="url(#p.0)"><path fill="#000000" fill-opacity="0.0" d="m0 0l659.68506 0l0 455.01837l-659.68506 0z" fill-rule="nonzero"></path><path fill="#fff2cc" d="m54.391075 49.48294l409.13385 0l0 378.3937l-409.13385 0z" fill-rule="nonzero"></path><path stroke="#000000" stroke-width="2.0" stroke-linejoin="round" stroke-linecap="butt" d="m54.391075 49.48294l409.13385 0l0 378.3937l-409.13385 0z" fill-rule="nonzero"></path><path fill="#b7b7b7" d="m54.391075 49.48294l82.11024 0l0 34.960632l-82.11024 0z" fill-rule="nonzero"></path><path stroke="#000000" stroke-width="2.0" stroke-linejoin="round" stroke-linecap="butt" d="m54.391075 49.48294l82.11024 0l0 34.960632l-82.11024 0z" fill-rule="nonzero"></path><path fill="#d0e0e3" d="m54.391075 84.44357l65.22835 0l0 34.960625l-65.22835 0z" fill-rule="nonzero"></path><path stroke="#000000" stroke-width="2.0" stroke-linejoin="round" stroke-linecap="butt" d="m54.391075 84.44357l65.22835 0l0 34.960625l-65.22835 0z" fill-rule="nonzero"></path><path fill="#000000" d="m78.5198 108.84388l-1.671875 0l0 -10.640625q-0.59375 0.578125 -1.578125 1.15625q-0.984375 0.5625 -1.765625 0.859375l0 -1.625q1.40625 -0.65625 2.453125 -1.59375q1.046875 -0.9375 1.484375 -1.8125l1.078125 0l0 13.65625zm4.094467 -3.59375l1.671875 -0.21875q0.28125 1.421875 0.96875 2.046875q0.703125 0.625 1.6875 0.625q1.1875 0 2.0 -0.8125q0.8125 -0.828125 0.8125 -2.03125q0 -1.140625 -0.765625 -1.890625q-0.75 -0.75 -1.90625 -0.75q-0.46875 0 -1.171875 0.1875l0.1875 -1.46875q0.15625 0.015625 0.265625 0.015625q1.0625 0 1.90625 -0.546875q0.859375 -0.5625 0.859375 -1.71875q0 -0.921875 -0.625 -1.515625q-0.609375 -0.609375 -1.59375 -0.609375q-0.96875 0 -1.625 0.609375q-0.640625 0.609375 -0.828125 1.84375l-1.671875 -0.296875q0.296875 -1.6875 1.375 -2.609375q1.09375 -0.921875 2.71875 -0.921875q1.109375 0 2.046875 0.484375q0.9375 0.46875 1.421875 1.296875q0.5 0.828125 0.5 1.75q0 0.890625 -0.46875 1.609375q-0.46875 0.71875 -1.40625 1.15625q1.21875 0.265625 1.875 1.15625q0.671875 0.875 0.671875 2.1875q0 1.78125 -1.296875 3.015625q-1.296875 1.234375 -3.28125 1.234375q-1.796875 0 -2.984375 -1.0625q-1.171875 -1.0625 -1.34375 -2.765625zm19.141342 1.984375l0 1.609375l-8.984375 0q-0.015625 -0.609375 0.1875 -1.15625q0.34375 -0.921875 1.09375 -1.8125q0.765625 -0.890625 2.1875 -2.0625q2.21875 -1.8125 3.0 -2.875q0.78125 -1.0625 0.78125 -2.015625q0 -0.984375 -0.71875 -1.671875q-0.703125 -0.6875 -1.84375 -0.6875q-1.203125 0 -1.9375 0.734375q-0.71875 0.71875 -0.71875 2.0l-1.71875 -0.171875q0.171875 -1.921875 1.328125 -2.921875q1.15625 -1.015625 3.09375 -1.015625q1.953125 0 3.09375 1.09375q1.140625 1.078125 1.140625 2.6875q0 0.8125 -0.34375 1.609375q-0.328125 0.78125 -1.109375 1.65625q-0.765625 0.859375 -2.5625 2.390625q-1.5 1.265625 -1.9375 1.71875q-0.421875 0.4375 -0.703125 0.890625l6.671875 0z" fill-rule="nonzero"></path><path fill="#d0e0e3" d="m54.391075 154.36482l128.50394 0l0 34.960632l-128.50394 0z" fill-rule="nonzero"></path><path stroke="#000000" stroke-width="2.0" stroke-linejoin="round" stroke-linecap="butt" d="m54.391075 154.36482l128.50394 0l0 34.960632l-128.50394 0z" fill-rule="nonzero"></path><path fill="#000000" d="m78.00562 178.76514l-1.671875 0l0 -10.640625q-0.59375 0.578125 -1.578125 1.15625q-0.984375 0.5625 -1.765625 0.859375l0 -1.625q1.40625 -0.65625 2.453125 -1.59375q1.046875 -0.9375 1.484375 -1.8125l1.078125 0l0 13.65625zm4.094467 -3.59375l1.671875 -0.21875q0.28125 1.421875 0.96875 2.046875q0.703125 0.625 1.6875 0.625q1.1875 0 2.0 -0.8125q0.8125 -0.828125 0.8125 -2.03125q0 -1.140625 -0.765625 -1.890625q-0.75 -0.75 -1.90625 -0.75q-0.46875 0 -1.171875 0.1875l0.1875 -1.46875q0.15625 0.015625 0.265625 0.015625q1.0625 0 1.90625 -0.546875q0.859375 -0.5625 0.859375 -1.71875q0 -0.921875 -0.625 -1.515625q-0.609375 -0.609375 -1.59375 -0.609375q-0.96875 0 -1.625 0.609375q-0.640625 0.609375 -0.828125 1.84375l-1.671875 -0.296875q0.296875 -1.6875 1.375 -2.609375q1.09375 -0.921875 2.71875 -0.921875q1.109375 0 2.046875 0.484375q0.9375 0.46875 1.421875 1.296875q0.5 0.828125 0.5 1.75q0 0.890625 -0.46875 1.609375q-0.46875 0.71875 -1.40625 1.15625q1.21875 0.265625 1.875 1.15625q0.671875 0.875 0.671875 2.1875q0 1.78125 -1.296875 3.015625q-1.296875 1.234375 -3.28125 1.234375q-1.796875 0 -2.984375 -1.0625q-1.171875 -1.0625 -1.34375 -2.765625zm10.188217 -0.484375l0 -1.6875l5.125 0l0 1.6875l-5.125 0zm6.384552 -2.625q0 -2.421875 0.5 -3.890625q0.5 -1.46875 1.46875 -2.265625q0.984375 -0.796875 2.46875 -0.796875q1.09375 0 1.921875 0.4375q0.828125 0.4375 1.359375 1.28125q0.546875 0.828125 0.84375 2.015625q0.3125 1.1875 0.3125 3.21875q0 2.390625 -0.5 3.859375q-0.484375 1.46875 -1.46875 2.28125q-0.96875 0.796875 -2.46875 0.796875q-1.96875 0 -3.078125 -1.40625q-1.359375 -1.703125 -1.359375 -5.53125zm1.71875 0q0 3.34375 0.78125 4.453125q0.796875 1.109375 1.9375 1.109375q1.15625 0 1.9375 -1.109375q0.78125 -1.125 0.78125 -4.453125q0 -3.359375 -0.78125 -4.46875q-0.78125 -1.109375 -1.953125 -1.109375q-1.15625 0 -1.828125 0.984375q-0.875 1.234375 -0.875 4.59375zm17.328842 -3.5625l-1.65625 0.125q-0.21875 -0.984375 -0.640625 -1.421875q-0.671875 -0.71875 -1.65625 -0.71875q-0.8125 0 -1.40625 0.4375q-0.796875 0.578125 -1.25 1.6875q-0.453125 1.09375 -0.46875 3.140625q0.609375 -0.921875 1.46875 -1.359375q0.875 -0.453125 1.828125 -0.453125q1.671875 0 2.84375 1.234375q1.171875 1.234375 1.171875 3.171875q0 1.28125 -0.546875 2.390625q-0.546875 1.09375 -1.515625 1.6875q-0.96875 0.578125 -2.1875 0.578125q-2.09375 0 -3.40625 -1.53125q-1.3125 -1.546875 -1.3125 -5.0625q0 -3.953125 1.453125 -5.734375q1.265625 -1.5625 3.421875 -1.5625q1.609375 0 2.625 0.90625q1.03125 0.890625 1.234375 2.484375zm-6.8125 5.859375q0 0.859375 0.359375 1.65625q0.375 0.78125 1.03125 1.203125q0.65625 0.40625 1.375 0.40625q1.0625 0 1.8125 -0.84375q0.765625 -0.859375 0.765625 -2.328125q0 -1.40625 -0.75 -2.21875q-0.75 -0.8125 -1.890625 -0.8125q-1.125 0 -1.921875 0.8125q-0.78125 0.8125 -0.78125 2.125zm8.344467 0.328125l0 -1.6875l5.125 0l0 1.6875l-5.125 0zm12.681435 4.078125l-1.671875 0l0 -10.640625q-0.59375 0.578125 -1.578125 1.15625q-0.9843826 0.5625 -1.7656326 0.859375l0 -1.625q1.4062576 -0.65625 2.4531326 -1.59375q1.046875 -0.9375 1.484375 -1.8125l1.078125 0l0 13.65625zm4.344467 -3.140625l1.59375 -0.15625q0.203125 1.140625 0.78125 1.65625q0.578125 0.5 1.484375 0.5q0.765625 0 1.34375 -0.34375q0.578125 -0.359375 0.953125 -0.953125q0.375 -0.59375 0.625 -1.59375q0.25 -1.0 0.25 -2.03125q0 -0.109375 -0.015625 -0.34375q-0.5 0.796875 -1.375 1.296875q-0.859375 0.5 -1.875 0.5q-1.6875 0 -2.859375 -1.21875q-1.171875 -1.234375 -1.171875 -3.234375q0 -2.078125 1.21875 -3.328125q1.234375 -1.265625 3.0625 -1.265625q1.328125 0 2.421875 0.71875q1.109375 0.703125 1.671875 2.03125q0.578125 1.328125 0.578125 3.828125q0 2.609375 -0.578125 4.15625q-0.5625 1.546875 -1.6875 2.359375q-1.109375 0.796875 -2.609375 0.796875q-1.59375 0 -2.609375 -0.890625q-1.0 -0.890625 -1.203125 -2.484375zm6.828125 -6.0q0 -1.4375 -0.765625 -2.28125q-0.765625 -0.859375 -1.84375 -0.859375q-1.109375 0 -1.9375 0.921875q-0.828125 0.90625 -0.828125 2.34375q0 1.3125 0.78125 2.125q0.796875 0.796875 1.9375 0.796875q1.171875 0 1.90625 -0.796875q0.75 -0.8125 0.75 -2.25zm3.5475922 6.0l1.59375 -0.15625q0.203125 1.140625 0.78125 1.65625q0.578125 0.5 1.484375 0.5q0.765625 0 1.34375 -0.34375q0.578125 -0.359375 0.953125 -0.953125q0.375 -0.59375 0.625 -1.59375q0.25 -1.0 0.25 -2.03125q0 -0.109375 -0.015625 -0.34375q-0.5 0.796875 -1.375 1.296875q-0.859375 0.5 -1.875 0.5q-1.6875 0 -2.859375 -1.21875q-1.171875 -1.234375 -1.171875 -3.234375q0 -2.078125 1.21875 -3.328125q1.234375 -1.265625 3.0625 -1.265625q1.328125 0 2.421875 0.71875q1.109375 0.703125 1.671875 2.03125q0.578125 1.328125 0.578125 3.828125q0 2.609375 -0.578125 4.15625q-0.5625 1.546875 -1.6875 2.359375q-1.109375 0.796875 -2.609375 0.796875q-1.59375 0 -2.609375 -0.890625q-1.0 -0.890625 -1.203125 -2.484375zm6.828125 -6.0q0 -1.4375 -0.765625 -2.28125q-0.765625 -0.859375 -1.84375 -0.859375q-1.109375 0 -1.9375 0.921875q-0.828125 0.90625 -0.828125 2.34375q0 1.3125 0.78125 2.125q0.796875 0.796875 1.9375 0.796875q1.171875 0 1.90625 -0.796875q0.75 -0.8125 0.75 -2.25zm11.953842 -1.125l-1.65625 0.125q-0.21875 -0.984375 -0.640625 -1.421875q-0.671875 -0.71875 -1.65625 -0.71875q-0.8125 0 -1.40625 0.4375q-0.796875 0.578125 -1.25 1.6875q-0.453125 1.09375 -0.46875 3.140625q0.609375 -0.921875 1.46875 -1.359375q0.875 -0.453125 1.828125 -0.453125q1.671875 0 2.84375 1.234375q1.171875 1.234375 1.171875 3.171875q0 1.28125 -0.546875 2.390625q-0.546875 1.09375 -1.515625 1.6875q-0.96875 0.578125 -2.1875 0.578125q-2.09375 0 -3.40625 -1.53125q-1.3125 -1.546875 -1.3125 -5.0625q0 -3.953125 1.453125 -5.734375q1.265625 -1.5625 3.421875 -1.5625q1.609375 0 2.625 0.90625q1.03125 0.890625 1.234375 2.484375zm-6.8125 5.859375q0 0.859375 0.359375 1.65625q0.375 0.78125 1.03125 1.203125q0.65625 0.40625 1.375 0.40625q1.0625 0 1.8125 -0.84375q0.765625 -0.859375 0.765625 -2.328125q0 -1.40625 -0.75 -2.21875q-0.75 -0.8125 -1.890625 -0.8125q-1.125 0 -1.921875 0.8125q-0.78125 0.8125 -0.78125 2.125z" fill-rule="nonzero"></path><path fill="#d0e0e3" d="m54.2021 236.16011l38.74016 0l0 34.960617l-38.74016 0z" fill-rule="nonzero"></path><path stroke="#000000" stroke-width="2.0" stroke-linejoin="round" stroke-linecap="butt" d="m54.2021 236.16011l38.74016 0l0 34.960617l-38.74016 0z" fill-rule="nonzero"></path><path fill="#000000" d="m72.79607 260.56042l0 -12.0l-4.46875 0l0 -1.59375l10.765625 0l0 1.59375l-4.5 0l0 12.0l-1.796875 0z" fill-rule="nonzero"></path><path fill="#d9ead3" d="m119.61942 84.44357l65.22834 0l0 34.960625l-65.22834 0z" fill-rule="nonzero"></path><path stroke="#000000" stroke-width="2.0" stroke-linejoin="round" stroke-linecap="butt" d="m119.61942 84.44357l65.22834 0l0 34.960625l-65.22834 0z" fill-rule="nonzero"></path><path fill="#000000" d="m146.23251 107.234505l0 1.609375l-8.984375 0q-0.015625 -0.609375 0.1875 -1.15625q0.34375 -0.921875 1.09375 -1.8125q0.765625 -0.890625 2.1875 -2.0625q2.21875 -1.8125 3.0 -2.875q0.78125 -1.0625 0.78125 -2.015625q0 -0.984375 -0.71875 -1.671875q-0.703125 -0.6875 -1.84375 -0.6875q-1.203125 0 -1.9375 0.734375q-0.71875 0.71875 -0.71875 2.0l-1.71875 -0.171875q0.171875 -1.921875 1.328125 -2.921875q1.15625 -1.015625 3.09375 -1.015625q1.953125 0 3.09375 1.09375q1.140625 1.078125 1.140625 2.6875q0 0.8125 -0.34375 1.609375q-0.328125 0.78125 -1.109375 1.65625q-0.765625 0.859375 -2.5625 2.390625q-1.5 1.265625 -1.9375 1.71875q-0.421875 0.4375 -0.703125 0.890625l6.671875 0zm1.7194672 -10.203125l0 -1.609375l8.796875 0l0 1.296875q-1.296875 1.375 -2.578125 3.671875q-1.265625 2.296875 -1.96875 4.71875q-0.5 1.703125 -0.640625 3.734375l-1.71875 0q0.03125 -1.609375 0.625 -3.875q0.609375 -2.28125 1.734375 -4.390625q1.140625 -2.109375 2.40625 -3.546875l-6.65625 0zm10.516342 8.671875l1.59375 -0.15625q0.203125 1.140625 0.78125 1.65625q0.578125 0.5 1.484375 0.5q0.765625 0 1.34375 -0.34375q0.578125 -0.359375 0.953125 -0.953125q0.375 -0.59375 0.625 -1.59375q0.25 -1.0 0.25 -2.03125q0 -0.109375 -0.015625 -0.34375q-0.5 0.796875 -1.375 1.296875q-0.859375 0.5 -1.875 0.5q-1.6875 0 -2.859375 -1.21875q-1.171875 -1.234375 -1.171875 -3.234375q0 -2.078125 1.21875 -3.328125q1.234375 -1.265625 3.0625 -1.265625q1.328125 0 2.421875 0.71875q1.109375 0.703125 1.671875 2.03125q0.578125 1.328125 0.578125 3.828125q0 2.609375 -0.578125 4.15625q-0.5625 1.546875 -1.6875 2.359375q-1.109375 0.796875 -2.609375 0.796875q-1.59375 0 -2.609375 -0.890625q-1.0 -0.890625 -1.203125 -2.484375zm6.828125 -6.0q0 -1.4375 -0.765625 -2.28125q-0.765625 -0.859375 -1.84375 -0.859375q-1.109375 0 -1.9375 0.921875q-0.828125 0.90625 -0.828125 2.34375q0 1.3125 0.78125 2.125q0.796875 0.796875 1.9375 0.796875q1.171875 0 1.90625 -0.796875q0.75 -0.8125 0.75 -2.25z" fill-rule="nonzero"></path><path fill="#d9ead3" d="m180.24934 154.36482l128.50395 0l0 34.960632l-128.50395 0z" fill-rule="nonzero"></path><path stroke="#000000" stroke-width="2.0" stroke-linejoin="round" stroke-linecap="butt" d="m180.24934 154.36482l128.50395 0l0 34.960632l-128.50395 0z" fill-rule="nonzero"></path><path fill="#000000" d="m203.86389 178.76514l-1.671875 0l0 -10.640625q-0.59375 0.578125 -1.578125 1.15625q-0.984375 0.5625 -1.765625 0.859375l0 -1.625q1.40625 -0.65625 2.453125 -1.59375q1.046875 -0.9375 1.484375 -1.8125l1.078125 0l0 13.65625zm4.078842 -6.703125q0 -2.421875 0.5 -3.890625q0.5 -1.46875 1.46875 -2.265625q0.984375 -0.796875 2.46875 -0.796875q1.09375 0 1.921875 0.4375q0.828125 0.4375 1.359375 1.28125q0.546875 0.828125 0.84375 2.015625q0.3125 1.1875 0.3125 3.21875q0 2.390625 -0.5 3.859375q-0.484375 1.46875 -1.46875 2.28125q-0.96875 0.796875 -2.46875 0.796875q-1.96875 0 -3.078125 -1.40625q-1.359375 -1.703125 -1.359375 -5.53125zm1.71875 0q0 3.34375 0.78125 4.453125q0.796875 1.109375 1.9375 1.109375q1.15625 0 1.9375 -1.109375q0.78125 -1.125 0.78125 -4.453125q0 -3.359375 -0.78125 -4.46875q-0.78125 -1.109375 -1.953125 -1.109375q-1.15625 0 -1.828125 0.984375q-0.875 1.234375 -0.875 4.59375zm8.485092 2.625l0 -1.6875l5.125 0l0 1.6875l-5.125 0zm6.384552 -2.625q0 -2.421875 0.5 -3.890625q0.5 -1.46875 1.46875 -2.265625q0.984375 -0.796875 2.46875 -0.796875q1.09375 0 1.921875 0.4375q0.828125 0.4375 1.359375 1.28125q0.546875 0.828125 0.84375 2.015625q0.3125 1.1875 0.3125 3.21875q0 2.390625 -0.5 3.859375q-0.484375 1.46875 -1.46875 2.28125q-0.96875 0.796875 -2.46875 0.796875q-1.96875 0 -3.078125 -1.40625q-1.359375 -1.703125 -1.359375 -5.53125zm1.71875 0q0 3.34375 0.78125 4.453125q0.796875 1.109375 1.9375 1.109375q1.15625 0 1.9375 -1.109375q0.78125 -1.125 0.78125 -4.453125q0 -3.359375 -0.78125 -4.46875q-0.78125 -1.109375 -1.953125 -1.109375q-1.15625 0 -1.828125 0.984375q-0.875 1.234375 -0.875 4.59375zm8.922592 3.5625l1.59375 -0.15625q0.203125 1.140625 0.78125 1.65625q0.578125 0.5 1.484375 0.5q0.765625 0 1.34375 -0.34375q0.578125 -0.359375 0.953125 -0.953125q0.375 -0.59375 0.625 -1.59375q0.25 -1.0 0.25 -2.03125q0 -0.109375 -0.015625 -0.34375q-0.5 0.796875 -1.375 1.296875q-0.859375 0.5 -1.875 0.5q-1.6875 0 -2.859375 -1.21875q-1.171875 -1.234375 -1.171875 -3.234375q0 -2.078125 1.21875 -3.328125q1.234375 -1.265625 3.0625 -1.265625q1.328125 0 2.421875 0.71875q1.109375 0.703125 1.671875 2.03125q0.578125 1.328125 0.578125 3.828125q0 2.609375 -0.578125 4.15625q-0.5625 1.546875 -1.6875 2.359375q-1.109375 0.796875 -2.609375 0.796875q-1.59375 0 -2.609375 -0.890625q-1.0 -0.890625 -1.203125 -2.484375zm6.828125 -6.0q0 -1.4375 -0.765625 -2.28125q-0.765625 -0.859375 -1.84375 -0.859375q-1.109375 0 -1.9375 0.921875q-0.828125 0.90625 -0.828125 2.34375q0 1.3125 0.78125 2.125q0.796875 0.796875 1.9375 0.796875q1.171875 0 1.90625 -0.796875q0.75 -0.8125 0.75 -2.25zm3.1100922 5.0625l0 -1.6875l5.125 0l0 1.6875l-5.125 0zm12.681427 4.078125l-1.671875 0l0 -10.640625q-0.59375 0.578125 -1.578125 1.15625q-0.984375 0.5625 -1.765625 0.859375l0 -1.625q1.40625 -0.65625 2.453125 -1.59375q1.046875 -0.9375 1.484375 -1.8125l1.078125 0l0 13.65625zm4.344452 -3.140625l1.59375 -0.15625q0.203125 1.140625 0.78125 1.65625q0.578125 0.5 1.484375 0.5q0.765625 0 1.34375 -0.34375q0.578125 -0.359375 0.953125 -0.953125q0.375 -0.59375 0.625 -1.59375q0.25 -1.0 0.25 -2.03125q0 -0.109375 -0.015625 -0.34375q-0.5 0.796875 -1.375 1.296875q-0.859375 0.5 -1.875 0.5q-1.6875 0 -2.859375 -1.21875q-1.171875 -1.234375 -1.171875 -3.234375q0 -2.078125 1.21875 -3.328125q1.234375 -1.265625 3.0625 -1.265625q1.328125 0 2.421875 0.71875q1.109375 0.703125 1.671875 2.03125q0.578125 1.328125 0.578125 3.828125q0 2.609375 -0.578125 4.15625q-0.5625 1.546875 -1.6875 2.359375q-1.109375 0.796875 -2.609375 0.796875q-1.59375 0 -2.609375 -0.890625q-1.0 -0.890625 -1.203125 -2.484375zm6.828125 -6.0q0 -1.4375 -0.765625 -2.28125q-0.765625 -0.859375 -1.84375 -0.859375q-1.109375 0 -1.9375 0.921875q-0.828125 0.90625 -0.828125 2.34375q0 1.3125 0.78125 2.125q0.796875 0.796875 1.9375 0.796875q1.171875 0 1.90625 -0.796875q0.75 -0.8125 0.75 -2.25zm3.5476074 6.0l1.59375 -0.15625q0.203125 1.140625 0.78125 1.65625q0.578125 0.5 1.484375 0.5q0.765625 0 1.34375 -0.34375q0.578125 -0.359375 0.953125 -0.953125q0.375 -0.59375 0.625 -1.59375q0.25 -1.0 0.25 -2.03125q0 -0.109375 -0.015625 -0.34375q-0.5 0.796875 -1.375 1.296875q-0.859375 0.5 -1.875 0.5q-1.6875 0 -2.859375 -1.21875q-1.171875 -1.234375 -1.171875 -3.234375q0 -2.078125 1.21875 -3.328125q1.234375 -1.265625 3.0625 -1.265625q1.328125 0 2.421875 0.71875q1.109375 0.703125 1.671875 2.03125q0.578125 1.328125 0.578125 3.828125q0 2.609375 -0.578125 4.15625q-0.5625 1.546875 -1.6875 2.359375q-1.109375 0.796875 -2.609375 0.796875q-1.59375 0 -2.609375 -0.890625q-1.0 -0.890625 -1.203125 -2.484375zm6.828125 -6.0q0 -1.4375 -0.765625 -2.28125q-0.765625 -0.859375 -1.84375 -0.859375q-1.109375 0 -1.9375 0.921875q-0.828125 0.90625 -0.828125 2.34375q0 1.3125 0.78125 2.125q0.796875 0.796875 1.9375 0.796875q1.171875 0 1.90625 -0.796875q0.75 -0.8125 0.75 -2.25zm11.953827 -1.125l-1.65625 0.125q-0.21875 -0.984375 -0.640625 -1.421875q-0.671875 -0.71875 -1.65625 -0.71875q-0.8125 0 -1.40625 0.4375q-0.796875 0.578125 -1.25 1.6875q-0.453125 1.09375 -0.46875 3.140625q0.609375 -0.921875 1.46875 -1.359375q0.875 -0.453125 1.828125 -0.453125q1.671875 0 2.84375 1.234375q1.171875 1.234375 1.171875 3.171875q0 1.28125 -0.546875 2.390625q-0.546875 1.09375 -1.515625 1.6875q-0.96875 0.578125 -2.1875 0.578125q-2.09375 0 -3.40625 -1.53125q-1.3125 -1.546875 -1.3125 -5.0625q0 -3.953125 1.453125 -5.734375q1.265625 -1.5625 3.421875 -1.5625q1.609375 0 2.625 0.90625q1.03125 0.890625 1.234375 2.484375zm-6.8125 5.859375q0 0.859375 0.359375 1.65625q0.375 0.78125 1.03125 1.203125q0.65625 0.40625 1.375 0.40625q1.0625 0 1.8125 -0.84375q0.765625 -0.859375 0.765625 -2.328125q0 -1.40625 -0.75 -2.21875q-0.75 -0.8125 -1.890625 -0.8125q-1.125 0 -1.921875 0.8125q-0.78125 0.8125 -0.78125 2.125z" fill-rule="nonzero"></path><path fill="#d9ead3" d="m92.94226 236.16011l38.740158 0l0 34.960617l-38.740158 0z" fill-rule="nonzero"></path><path stroke="#000000" stroke-width="2.0" stroke-linejoin="round" stroke-linecap="butt" d="m92.94226 236.16011l38.740158 0l0 34.960617l-38.740158 0z" fill-rule="nonzero"></path><path fill="#000000" d="m111.536224 260.56042l0 -12.0l-4.46875 0l0 -1.59375l10.765625 0l0 1.59375l-4.5 0l0 12.0l-1.796875 0z" fill-rule="nonzero"></path><path fill="#d9d2e9" d="m184.84776 84.44357l65.22835 0l0 34.960625l-65.22835 0z" fill-rule="nonzero"></path><path stroke="#000000" stroke-width="2.0" stroke-linejoin="round" stroke-linecap="butt" d="m184.84776 84.44357l65.22835 0l0 34.960625l-65.22835 0z" fill-rule="nonzero"></path><path fill="#000000" d="m203.78864 108.84388l-1.671875 0l0 -10.640625q-0.59375 0.578125 -1.578125 1.15625q-0.984375 0.5625 -1.765625 0.859375l0 -1.625q1.40625 -0.65625 2.453125 -1.59375q1.046875 -0.9375 1.484375 -1.8125l1.078125 0l0 13.65625zm4.078842 -3.5625l1.765625 -0.15625q0.1875 1.28125 0.890625 1.9375q0.71875 0.640625 1.71875 0.640625q1.203125 0 2.03125 -0.90625q0.84375 -0.90625 0.84375 -2.421875q0 -1.421875 -0.8125 -2.25q-0.796875 -0.828125 -2.09375 -0.828125q-0.796875 0 -1.453125 0.375q-0.640625 0.359375 -1.015625 0.953125l-1.578125 -0.203125l1.328125 -7.0l6.765625 0l0 1.609375l-5.4375 0l-0.734375 3.640625q1.234375 -0.84375 2.578125 -0.84375q1.78125 0 3.0 1.234375q1.234375 1.234375 1.234375 3.171875q0 1.84375 -1.078125 3.1875q-1.3125 1.65625 -3.578125 1.65625q-1.859375 0 -3.03125 -1.03125q-1.171875 -1.046875 -1.34375 -2.765625zm10.375717 -3.140625q0 -2.421875 0.5 -3.890625q0.5 -1.46875 1.46875 -2.265625q0.984375 -0.796875 2.46875 -0.796875q1.09375 0 1.921875 0.4375q0.828125 0.4375 1.359375 1.28125q0.546875 0.828125 0.84375 2.015625q0.3125 1.1875 0.3125 3.21875q0 2.390625 -0.5 3.859375q-0.484375 1.46875 -1.46875 2.28125q-0.96875 0.796875 -2.46875 0.796875q-1.96875 0 -3.078125 -1.40625q-1.359375 -1.703125 -1.359375 -5.53125zm1.71875 0q0 3.34375 0.78125 4.453125q0.796875 1.109375 1.9375 1.109375q1.15625 0 1.9375 -1.109375q0.78125 -1.125 0.78125 -4.453125q0 -3.359375 -0.78125 -4.46875q-0.78125 -1.109375 -1.953125 -1.109375q-1.15625 0 -1.828125 0.984375q-0.875 1.234375 -0.875 4.59375zm8.672592 3.109375l1.671875 -0.21875q0.28125 1.421875 0.96875 2.046875q0.703125 0.625 1.6875 0.625q1.1875 0 2.0 -0.8125q0.8125 -0.828125 0.8125 -2.03125q0 -1.140625 -0.765625 -1.890625q-0.75 -0.75 -1.90625 -0.75q-0.46875 0 -1.171875 0.1875l0.1875 -1.46875q0.15625 0.015625 0.265625 0.015625q1.0625 0 1.90625 -0.546875q0.859375 -0.5625 0.859375 -1.71875q0 -0.921875 -0.625 -1.515625q-0.609375 -0.609375 -1.59375 -0.609375q-0.96875 0 -1.625 0.609375q-0.640625 0.609375 -0.828125 1.84375l-1.671875 -0.296875q0.296875 -1.6875 1.375 -2.609375q1.09375 -0.921875 2.71875 -0.921875q1.109375 0 2.046875 0.484375q0.9375 0.46875 1.421875 1.296875q0.5 0.828125 0.5 1.75q0 0.890625 -0.46875 1.609375q-0.46875 0.71875 -1.40625 1.15625q1.21875 0.265625 1.875 1.15625q0.671875 0.875 0.671875 2.1875q0 1.78125 -1.296875 3.015625q-1.296875 1.234375 -3.28125 1.234375q-1.796875 0 -2.984375 -1.0625q-1.171875 -1.0625 -1.34375 -2.765625z" fill-rule="nonzero"></path><path fill="#d0e0e3" d="m54.2021 312.51968l187.08661 0l0 34.960632l-187.08661 0z" fill-rule="nonzero"></path><path stroke="#000000" stroke-width="2.0" stroke-linejoin="round" stroke-linecap="butt" d="m54.2021 312.51968l187.08661 0l0 34.960632l-187.08661 0z" fill-rule="nonzero"></path><path fill="#000000" d="m74.83107 336.91998l0 -13.59375l1.671875 0l0 13.59375l-1.671875 0zm3.5510712 -4.921875q0 -2.734375 1.53125 -4.0625q1.265625 -1.09375 3.09375 -1.09375q2.03125 0 3.3125 1.34375q1.296875 1.328125 1.296875 3.671875q0 1.90625 -0.578125 3.0q-0.5625 1.078125 -1.65625 1.6875q-1.078125 0.59375 -2.375 0.59375q-2.0625 0 -3.34375 -1.328125q-1.28125 -1.328125 -1.28125 -3.8125zm1.71875 0q0 1.890625 0.828125 2.828125q0.828125 0.9375 2.078125 0.9375q1.25 0 2.0625 -0.9375q0.828125 -0.953125 0.828125 -2.890625q0 -1.828125 -0.828125 -2.765625q-0.828125 -0.9375 -2.0625 -0.9375q-1.25 0 -2.078125 0.9375q-0.828125 0.9375 -0.828125 2.828125zm9.266342 4.921875l0 -9.859375l1.5 0l0 1.5q0.578125 -1.046875 1.0625 -1.375q0.484375 -0.34375 1.078125 -0.34375q0.84375 0 1.71875 0.546875l-0.578125 1.546875q-0.609375 -0.359375 -1.234375 -0.359375q-0.546875 0 -0.984375 0.328125q-0.421875 0.328125 -0.609375 0.90625q-0.28125 0.890625 -0.28125 1.953125l0 5.15625l-1.671875 0zm12.978302 -3.171875l1.71875 0.21875q-0.40625 1.5 -1.515625 2.34375q-1.09375 0.828125 -2.8125 0.828125q-2.15625 0 -3.421875 -1.328125q-1.265625 -1.328125 -1.265625 -3.734375q0 -2.484375 1.265625 -3.859375q1.28125 -1.375 3.328125 -1.375q1.984375 0 3.234375 1.34375q1.25 1.34375 1.25 3.796875q0 0.140625 -0.015625 0.4375l-7.34375 0q0.09375 1.625 0.921875 2.484375q0.828125 0.859375 2.0625 0.859375q0.90625 0 1.546875 -0.46875q0.65625 -0.484375 1.046875 -1.546875zm-5.484375 -2.703125l5.5 0q-0.109375 -1.234375 -0.625 -1.859375q-0.796875 -0.96875 -2.078125 -0.96875q-1.140625 0 -1.9375 0.78125q-0.78125 0.765625 -0.859375 2.046875zm9.110092 5.875l0 -9.859375l1.5 0l0 1.390625q0.453125 -0.71875 1.21875 -1.15625q0.78125 -0.453125 1.765625 -0.453125q1.09375 0 1.796875 0.453125q0.703125 0.453125 0.984375 1.28125q1.171875 -1.734375 3.046875 -1.734375q1.46875 0 2.25 0.8125q0.796875 0.8125 0.796875 2.5l0 6.765625l-1.671875 0l0 -6.203125q0 -1.0 -0.15625 -1.4375q-0.15625 -0.453125 -0.59375 -0.71875q-0.421875 -0.265625 -1.0 -0.265625q-1.03125 0 -1.71875 0.6875q-0.6875 0.6875 -0.6875 2.21875l0 5.71875l-1.671875 0l0 -6.40625q0 -1.109375 -0.40625 -1.65625q-0.40625 -0.5625 -1.34375 -0.5625q-0.703125 0 -1.3125 0.375q-0.59375 0.359375 -0.859375 1.078125q-0.265625 0.71875 -0.265625 2.0625l0 5.109375l-1.671875 0zm20.73973 -11.6875l0 -1.90625l1.671875 0l0 1.90625l-1.671875 0zm0 11.6875l0 -9.859375l1.671875 0l0 9.859375l-1.671875 0zm4.129196 3.78125l0 -13.640625l1.53125 0l0 1.28125q0.53125 -0.75 1.203125 -1.125q0.6875 -0.375 1.640625 -0.375q1.265625 0 2.234375 0.65625q0.96875 0.640625 1.453125 1.828125q0.5 1.1875 0.5 2.59375q0 1.515625 -0.546875 2.734375q-0.546875 1.203125 -1.578125 1.84375q-1.03125 0.640625 -2.171875 0.640625q-0.84375 0 -1.515625 -0.34375q-0.65625 -0.359375 -1.078125 -0.890625l0 4.796875l-1.671875 0zm1.515625 -8.65625q0 1.90625 0.765625 2.8125q0.78125 0.90625 1.875 0.90625q1.109375 0 1.890625 -0.9375q0.796875 -0.9375 0.796875 -2.921875q0 -1.875 -0.78125 -2.8125q-0.765625 -0.9375 -1.84375 -0.9375q-1.0625 0 -1.890625 1.0q-0.8125 1.0 -0.8125 2.890625zm8.188217 1.9375l1.65625 -0.265625q0.140625 1.0 0.765625 1.53125q0.640625 0.515625 1.78125 0.515625q1.15625 0 1.703125 -0.46875q0.5625 -0.46875 0.5625 -1.09375q0 -0.5625 -0.484375 -0.890625q-0.34375 -0.21875 -1.703125 -0.5625q-1.84375 -0.46875 -2.5625 -0.796875q-0.703125 -0.34375 -1.078125 -0.9375q-0.359375 -0.609375 -0.359375 -1.328125q0 -0.65625 0.296875 -1.21875q0.3125 -0.5625 0.828125 -0.9375q0.390625 -0.28125 1.0625 -0.484375q0.671875 -0.203125 1.4375 -0.203125q1.171875 0 2.046875 0.34375q0.875 0.328125 1.28125 0.90625q0.421875 0.5625 0.578125 1.515625l-1.625 0.21875q-0.109375 -0.75 -0.65625 -1.171875q-0.53125 -0.4375 -1.5 -0.4375q-1.15625 0 -1.640625 0.390625q-0.484375 0.375 -0.484375 0.875q0 0.328125 0.203125 0.59375q0.203125 0.265625 0.640625 0.4375q0.25 0.09375 1.46875 0.4375q1.765625 0.46875 2.46875 0.765625q0.703125 0.296875 1.09375 0.875q0.40625 0.578125 0.40625 1.4375q0 0.828125 -0.484375 1.578125q-0.484375 0.734375 -1.40625 1.140625q-0.921875 0.390625 -2.078125 0.390625q-1.921875 0 -2.9375 -0.796875q-1.0 -0.796875 -1.28125 -2.359375zm16.453125 2.9375l0 -1.453125q-1.140625 1.671875 -3.125 1.671875q-0.859375 0 -1.625 -0.328125q-0.75 -0.34375 -1.125 -0.84375q-0.359375 -0.5 -0.515625 -1.234375q-0.09375 -0.5 -0.09375 -1.5625l0 -6.109375l1.671875 0l0 5.46875q0 1.3125 0.09375 1.765625q0.15625 0.65625 0.671875 1.03125q0.515625 0.375 1.265625 0.375q0.75 0 1.40625 -0.375q0.65625 -0.390625 0.921875 -1.046875q0.28125 -0.671875 0.28125 -1.9375l0 -5.28125l1.671875 0l0 9.859375l-1.5 0zm3.9225922 0l0 -9.859375l1.5 0l0 1.390625q0.453125 -0.71875 1.21875 -1.15625q0.78125 -0.453125 1.765625 -0.453125q1.09375 0 1.796875 0.453125q0.703125 0.453125 0.984375 1.28125q1.171875 -1.734375 3.046875 -1.734375q1.46875 0 2.25 0.8125q0.796875 0.8125 0.796875 2.5l0 6.765625l-1.671875 0l0 -6.203125q0 -1.0 -0.15625 -1.4375q-0.15625 -0.453125 -0.59375 -0.71875q-0.421875 -0.265625 -1.0 -0.265625q-1.03125 0 -1.71875 0.6875q-0.6875 0.6875 -0.6875 2.21875l0 5.71875l-1.671875 0l0 -6.40625q0 -1.109375 -0.40625 -1.65625q-0.40625 -0.5625 -1.34375 -0.5625q-0.703125 0 -1.3125 0.375q-0.59375 0.359375 -0.859375 1.078125q-0.265625 0.71875 -0.265625 2.0625l0 5.109375l-1.671875 0zm27.11473 0l0 -1.25q-0.9375 1.46875 -2.75 1.46875q-1.171875 0 -2.171875 -0.640625q-0.984375 -0.65625 -1.53125 -1.8125q-0.53125 -1.171875 -0.53125 -2.6875q0 -1.46875 0.484375 -2.671875q0.5 -1.203125 1.46875 -1.84375q0.984375 -0.640625 2.203125 -0.640625q0.890625 0 1.578125 0.375q0.703125 0.375 1.140625 0.984375l0 -4.875l1.65625 0l0 13.59375l-1.546875 0zm-5.28125 -4.921875q0 1.890625 0.796875 2.828125q0.8125 0.9375 1.890625 0.9375q1.09375 0 1.859375 -0.890625q0.765625 -0.890625 0.765625 -2.734375q0 -2.015625 -0.78125 -2.953125q-0.78125 -0.953125 -1.921875 -0.953125q-1.109375 0 -1.859375 0.90625q-0.75 0.90625 -0.75 2.859375zm8.641342 0q0 -2.734375 1.53125 -4.0625q1.265625 -1.09375 3.09375 -1.09375q2.03125 0 3.3125 1.34375q1.296875 1.328125 1.296875 3.671875q0 1.90625 -0.578125 3.0q-0.5625 1.078125 -1.65625 1.6875q-1.078125 0.59375 -2.375 0.59375q-2.0625 0 -3.34375 -1.328125q-1.28125 -1.328125 -1.28125 -3.8125zm1.71875 0q0 1.890625 0.828125 2.828125q0.828125 0.9375 2.078125 0.9375q1.25 0 2.0625 -0.9375q0.828125 -0.953125 0.828125 -2.890625q0 -1.828125 -0.828125 -2.765625q-0.828125 -0.9375 -2.0625 -0.9375q-1.25 0 -2.078125 0.9375q-0.828125 0.9375 -0.828125 2.828125zm9.250717 4.921875l0 -13.59375l1.671875 0l0 13.59375l-1.671875 0zm3.5510712 -4.921875q0 -2.734375 1.53125 -4.0625q1.265625 -1.09375 3.09375 -1.09375q2.03125 0 3.3125 1.34375q1.296875 1.328125 1.296875 3.671875q0 1.90625 -0.578125 3.0q-0.5625 1.078125 -1.65625 1.6875q-1.078125 0.59375 -2.375 0.59375q-2.0625 0 -3.34375 -1.328125q-1.28125 -1.328125 -1.28125 -3.8125zm1.71875 0q0 1.890625 0.828125 2.828125q0.828125 0.9375 2.078125 0.9375q1.25 0 2.0625 -0.9375q0.828125 -0.953125 0.828125 -2.890625q0 -1.828125 -0.828125 -2.765625q-0.828125 -0.9375 -2.0625 -0.9375q-1.25 0 -2.078125 0.9375q-0.828125 0.9375 -0.828125 2.828125zm9.266342 4.921875l0 -9.859375l1.5 0l0 1.5q0.578125 -1.046875 1.0625 -1.375q0.484375 -0.34375 1.078125 -0.34375q0.84375 0 1.71875 0.546875l-0.578125 1.546875q-0.609375 -0.359375 -1.234375 -0.359375q-0.546875 0 -0.984375 0.328125q-0.421875 0.328125 -0.609375 0.90625q-0.28125 0.890625 -0.28125 1.953125l0 5.15625l-1.671875 0z" fill-rule="nonzero"></path><path fill="#d9d2e9" d="m131.68242 236.1588l38.740158 0l0 34.960617l-38.740158 0z" fill-rule="nonzero"></path><path stroke="#000000" stroke-width="2.0" stroke-linejoin="round" stroke-linecap="butt" d="m131.68242 236.1588l38.740158 0l0 34.960617l-38.740158 0z" fill-rule="nonzero"></path><path fill="#000000" d="m146.917 260.5591l0 -13.59375l9.171875 0l0 1.59375l-7.375 0l0 4.21875l6.375 0l0 1.609375l-6.375 0l0 6.171875l-1.796875 0z" fill-rule="nonzero"></path><path fill="#d9d2e9" d="m308.7533 154.36482l128.50394 0l0 34.960632l-128.50394 0z" fill-rule="nonzero"></path><path stroke="#000000" stroke-width="2.0" stroke-linejoin="round" stroke-linecap="butt" d="m308.7533 154.36482l128.50394 0l0 34.960632l-128.50394 0z" fill-rule="nonzero"></path><path fill="#000000" d="m332.36783 178.76514l-1.671875 0l0 -10.640625q-0.59375 0.578125 -1.578125 1.15625q-0.984375 0.5625 -1.765625 0.859375l0 -1.625q1.40625 -0.65625 2.453125 -1.59375q1.046875 -0.9375 1.484375 -1.8125l1.078125 0l0 13.65625zm4.0788574 -6.703125q0 -2.421875 0.5 -3.890625q0.5 -1.46875 1.46875 -2.265625q0.984375 -0.796875 2.46875 -0.796875q1.09375 0 1.921875 0.4375q0.828125 0.4375 1.359375 1.28125q0.546875 0.828125 0.84375 2.015625q0.3125 1.1875 0.3125 3.21875q0 2.390625 -0.5 3.859375q-0.484375 1.46875 -1.46875 2.28125q-0.96875 0.796875 -2.46875 0.796875q-1.96875 0 -3.078125 -1.40625q-1.359375 -1.703125 -1.359375 -5.53125zm1.71875 0q0 3.34375 0.78125 4.453125q0.796875 1.109375 1.9375 1.109375q1.15625 0 1.9375 -1.109375q0.78125 -1.125 0.78125 -4.453125q0 -3.359375 -0.78125 -4.46875q-0.78125 -1.109375 -1.953125 -1.109375q-1.15625 0 -1.828125 0.984375q-0.875 1.234375 -0.875 4.59375zm8.485077 2.625l0 -1.6875l5.125 0l0 1.6875l-5.125 0zm6.384552 -2.625q0 -2.421875 0.5 -3.890625q0.5 -1.46875 1.46875 -2.265625q0.984375 -0.796875 2.46875 -0.796875q1.09375 0 1.921875 0.4375q0.828125 0.4375 1.359375 1.28125q0.546875 0.828125 0.84375 2.015625q0.3125 1.1875 0.3125 3.21875q0 2.390625 -0.5 3.859375q-0.484375 1.46875 -1.46875 2.28125q-0.96875 0.796875 -2.46875 0.796875q-1.96875 0 -3.078125 -1.40625q-1.359375 -1.703125 -1.359375 -5.53125zm1.71875 0q0 3.34375 0.78125 4.453125q0.796875 1.109375 1.9375 1.109375q1.15625 0 1.9375 -1.109375q0.78125 -1.125 0.78125 -4.453125q0 -3.359375 -0.78125 -4.46875q-0.78125 -1.109375 -1.953125 -1.109375q-1.15625 0 -1.828125 0.984375q-0.875 1.234375 -0.875 4.59375zm8.922607 3.5625l1.59375 -0.15625q0.203125 1.140625 0.78125 1.65625q0.578125 0.5 1.484375 0.5q0.765625 0 1.34375 -0.34375q0.578125 -0.359375 0.953125 -0.953125q0.375 -0.59375 0.625 -1.59375q0.25 -1.0 0.25 -2.03125q0 -0.109375 -0.015625 -0.34375q-0.5 0.796875 -1.375 1.296875q-0.859375 0.5 -1.875 0.5q-1.6875 0 -2.859375 -1.21875q-1.171875 -1.234375 -1.171875 -3.234375q0 -2.078125 1.21875 -3.328125q1.234375 -1.265625 3.0625 -1.265625q1.328125 0 2.421875 0.71875q1.109375 0.703125 1.671875 2.03125q0.578125 1.328125 0.578125 3.828125q0 2.609375 -0.578125 4.15625q-0.5625 1.546875 -1.6875 2.359375q-1.109375 0.796875 -2.609375 0.796875q-1.59375 0 -2.609375 -0.890625q-1.0 -0.890625 -1.203125 -2.484375zm6.828125 -6.0q0 -1.4375 -0.765625 -2.28125q-0.765625 -0.859375 -1.84375 -0.859375q-1.109375 0 -1.9375 0.921875q-0.828125 0.90625 -0.828125 2.34375q0 1.3125 0.78125 2.125q0.796875 0.796875 1.9375 0.796875q1.171875 0 1.90625 -0.796875q0.75 -0.8125 0.75 -2.25zm3.110077 5.0625l0 -1.6875l5.125 0l0 1.6875l-5.125 0zm12.681427 4.078125l-1.671875 0l0 -10.640625q-0.59375 0.578125 -1.578125 1.15625q-0.984375 0.5625 -1.765625 0.859375l0 -1.625q1.40625 -0.65625 2.453125 -1.59375q1.046875 -0.9375 1.484375 -1.8125l1.078125 0l0 13.65625zm4.3444824 -3.140625l1.59375 -0.15625q0.203125 1.140625 0.78125 1.65625q0.578125 0.5 1.484375 0.5q0.765625 0 1.34375 -0.34375q0.578125 -0.359375 0.953125 -0.953125q0.375 -0.59375 0.625 -1.59375q0.25 -1.0 0.25 -2.03125q0 -0.109375 -0.015625 -0.34375q-0.5 0.796875 -1.375 1.296875q-0.859375 0.5 -1.875 0.5q-1.6875 0 -2.859375 -1.21875q-1.171875 -1.234375 -1.171875 -3.234375q0 -2.078125 1.21875 -3.328125q1.234375 -1.265625 3.0625 -1.265625q1.328125 0 2.421875 0.71875q1.109375 0.703125 1.671875 2.03125q0.578125 1.328125 0.578125 3.828125q0 2.609375 -0.578125 4.15625q-0.5625 1.546875 -1.6875 2.359375q-1.109375 0.796875 -2.609375 0.796875q-1.59375 0 -2.609375 -0.890625q-1.0 -0.890625 -1.203125 -2.484375zm6.828125 -6.0q0 -1.4375 -0.765625 -2.28125q-0.765625 -0.859375 -1.84375 -0.859375q-1.109375 0 -1.9375 0.921875q-0.828125 0.90625 -0.828125 2.34375q0 1.3125 0.78125 2.125q0.796875 0.796875 1.9375 0.796875q1.171875 0 1.90625 -0.796875q0.75 -0.8125 0.75 -2.25zm3.547577 6.0l1.59375 -0.15625q0.203125 1.140625 0.78125 1.65625q0.578125 0.5 1.484375 0.5q0.765625 0 1.34375 -0.34375q0.578125 -0.359375 0.953125 -0.953125q0.375 -0.59375 0.625 -1.59375q0.25 -1.0 0.25 -2.03125q0 -0.109375 -0.015625 -0.34375q-0.5 0.796875 -1.375 1.296875q-0.859375 0.5 -1.875 0.5q-1.6875 0 -2.859375 -1.21875q-1.171875 -1.234375 -1.171875 -3.234375q0 -2.078125 1.21875 -3.328125q1.234375 -1.265625 3.0625 -1.265625q1.328125 0 2.421875 0.71875q1.109375 0.703125 1.671875 2.03125q0.578125 1.328125 0.578125 3.828125q0 2.609375 -0.578125 4.15625q-0.5625 1.546875 -1.6875 2.359375q-1.109375 0.796875 -2.609375 0.796875q-1.59375 0 -2.609375 -0.890625q-1.0 -0.890625 -1.203125 -2.484375zm6.828125 -6.0q0 -1.4375 -0.765625 -2.28125q-0.765625 -0.859375 -1.84375 -0.859375q-1.109375 0 -1.9375 0.921875q-0.828125 0.90625 -0.828125 2.34375q0 1.3125 0.78125 2.125q0.796875 0.796875 1.9375 0.796875q1.171875 0 1.90625 -0.796875q0.75 -0.8125 0.75 -2.25zm11.953857 -1.125l-1.65625 0.125q-0.21875 -0.984375 -0.640625 -1.421875q-0.671875 -0.71875 -1.65625 -0.71875q-0.8125 0 -1.40625 0.4375q-0.796875 0.578125 -1.25 1.6875q-0.453125 1.09375 -0.46875 3.140625q0.609375 -0.921875 1.46875 -1.359375q0.875 -0.453125 1.828125 -0.453125q1.671875 0 2.84375 1.234375q1.171875 1.234375 1.171875 3.171875q0 1.28125 -0.546875 2.390625q-0.546875 1.09375 -1.515625 1.6875q-0.96875 0.578125 -2.1875 0.578125q-2.09375 0 -3.40625 -1.53125q-1.3125 -1.546875 -1.3125 -5.0625q0 -3.953125 1.453125 -5.734375q1.265625 -1.5625 3.421875 -1.5625q1.609375 0 2.625 0.90625q1.03125 0.890625 1.234375 2.484375zm-6.8125 5.859375q0 0.859375 0.359375 1.65625q0.375 0.78125 1.03125 1.203125q0.65625 0.40625 1.375 0.40625q1.0625 0 1.8125 -0.84375q0.765625 -0.859375 0.765625 -2.328125q0 -1.40625 -0.75 -2.21875q-0.75 -0.8125 -1.890625 -0.8125q-1.125 0 -1.921875 0.8125q-0.78125 0.8125 -0.78125 2.125z" fill-rule="nonzero"></path><path fill="#d9d2e9" d="m54.391075 347.48032l115.527565 0l0 34.960632l-115.527565 0z" fill-rule="nonzero"></path><path stroke="#000000" stroke-width="2.0" stroke-linejoin="round" stroke-linecap="butt" d="m54.391075 347.48032l115.527565 0l0 34.960632l-115.527565 0z" fill-rule="nonzero"></path><path fill="#000000" d="m71.0317 371.8806l0 -1.25q-0.9375 1.46875 -2.75 1.46875q-1.171875 0 -2.171875 -0.640625q-0.984375 -0.65625 -1.53125 -1.8125q-0.53125 -1.171875 -0.53125 -2.6875q0 -1.46875 0.484375 -2.671875q0.5 -1.203125 1.46875 -1.84375q0.984375 -0.640625 2.203125 -0.640625q0.890625 0 1.578125 0.375q0.703125 0.375 1.140625 0.984375l0 -4.875l1.65625 0l0 13.59375l-1.546875 0zm-5.28125 -4.921875q0 1.890625 0.796875 2.828125q0.8125 0.9375 1.890625 0.9375q1.09375 0 1.859375 -0.890625q0.765625 -0.890625 0.765625 -2.734375q0 -2.015625 -0.78125 -2.953125q-0.78125 -0.953125 -1.921875 -0.953125q-1.109375 0 -1.859375 0.90625q-0.75 0.90625 -0.75 2.859375zm9.281967 -6.765625l0 -1.90625l1.671875 0l0 1.90625l-1.671875 0zm0 11.6875l0 -9.859375l1.671875 0l0 9.859375l-1.671875 0zm4.129196 3.78125l0 -13.640625l1.53125 0l0 1.28125q0.53125 -0.75 1.203125 -1.125q0.6875 -0.375 1.640625 -0.375q1.265625 0 2.234375 0.65625q0.96875 0.640625 1.453125 1.828125q0.5 1.1875 0.5 2.59375q0 1.515625 -0.546875 2.734375q-0.546875 1.203125 -1.578125 1.84375q-1.03125 0.640625 -2.171875 0.640625q-0.84375 0 -1.515625 -0.34375q-0.65625 -0.359375 -1.078125 -0.890625l0 4.796875l-1.671875 0zm1.515625 -8.65625q0 1.90625 0.765625 2.8125q0.78125 0.90625 1.875 0.90625q1.109375 0 1.890625 -0.9375q0.796875 -0.9375 0.796875 -2.921875q0 -1.875 -0.78125 -2.8125q-0.765625 -0.9375 -1.84375 -0.9375q-1.0625 0 -1.890625 1.0q-0.8125 1.0 -0.8125 2.890625zm8.875717 -6.8125l0 -1.90625l1.671875 0l0 1.90625l-1.671875 0zm0 11.6875l0 -9.859375l1.671875 0l0 9.859375l-1.671875 0zm3.4573212 -2.9375l1.65625 -0.265625q0.140625 1.0 0.765625 1.53125q0.640625 0.515625 1.78125 0.515625q1.15625 0 1.703125 -0.46875q0.5625 -0.46875 0.5625 -1.09375q0 -0.5625 -0.484375 -0.890625q-0.34375 -0.21875 -1.703125 -0.5625q-1.84375 -0.46875 -2.5625 -0.796875q-0.703125 -0.34375 -1.078125 -0.9375q-0.359375 -0.609375 -0.359375 -1.328125q0 -0.65625 0.296875 -1.21875q0.3125 -0.5625 0.828125 -0.9375q0.390625 -0.28125 1.0625 -0.484375q0.671875 -0.203125 1.4375 -0.203125q1.171875 0 2.046875 0.34375q0.875 0.328125 1.28125 0.90625q0.421875 0.5625 0.578125 1.515625l-1.625 0.21875q-0.109375 -0.75 -0.65625 -1.171875q-0.53125 -0.4375 -1.5 -0.4375q-1.15625 0 -1.640625 0.390625q-0.484375 0.375 -0.484375 0.875q0 0.328125 0.203125 0.59375q0.203125 0.265625 0.640625 0.4375q0.25 0.09375 1.46875 0.4375q1.765625 0.46875 2.46875 0.765625q0.703125 0.296875 1.09375 0.875q0.40625 0.578125 0.40625 1.4375q0 0.828125 -0.484375 1.578125q-0.484375 0.734375 -1.40625 1.140625q-0.921875 0.390625 -2.078125 0.390625q-1.921875 0 -2.9375 -0.796875q-1.0 -0.796875 -1.28125 -2.359375zm16.4375 -0.671875l1.640625 0.21875q-0.265625 1.6875 -1.375 2.65625q-1.109375 0.953125 -2.734375 0.953125q-2.015625 0 -3.25 -1.3125q-1.21875 -1.328125 -1.21875 -3.796875q0 -1.59375 0.515625 -2.78125q0.53125 -1.203125 1.609375 -1.796875q1.09375 -0.609375 2.359375 -0.609375q1.609375 0 2.625 0.8125q1.015625 0.8125 1.3125 2.3125l-1.625 0.25q-0.234375 -1.0 -0.828125 -1.5q-0.59375 -0.5 -1.421875 -0.5q-1.265625 0 -2.0625 0.90625q-0.78125 0.90625 -0.78125 2.859375q0 1.984375 0.765625 2.890625q0.765625 0.890625 1.984375 0.890625q0.984375 0 1.640625 -0.59375q0.65625 -0.609375 0.84375 -1.859375zm2.90625 -8.078125l0 -1.90625l1.671875 0l0 1.90625l-1.671875 0zm0 11.6875l0 -9.859375l1.671875 0l0 9.859375l-1.671875 0zm4.129196 0l0 -9.859375l1.5 0l0 1.40625q1.09375 -1.625 3.140625 -1.625q0.890625 0 1.640625 0.328125q0.75 0.3125 1.109375 0.84375q0.375 0.515625 0.53125 1.21875q0.09375 0.46875 0.09375 1.625l0 6.0625l-1.671875 0l0 -6.0q0 -1.015625 -0.203125 -1.515625q-0.1875 -0.515625 -0.6875 -0.8125q-0.5 -0.296875 -1.171875 -0.296875q-1.0625 0 -1.84375 0.671875q-0.765625 0.671875 -0.765625 2.578125l0 5.375l-1.671875 0zm10.078842 0.8125l1.6093826 0.25q0.109375 0.75 0.578125 1.09375q0.609375 0.453125 1.6875 0.453125q1.171875 0 1.796875 -0.46875q0.625 -0.453125 0.859375 -1.28125q0.125 -0.515625 0.109375 -2.15625q-1.09375 1.296875 -2.71875 1.296875q-2.03125 0 -3.1562576 -1.46875q-1.109375 -1.46875 -1.109375 -3.515625q0 -1.40625 0.515625 -2.59375q0.515625 -1.203125 1.4843826 -1.84375q0.96875 -0.65625 2.265625 -0.65625q1.75 0 2.875 1.40625l0 -1.1875l1.546875 0l0 8.515625q0 2.3125 -0.46875 3.265625q-0.46875 0.96875 -1.484375 1.515625q-1.015625 0.5625 -2.5 0.5625q-1.765625 0 -2.8593826 -0.796875q-1.078125 -0.796875 -1.03125 -2.390625zm1.375 -5.921875q0 1.953125 0.7656326 2.84375q0.78125 0.890625 1.9375 0.890625q1.140625 0 1.921875 -0.890625q0.78125 -0.890625 0.78125 -2.78125q0 -1.8125 -0.8125 -2.71875q-0.796875 -0.921875 -1.921875 -0.921875q-1.109375 0 -1.890625 0.90625q-0.7812576 0.890625 -0.7812576 2.671875z" fill-rule="nonzero"></path><path fill="#ffe599" d="m424.97375 119.4042l38.740143 0l0 34.960625l-38.740143 0z" fill-rule="nonzero"></path><path stroke="#000000" stroke-width="2.0" stroke-linejoin="round" stroke-linecap="butt" d="m424.97375 119.4042l38.740143 0l0 34.960625l-38.740143 0z" fill-rule="nonzero"></path><path fill="#000000" d="m443.56772 143.8045l0 -12.0l-4.46875 0l0 -1.59375l10.765625 0l0 1.59375l-4.5 0l0 12.0l-1.796875 0z" fill-rule="nonzero"></path><path fill="#ffe599" d="m386.23358 119.4042l38.740173 0l0 34.960625l-38.740173 0z" fill-rule="nonzero"></path><path stroke="#000000" stroke-width="2.0" stroke-linejoin="round" stroke-linecap="butt" d="m386.23358 119.4042l38.740173 0l0 34.960625l-38.740173 0z" fill-rule="nonzero"></path><path fill="#000000" d="m404.82755 143.8045l0 -12.0l-4.46875 0l0 -1.59375l10.765625 0l0 1.59375l-4.5 0l0 12.0l-1.796875 0z" fill-rule="nonzero"></path><path fill="#ffe599" d="m347.49344 119.4042l38.740143 0l0 34.960625l-38.740143 0z" fill-rule="nonzero"></path><path stroke="#000000" stroke-width="2.0" stroke-linejoin="round" stroke-linecap="butt" d="m347.49344 119.4042l38.740143 0l0 34.960625l-38.740143 0z" fill-rule="nonzero"></path><path fill="#000000" d="m366.0874 143.8045l0 -12.0l-4.46875 0l0 -1.59375l10.765625 0l0 1.59375l-4.5 0l0 12.0l-1.796875 0z" fill-rule="nonzero"></path><path fill="#d9ead3" d="m241.28871 312.51968l185.54332 0l0 34.960632l-185.54332 0z" fill-rule="nonzero"></path><path stroke="#000000" stroke-width="2.0" stroke-linejoin="round" stroke-linecap="butt" d="m241.28871 312.51968l185.54332 0l0 34.960632l-185.54332 0z" fill-rule="nonzero"></path><path fill="#000000" d="m269.67352 335.70123q-0.9375 0.796875 -1.796875 1.125q-0.859375 0.3125 -1.84375 0.3125q-1.609375 0 -2.484375 -0.78125q-0.875 -0.796875 -0.875 -2.03125q0 -0.734375 0.328125 -1.328125q0.328125 -0.59375 0.859375 -0.953125q0.53125 -0.359375 1.203125 -0.546875q0.5 -0.140625 1.484375 -0.25q2.03125 -0.25 2.984375 -0.578125q0 -0.34375 0 -0.4375q0 -1.015625 -0.46875 -1.4375q-0.640625 -0.5625 -1.90625 -0.5625q-1.171875 0 -1.734375 0.40625q-0.5625 0.40625 -0.828125 1.46875l-1.640625 -0.234375q0.234375 -1.046875 0.734375 -1.6875q0.515625 -0.640625 1.46875 -0.984375q0.96875 -0.359375 2.25 -0.359375q1.265625 0 2.046875 0.296875q0.78125 0.296875 1.15625 0.75q0.375 0.453125 0.515625 1.140625q0.09375 0.421875 0.09375 1.53125l0 2.234375q0 2.328125 0.09375 2.953125q0.109375 0.609375 0.4375 1.171875l-1.75 0q-0.265625 -0.515625 -0.328125 -1.21875zm-0.140625 -3.71875q-0.90625 0.359375 -2.734375 0.625q-1.03125 0.140625 -1.453125 0.328125q-0.421875 0.1875 -0.65625 0.546875q-0.234375 0.359375 -0.234375 0.796875q0 0.671875 0.5 1.125q0.515625 0.4375 1.484375 0.4375q0.96875 0 1.71875 -0.421875q0.75 -0.4375 1.109375 -1.15625q0.265625 -0.578125 0.265625 -1.671875l0 -0.609375zm4.0788574 4.9375l0 -9.859375l1.5 0l0 1.390625q0.453125 -0.71875 1.21875 -1.15625q0.78125 -0.453125 1.765625 -0.453125q1.09375 0 1.796875 0.453125q0.703125 0.453125 0.984375 1.28125q1.171875 -1.734375 3.046875 -1.734375q1.46875 0 2.25 0.8125q0.796875 0.8125 0.796875 2.5l0 6.765625l-1.671875 0l0 -6.203125q0 -1.0 -0.15625 -1.4375q-0.15625 -0.453125 -0.59375 -0.71875q-0.421875 -0.265625 -1.0 -0.265625q-1.03125 0 -1.71875 0.6875q-0.6875 0.6875 -0.6875 2.21875l0 5.71875l-1.671875 0l0 -6.40625q0 -1.109375 -0.40625 -1.65625q-0.40625 -0.5625 -1.34375 -0.5625q-0.703125 0 -1.3125 0.375q-0.59375 0.359375 -0.859375 1.078125q-0.265625 0.71875 -0.265625 2.0625l0 5.109375l-1.671875 0zm22.290802 -3.171875l1.71875 0.21875q-0.40625 1.5 -1.515625 2.34375q-1.09375 0.828125 -2.8125 0.828125q-2.15625 0 -3.421875 -1.328125q-1.265625 -1.328125 -1.265625 -3.734375q0 -2.484375 1.265625 -3.859375q1.28125 -1.375 3.328125 -1.375q1.984375 0 3.234375 1.34375q1.25 1.34375 1.25 3.796875q0 0.140625 -0.015625 0.4375l-7.34375 0q0.09375 1.625 0.921875 2.484375q0.828125 0.859375 2.0625 0.859375q0.90625 0 1.546875 -0.46875q0.65625 -0.484375 1.046875 -1.546875zm-5.484375 -2.703125l5.5 0q-0.109375 -1.234375 -0.625 -1.859375q-0.796875 -0.96875 -2.078125 -0.96875q-1.140625 0 -1.9375 0.78125q-0.78125 0.765625 -0.859375 2.046875zm12.766327 4.375l0.234375 1.484375q-0.703125 0.140625 -1.265625 0.140625q-0.90625 0 -1.40625 -0.28125q-0.5 -0.296875 -0.703125 -0.75q-0.203125 -0.46875 -0.203125 -1.984375l0 -5.65625l-1.234375 0l0 -1.3125l1.234375 0l0 -2.4375l1.65625 -1.0l0 3.4375l1.6875 0l0 1.3125l-1.6875 0l0 5.75q0 0.71875 0.078125 0.921875q0.09375 0.203125 0.296875 0.328125q0.203125 0.125 0.578125 0.125q0.265625 0 0.734375 -0.078125zm5.1791077 5.28125l0 -1.21875l11.0625 0l0 1.21875l-11.0625 0zm10.375732 0l0 -1.21875l11.0625 0l0 1.21875l-11.0625 0zm10.375702 0l0 -1.21875l11.0625 0l0 1.21875l-11.0625 0zm11.235107 -6.71875l1.65625 -0.265625q0.140625 1.0 0.765625 1.53125q0.640625 0.515625 1.78125 0.515625q1.15625 0 1.703125 -0.46875q0.5625 -0.46875 0.5625 -1.09375q0 -0.5625 -0.484375 -0.890625q-0.34375 -0.21875 -1.703125 -0.5625q-1.84375 -0.46875 -2.5625 -0.796875q-0.703125 -0.34375 -1.078125 -0.9375q-0.359375 -0.609375 -0.359375 -1.328125q0 -0.65625 0.296875 -1.21875q0.3125 -0.5625 0.828125 -0.9375q0.390625 -0.28125 1.0625 -0.484375q0.671875 -0.203125 1.4375 -0.203125q1.171875 0 2.046875 0.34375q0.875 0.328125 1.28125 0.90625q0.421875 0.5625 0.578125 1.515625l-1.625 0.21875q-0.109375 -0.75 -0.65625 -1.171875q-0.53125 -0.4375 -1.5 -0.4375q-1.15625 0 -1.640625 0.390625q-0.484375 0.375 -0.484375 0.875q0 0.328125 0.203125 0.59375q0.203125 0.265625 0.640625 0.4375q0.25 0.09375 1.46875 0.4375q1.765625 0.46875 2.46875 0.765625q0.703125 0.296875 1.09375 0.875q0.40625 0.578125 0.40625 1.4375q0 0.828125 -0.484375 1.578125q-0.484375 0.734375 -1.40625 1.140625q-0.921875 0.390625 -2.078125 0.390625q-1.921875 0 -2.9375 -0.796875q-1.0 -0.796875 -1.28125 -2.359375zm16.75 -0.234375l1.71875 0.21875q-0.40625 1.5 -1.515625 2.34375q-1.09375 0.828125 -2.8125 0.828125q-2.15625 0 -3.421875 -1.328125q-1.265625 -1.328125 -1.265625 -3.734375q0 -2.484375 1.265625 -3.859375q1.28125 -1.375 3.328125 -1.375q1.984375 0 3.234375 1.34375q1.25 1.34375 1.25 3.796875q0 0.140625 -0.015625 0.4375l-7.34375 0q0.09375 1.625 0.921875 2.484375q0.828125 0.859375 2.0625 0.859375q0.90625 0 1.546875 -0.46875q0.65625 -0.484375 1.046875 -1.546875zm-5.484375 -2.703125l5.5 0q-0.109375 -1.234375 -0.625 -1.859375q-0.796875 -0.96875 -2.078125 -0.96875q-1.140625 0 -1.9375 0.78125q-0.78125 0.765625 -0.859375 2.046875zm15.547577 2.265625l1.640625 0.21875q-0.265625 1.6875 -1.375 2.65625q-1.109375 0.953125 -2.734375 0.953125q-2.015625 0 -3.25 -1.3125q-1.21875 -1.328125 -1.21875 -3.796875q0 -1.59375 0.515625 -2.78125q0.53125 -1.203125 1.609375 -1.796875q1.09375 -0.609375 2.359375 -0.609375q1.609375 0 2.625 0.8125q1.015625 0.8125 1.3125 2.3125l-1.625 0.25q-0.234375 -1.0 -0.828125 -1.5q-0.59375 -0.5 -1.421875 -0.5q-1.265625 0 -2.0625 0.90625q-0.78125 0.90625 -0.78125 2.859375q0 1.984375 0.765625 2.890625q0.765625 0.890625 1.984375 0.890625q0.984375 0 1.640625 -0.59375q0.65625 -0.609375 0.84375 -1.859375zm6.546875 2.109375l0.234375 1.484375q-0.703125 0.140625 -1.265625 0.140625q-0.90625 0 -1.40625 -0.28125q-0.5 -0.296875 -0.703125 -0.75q-0.203125 -0.46875 -0.203125 -1.984375l0 -5.65625l-1.234375 0l0 -1.3125l1.234375 0l0 -2.4375l1.65625 -1.0l0 3.4375l1.6875 0l0 1.3125l-1.6875 0l0 5.75q0 0.71875 0.078125 0.921875q0.09375 0.203125 0.296875 0.328125q0.203125 0.125 0.578125 0.125q0.265625 0 0.734375 -0.078125zm8.277069 -1.671875l1.71875 0.21875q-0.40625 1.5 -1.515625 2.34375q-1.09375 0.828125 -2.8125 0.828125q-2.15625 0 -3.421875 -1.328125q-1.265625 -1.328125 -1.265625 -3.734375q0 -2.484375 1.265625 -3.859375q1.28125 -1.375 3.328125 -1.375q1.984375 0 3.234375 1.34375q1.25 1.34375 1.25 3.796875q0 0.140625 -0.015625 0.4375l-7.34375 0q0.09375 1.625 0.921875 2.484375q0.828125 0.859375 2.0625 0.859375q0.90625 0 1.546875 -0.46875q0.65625 -0.484375 1.046875 -1.546875zm-5.484375 -2.703125l5.5 0q-0.109375 -1.234375 -0.625 -1.859375q-0.796875 -0.96875 -2.078125 -0.96875q-1.140625 0 -1.9375 0.78125q-0.78125 0.765625 -0.859375 2.046875zm12.766327 4.375l0.234375 1.484375q-0.703125 0.140625 -1.265625 0.140625q-0.90625 0 -1.40625 -0.28125q-0.5 -0.296875 -0.703125 -0.75q-0.203125 -0.46875 -0.203125 -1.984375l0 -5.65625l-1.234375 0l0 -1.3125l1.234375 0l0 -2.4375l1.65625 -1.0l0 3.4375l1.6875 0l0 1.3125l-1.6875 0l0 5.75q0 0.71875 0.078125 0.921875q0.09375 0.203125 0.296875 0.328125q0.203125 0.125 0.578125 0.125q0.265625 0 0.734375 -0.078125zm7.980194 1.5l0 -1.453125q-1.140625 1.671875 -3.125 1.671875q-0.859375 0 -1.625 -0.328125q-0.75 -0.34375 -1.125 -0.84375q-0.359375 -0.5 -0.515625 -1.234375q-0.09375 -0.5 -0.09375 -1.5625l0 -6.109375l1.671875 0l0 5.46875q0 1.3125 0.09375 1.765625q0.15625 0.65625 0.671875 1.03125q0.515625 0.375 1.265625 0.375q0.75 0 1.40625 -0.375q0.65625 -0.390625 0.921875 -1.046875q0.28125 -0.671875 0.28125 -1.9375l0 -5.28125l1.671875 0l0 9.859375l-1.5 0zm3.906952 0l0 -9.859375l1.5 0l0 1.5q0.578125 -1.046875 1.0625 -1.375q0.484375 -0.34375 1.078125 -0.34375q0.84375 0 1.71875 0.546875l-0.578125 1.546875q-0.609375 -0.359375 -1.234375 -0.359375q-0.546875 0 -0.984375 0.328125q-0.421875 0.328125 -0.609375 0.90625q-0.28125 0.890625 -0.28125 1.953125l0 5.15625l-1.671875 0z" fill-rule="nonzero"></path><path fill="#000000" fill-opacity="0.0" d="m260.61942 101.92388l26.86615 0" fill-rule="nonzero"></path><path stroke="#000000" stroke-width="2.0" stroke-linejoin="round" stroke-linecap="butt" d="m260.61942 101.92388l14.86615 0" fill-rule="evenodd"></path><path fill="#000000" stroke="#000000" stroke-width="2.0" stroke-linecap="butt" d="m275.48557 105.22735l9.076202 -3.3034668l-9.076202 -3.3034592z" fill-rule="evenodd"></path><path fill="#000000" fill-opacity="0.0" d="m340.76117 136.88452l-28.409454 0" fill-rule="nonzero"></path><path stroke="#000000" stroke-width="2.0" stroke-linejoin="round" stroke-linecap="butt" d="m340.76117 136.88452l-16.409454 0" fill-rule="evenodd"></path><path fill="#000000" stroke="#000000" stroke-width="2.0" stroke-linecap="butt" d="m324.3517 133.58105l-9.076202 3.3034668l9.076202 3.3034515z" fill-rule="evenodd"></path><path fill="#ffe599" d="m136.50131 49.48294l33.417328 0l0 34.960632l-33.417328 0z" fill-rule="nonzero"></path><path stroke="#000000" stroke-width="2.0" stroke-linejoin="round" stroke-linecap="butt" d="m136.50131 49.48294l33.417328 0l0 34.960632l-33.417328 0z" fill-rule="nonzero"></path><path fill="#ffe599" d="m169.91864 49.48294l33.417313 0l0 34.960632l-33.417313 0z" fill-rule="nonzero"></path><path stroke="#000000" stroke-width="2.0" stroke-linejoin="round" stroke-linecap="butt" d="m169.91864 49.48294l33.417313 0l0 34.960632l-33.417313 0z" fill-rule="nonzero"></path><path fill="#ffe599" d="m203.33595 49.48294l33.417328 0l0 34.960632l-33.417328 0z" fill-rule="nonzero"></path><path stroke="#000000" stroke-width="2.0" stroke-linejoin="round" stroke-linecap="butt" d="m203.33595 49.48294l33.417328 0l0 34.960632l-33.417328 0z" fill-rule="nonzero"></path><path fill="#ffe599" d="m236.75328 49.48294l33.417313 0l0 34.960632l-33.417313 0z" fill-rule="nonzero"></path><path stroke="#000000" stroke-width="2.0" stroke-linejoin="round" stroke-linecap="butt" d="m236.75328 49.48294l33.417313 0l0 34.960632l-33.417313 0z" fill-rule="nonzero"></path><path fill="#000000" fill-opacity="0.0" d="m251.7454 67.13911l0 -53.85827l-234.0105 0l0 318.04987l36.21522 0" fill-rule="nonzero"></path><path stroke="#000000" stroke-width="2.0" stroke-linejoin="round" stroke-linecap="butt" stroke-dasharray="16.0,6.0" d="m251.7454 67.13911l0 -53.85827l-234.0105 0l0 318.04987l29.36105 0" fill-rule="evenodd"></path><path fill="#000000" stroke="#000000" stroke-width="2.0" stroke-linecap="butt" d="m47.09596 331.33072l-2.2491684 2.2491455l6.179535 -2.2491455l-6.179535 -2.249176z" fill-rule="evenodd"></path><path fill="#b7b7b7" d="m270.1706 49.48294l193.35434 0l0 34.960632l-193.35434 0z" fill-rule="nonzero"></path><path stroke="#000000" stroke-width="2.0" stroke-linejoin="round" stroke-linecap="butt" d="m270.1706 49.48294l193.35434 0l0 34.960632l-193.35434 0z" fill-rule="nonzero"></path><path fill="#000000" fill-opacity="0.0" d="m54.2021 154.36482l409.5118 0" fill-rule="nonzero"></path><path stroke="#000000" stroke-width="2.0" stroke-linejoin="round" stroke-linecap="butt" d="m54.2021 154.36482l409.5118 0" fill-rule="nonzero"></path><path fill="#000000" fill-opacity="0.0" d="m65.82415 209.85564l26.866142 0" fill-rule="nonzero"></path><path stroke="#000000" stroke-width="2.0" stroke-linejoin="round" stroke-linecap="butt" d="m65.82415 209.85564l14.866142 0" fill-rule="evenodd"></path><path fill="#000000" stroke="#000000" stroke-width="2.0" stroke-linecap="butt" d="m80.69029 213.1591l9.076195 -3.3034668l-9.076195 -3.3034515z" fill-rule="evenodd"></path><path fill="#ffe599" d="m424.97375 201.19948l38.740143 0l0 34.960632l-38.740143 0z" fill-rule="nonzero"></path><path stroke="#000000" stroke-width="2.0" stroke-linejoin="round" stroke-linecap="butt" d="m424.97375 201.19948l38.740143 0l0 34.960632l-38.740143 0z" fill-rule="nonzero"></path><path fill="#000000" d="m443.56772 225.5998l0 -12.0l-4.46875 0l0 -1.59375l10.765625 0l0 1.59375l-4.5 0l0 12.0l-1.796875 0z" fill-rule="nonzero"></path><path fill="#ffe599" d="m386.23358 201.19948l38.740173 0l0 34.960632l-38.740173 0z" fill-rule="nonzero"></path><path stroke="#000000" stroke-width="2.0" stroke-linejoin="round" stroke-linecap="butt" d="m386.23358 201.19948l38.740173 0l0 34.960632l-38.740173 0z" fill-rule="nonzero"></path><path fill="#000000" d="m404.82755 225.5998l0 -12.0l-4.46875 0l0 -1.59375l10.765625 0l0 1.59375l-4.5 0l0 12.0l-1.796875 0z" fill-rule="nonzero"></path><path fill="#ffe599" d="m347.49344 201.19948l38.740143 0l0 34.960632l-38.740143 0z" fill-rule="nonzero"></path><path stroke="#000000" stroke-width="2.0" stroke-linejoin="round" stroke-linecap="butt" d="m347.49344 201.19948l38.740143 0l0 34.960632l-38.740143 0z" fill-rule="nonzero"></path><path fill="#000000" d="m366.0874 225.5998l0 -12.0l-4.46875 0l0 -1.59375l10.765625 0l0 1.59375l-4.5 0l0 12.0l-1.796875 0z" fill-rule="nonzero"></path><path fill="#000000" fill-opacity="0.0" d="m54.2021 236.16011l409.5118 0" fill-rule="nonzero"></path><path stroke="#000000" stroke-width="2.0" stroke-linejoin="round" stroke-linecap="butt" d="m54.2021 236.16011l409.5118 0" fill-rule="nonzero"></path><path fill="#000000" fill-opacity="0.0" d="m340.76117 218.6798l-28.409454 0" fill-rule="nonzero"></path><path stroke="#000000" stroke-width="2.0" stroke-linejoin="round" stroke-linecap="butt" d="m340.76117 218.6798l-16.409454 0" fill-rule="evenodd"></path><path fill="#000000" stroke="#000000" stroke-width="2.0" stroke-linecap="butt" d="m324.3517 215.37633l-9.076202 3.3034668l9.076202 3.3034668z" fill-rule="evenodd"></path><path fill="#000000" fill-opacity="0.0" d="m180.24934 253.64043l26.866135 0" fill-rule="nonzero"></path><path stroke="#000000" stroke-width="2.0" stroke-linejoin="round" stroke-linecap="butt" d="m180.24934 253.64043l14.866135 0" fill-rule="evenodd"></path><path fill="#000000" stroke="#000000" stroke-width="2.0" stroke-linecap="butt" d="m195.11548 256.94388l9.076202 -3.3034515l-9.076202 -3.3034668z" fill-rule="evenodd"></path><path fill="#ffe599" d="m386.23358 277.55905l38.740173 0l0 34.960632l-38.740173 0z" fill-rule="nonzero"></path><path stroke="#000000" stroke-width="2.0" stroke-linejoin="round" stroke-linecap="butt" d="m386.23358 277.55905l38.740173 0l0 34.960632l-38.740173 0z" fill-rule="nonzero"></path><path fill="#000000" d="m404.82755 301.95938l0 -12.0l-4.46875 0l0 -1.59375l10.765625 0l0 1.59375l-4.5 0l0 12.0l-1.796875 0z" fill-rule="nonzero"></path><path fill="#ffe599" d="m347.49344 277.55905l38.740143 0l0 34.960632l-38.740143 0z" fill-rule="nonzero"></path><path stroke="#000000" stroke-width="2.0" stroke-linejoin="round" stroke-linecap="butt" d="m347.49344 277.55905l38.740143 0l0 34.960632l-38.740143 0z" fill-rule="nonzero"></path><path fill="#000000" d="m366.0874 301.95938l0 -12.0l-4.46875 0l0 -1.59375l10.765625 0l0 1.59375l-4.5 0l0 12.0l-1.796875 0z" fill-rule="nonzero"></path><path fill="#000000" fill-opacity="0.0" d="m54.2021 312.51968l409.5118 0" fill-rule="nonzero"></path><path stroke="#000000" stroke-width="2.0" stroke-linejoin="round" stroke-linecap="butt" d="m54.2021 312.51968l409.5118 0" fill-rule="nonzero"></path><path fill="#000000" fill-opacity="0.0" d="m340.76117 295.03937l-28.409454 0" fill-rule="nonzero"></path><path stroke="#000000" stroke-width="2.0" stroke-linejoin="round" stroke-linecap="butt" d="m340.76117 295.03937l-16.409454 0" fill-rule="evenodd"></path><path fill="#000000" stroke="#000000" stroke-width="2.0" stroke-linecap="butt" d="m324.3517 291.7359l-9.076202 3.3034668l9.076202 3.3034668z" fill-rule="evenodd"></path><path fill="#ffe599" d="m424.97375 277.55905l38.740143 0l0 34.960632l-38.740143 0z" fill-rule="nonzero"></path><path stroke="#000000" stroke-width="2.0" stroke-linejoin="round" stroke-linecap="butt" d="m424.97375 277.55905l38.740143 0l0 34.960632l-38.740143 0z" fill-rule="nonzero"></path><path fill="#000000" d="m443.56772 301.95938l0 -12.0l-4.46875 0l0 -1.59375l10.765625 0l0 1.59375l-4.5 0l0 12.0l-1.796875 0z" fill-rule="nonzero"></path><path fill="#d9d2e9" d="m424.97375 312.51968l38.740143 0l0 34.960632l-38.740143 0z" fill-rule="nonzero"></path><path stroke="#000000" stroke-width="2.0" stroke-linejoin="round" stroke-linecap="butt" d="m424.97375 312.51968l38.740143 0l0 34.960632l-38.740143 0z" fill-rule="nonzero"></path><path fill="#000000" d="m452.0257 335.70123q-0.9375 0.796875 -1.796875 1.125q-0.859375 0.3125 -1.84375 0.3125q-1.609375 0 -2.484375 -0.78125q-0.875 -0.796875 -0.875 -2.03125q0 -0.734375 0.328125 -1.328125q0.328125 -0.59375 0.859375 -0.953125q0.53125 -0.359375 1.203125 -0.546875q0.5 -0.140625 1.484375 -0.25q2.03125 -0.25 2.984375 -0.578125q0 -0.34375 0 -0.4375q0 -1.015625 -0.46875 -1.4375q-0.640625 -0.5625 -1.90625 -0.5625q-1.171875 0 -1.734375 0.40625q-0.5625 0.40625 -0.828125 1.46875l-1.640625 -0.234375q0.234375 -1.046875 0.734375 -1.6875q0.515625 -0.640625 1.46875 -0.984375q0.96875 -0.359375 2.25 -0.359375q1.265625 0 2.046875 0.296875q0.78125 0.296875 1.15625 0.75q0.375 0.453125 0.515625 1.140625q0.09375 0.421875 0.09375 1.53125l0 2.234375q0 2.328125 0.09375 2.953125q0.109375 0.609375 0.4375 1.171875l-1.75 0q-0.265625 -0.515625 -0.328125 -1.21875zm-0.140625 -3.71875q-0.90625 0.359375 -2.734375 0.625q-1.03125 0.140625 -1.453125 0.328125q-0.421875 0.1875 -0.65625 0.546875q-0.234375 0.359375 -0.234375 0.796875q0 0.671875 0.5 1.125q0.515625 0.4375 1.484375 0.4375q0.96875 0 1.71875 -0.421875q0.75 -0.4375 1.109375 -1.15625q0.265625 -0.578125 0.265625 -1.671875l0 -0.609375z" fill-rule="nonzero"></path><path fill="#000000" fill-opacity="0.0" d="m180.24934 364.96063l26.866135 0" fill-rule="nonzero"></path><path stroke="#000000" stroke-width="2.0" stroke-linejoin="round" stroke-linecap="butt" d="m180.24934 364.96063l14.866135 0" fill-rule="evenodd"></path><path fill="#000000" stroke="#000000" stroke-width="2.0" stroke-linecap="butt" d="m195.11548 368.2641l9.076202 -3.3034668l-9.076202 -3.3034668z" fill-rule="evenodd"></path><path fill="#ffe599" d="m347.49344 392.92126l38.740143 0l0 34.960632l-38.740143 0z" fill-rule="nonzero"></path><path stroke="#000000" stroke-width="2.0" stroke-linejoin="round" stroke-linecap="butt" d="m347.49344 392.92126l38.740143 0l0 34.960632l-38.740143 0z" fill-rule="nonzero"></path><path fill="#ffe599" d="m424.97375 392.92126l38.740143 0l0 34.960632l-38.740143 0z" fill-rule="nonzero"></path><path stroke="#000000" stroke-width="2.0" stroke-linejoin="round" stroke-linecap="butt" d="m424.97375 392.92126l38.740143 0l0 34.960632l-38.740143 0z" fill-rule="nonzero"></path><path fill="#000000" fill-opacity="0.0" d="m340.76117 415.04462l-28.409454 0" fill-rule="nonzero"></path><path stroke="#000000" stroke-width="2.0" stroke-linejoin="round" stroke-linecap="butt" d="m340.76117 415.04462l-16.409454 0" fill-rule="evenodd"></path><path fill="#000000" stroke="#000000" stroke-width="2.0" stroke-linecap="butt" d="m324.3517 411.74115l-9.076202 3.3034668l9.076202 3.3034668z" fill-rule="evenodd"></path><path fill="#ffe599" d="m386.23358 392.92126l38.740173 0l0 34.960632l-38.740173 0z" fill-rule="nonzero"></path><path stroke="#000000" stroke-width="2.0" stroke-linejoin="round" stroke-linecap="butt" d="m386.23358 392.92126l38.740173 0l0 34.960632l-38.740173 0z" fill-rule="nonzero"></path><path fill="#000000" fill-opacity="0.0" d="m445.3596 411.8399l-390.92914 -64.53543" fill-rule="nonzero"></path><path stroke="#666666" stroke-width="2.0" stroke-linejoin="round" stroke-linecap="butt" stroke-dasharray="8.0,6.0" d="m445.3596 411.8399l-379.0894 -62.580933" fill-rule="evenodd"></path><path fill="#666666" stroke="#666666" stroke-width="2.0" stroke-linecap="butt" d="m66.80826 345.99963l-9.49305 1.7810364l8.416931 4.737671z" fill-rule="evenodd"></path><path fill="#000000" fill-opacity="0.0" d="m405.89502 412.76904l-164.81891 -65.921265" fill-rule="nonzero"></path><path stroke="#666666" stroke-width="2.0" stroke-linejoin="round" stroke-linecap="butt" stroke-dasharray="8.0,6.0" d="m405.89502 412.76904l-153.67703 -61.464935" fill-rule="evenodd"></path><path fill="#666666" stroke="#666666" stroke-width="2.0" stroke-linecap="butt" d="m253.44476 348.23685l-9.653931 -0.3032837l7.2003784 6.437744z" fill-rule="evenodd"></path><path fill="#000000" fill-opacity="0.0" d="m367.82153 413.69815l57.5748 -66.86612" fill-rule="nonzero"></path><path stroke="#666666" stroke-width="2.0" stroke-linejoin="round" stroke-linecap="butt" stroke-dasharray="8.0,6.0" d="m367.82153 413.69815l49.744873 -57.772614" fill-rule="evenodd"></path><path fill="#666666" stroke="#666666" stroke-width="2.0" stroke-linecap="butt" d="m420.06973 358.08102l3.4188232 -9.033356l-8.425507 4.7223816z" fill-rule="evenodd"></path><path fill="#000000" fill-opacity="0.0" d="m219.70866 67.2336l0 -44.110237l-190.8294 0l0 230.76117l26.46457 0" fill-rule="nonzero"></path><path stroke="#000000" stroke-width="2.0" stroke-linejoin="round" stroke-linecap="butt" stroke-dasharray="16.0,6.0" d="m219.70866 67.2336l0 -44.110237l-190.8294 0l0 230.76117l19.610394 0" fill-rule="evenodd"></path><path fill="#000000" stroke="#000000" stroke-width="2.0" stroke-linecap="butt" d="m48.48966 253.88452l-2.2491684 2.2491455l6.1795387 -2.2491455l-6.1795387 -2.249176z" fill-rule="evenodd"></path><path fill="#000000" fill-opacity="0.0" d="m186.74278 68.16273l0 -33.430443l-148.57742 0l0 137.89764l15.784775 0" fill-rule="nonzero"></path><path stroke="#000000" stroke-width="2.0" stroke-linejoin="round" stroke-linecap="butt" stroke-dasharray="16.0,6.0" d="m186.74278 68.16273l0 -33.430443l-148.57742 0l0 137.89764l8.930603 0" fill-rule="evenodd"></path><path fill="#000000" stroke="#000000" stroke-width="2.0" stroke-linecap="butt" d="m47.09596 172.62993l-2.2491684 2.2491608l6.179535 -2.2491608l-6.179535 -2.249176z" fill-rule="evenodd"></path><path fill="#000000" fill-opacity="0.0" d="m153.21785 68.62467l0 -26.0l-108.18111 0l0 59.89501l9.286087 0" fill-rule="nonzero"></path><path stroke="#000000" stroke-width="2.0" stroke-linejoin="round" stroke-linecap="butt" stroke-dasharray="16.0,6.0" d="m153.21785 68.62467l0 -26.0l-108.18111 0l0 59.89501l2.4319153 0" fill-rule="evenodd"></path><path fill="#000000" stroke="#000000" stroke-width="2.0" stroke-linecap="butt" d="m47.468662 102.519684l-2.2491684 2.2491684l6.179535 -2.2491684l-6.179535 -2.2491684z" fill-rule="evenodd"></path><path fill="#000000" fill-opacity="0.0" d="m467.5538 50.254593l0 0c1.9221191 0 3.4803162 0.25968933 3.4803162 0.58002853l0 15.926556c0 0.32034302 1.558197 0.58003235 3.4803162 0.58003235l0 0c-1.9221191 0 -3.4803162 0.25968933 -3.4803162 0.5800247l0 15.926559c0 0.32034302 -1.558197 0.5800247 -3.4803162 0.5800247z" fill-rule="nonzero"></path><path fill="#000000" fill-opacity="0.0" d="m467.5538 50.254593l0 0c1.9221191 0 3.4803162 0.25968933 3.4803162 0.58002853l0 15.926556c0 0.32034302 1.558197 0.58003235 3.4803162 0.58003235l0 0c-1.9221191 0 -3.4803162 0.25968933 -3.4803162 0.5800247l0 15.926559c0 0.32034302 -1.558197 0.5800247 -3.4803162 0.5800247" fill-rule="nonzero"></path><path stroke="#000000" stroke-width="2.0" stroke-linejoin="round" stroke-linecap="butt" d="m467.5538 50.254593l0 0c1.9221191 0 3.4803162 0.25968933 3.4803162 0.58002853l0 15.926556c0 0.32034302 1.558197 0.58003235 3.4803162 0.58003235l0 0c-1.9221191 0 -3.4803162 0.25968933 -3.4803162 0.5800247l0 15.926559c0 0.32034302 -1.558197 0.5800247 -3.4803162 0.5800247" fill-rule="nonzero"></path><path fill="#000000" fill-opacity="0.0" d="m478.5433 49.48294l215.43307 0l0 34.960632l-215.43307 0z" fill-rule="nonzero"></path><path fill="#000000" d="m488.7933 73.883255l0 -9.859375l1.5 0l0 1.40625q1.09375 -1.6250038 3.140625 -1.6250038q0.890625 0 1.640625 0.3281288q0.75 0.3125 1.109375 0.84375q0.375 0.515625 0.53125 1.21875q0.09375 0.46875 0.09375 1.625l0 6.0625l-1.671875 0l0 -6.0q0 -1.015625 -0.203125 -1.515625q-0.1875 -0.515625 -0.6875 -0.8125q-0.5 -0.296875 -1.171875 -0.296875q-1.0625 0 -1.84375 0.671875q-0.765625 0.671875 -0.765625 2.578125l0 5.375l-1.671875 0zm16.813232 -1.21875q-0.9375 0.796875 -1.796875 1.125q-0.859375 0.3125 -1.84375 0.3125q-1.609375 0 -2.484375 -0.78125q-0.875 -0.796875 -0.875 -2.03125q0 -0.734375 0.328125 -1.328125q0.328125 -0.59375 0.859375 -0.953125q0.53125 -0.359375 1.203125 -0.546875q0.5 -0.140625 1.484375 -0.25q2.03125 -0.25 2.984375 -0.578125q0 -0.34375 0 -0.4375q0 -1.015625 -0.46875 -1.4375q-0.640625 -0.5625 -1.90625 -0.5625q-1.171875 0 -1.734375 0.40625q-0.5625 0.40625 -0.828125 1.46875l-1.640625 -0.234375q0.234375 -1.046875 0.734375 -1.6875q0.515625 -0.640625 1.46875 -0.984375q0.96875 -0.3593788 2.25 -0.3593788q1.265625 0 2.046875 0.2968788q0.78125 0.296875 1.15625 0.75q0.375 0.453125 0.515625 1.140625q0.09375 0.421875 0.09375 1.53125l0 2.234375q0 2.328125 0.09375 2.953125q0.109375 0.609375 0.4375 1.171875l-1.75 0q-0.265625 -0.515625 -0.328125 -1.21875zm-0.140625 -3.71875q-0.90625 0.359375 -2.734375 0.625q-1.03125 0.140625 -1.453125 0.328125q-0.421875 0.1875 -0.65625 0.546875q-0.234375 0.359375 -0.234375 0.796875q0 0.671875 0.5 1.125q0.515625 0.4375 1.484375 0.4375q0.96875 0 1.71875 -0.421875q0.75 -0.4375 1.109375 -1.15625q0.265625 -0.578125 0.265625 -1.671875l0 -0.609375zm3.781952 5.75l1.609375 0.25q0.109375 0.75 0.578125 1.09375q0.609375 0.453125 1.6875 0.453125q1.171875 0 1.796875 -0.46875q0.625 -0.453125 0.859375 -1.28125q0.125 -0.515625 0.109375 -2.15625q-1.09375 1.296875 -2.71875 1.296875q-2.03125 0 -3.15625 -1.46875q-1.109375 -1.46875 -1.109375 -3.515625q0 -1.40625 0.515625 -2.59375q0.515625 -1.203125 1.484375 -1.84375q0.96875 -0.6562538 2.265625 -0.6562538q1.75 0 2.875 1.4062538l0 -1.1875l1.546875 0l0 8.515625q0 2.3125 -0.46875 3.265625q-0.46875 0.96875 -1.484375 1.515625q-1.015625 0.5625 -2.5 0.5625q-1.765625 0 -2.859375 -0.796875q-1.078125 -0.796875 -1.03125 -2.390625zm1.375 -5.921875q0 1.953125 0.765625 2.84375q0.78125 0.890625 1.9375 0.890625q1.140625 0 1.921875 -0.890625q0.78125 -0.890625 0.78125 -2.78125q0 -1.8125 -0.8125 -2.71875q-0.796875 -0.921875 -1.921875 -0.921875q-1.109375 0 -1.890625 0.90625q-0.78125 0.890625 -0.78125 2.671875zm9.281982 -0.21875l-1.203125 1.015625l0 -1.453125l1.203125 -1.03125l0 -6.796879l1.65625 0l0 5.390629l1.25 -1.0625l0 1.453125l-1.25 1.0625l0 6.75l-1.65625 0l0 -5.328125zm3.5354614 0.40625q0 -2.734375 1.53125 -4.0625q1.265625 -1.0937538 3.09375 -1.0937538q2.03125 0 3.3125 1.3437538q1.296875 1.328125 1.296875 3.671875q0 1.90625 -0.578125 3.0q-0.5625 1.078125 -1.65625 1.6875q-1.078125 0.59375 -2.375 0.59375q-2.0625 0 -3.34375 -1.328125q-1.28125 -1.328125 -1.28125 -3.8125zm1.71875 0q0 1.890625 0.828125 2.828125q0.828125 0.9375 2.078125 0.9375q1.25 0 2.0625 -0.9375q0.828125 -0.953125 0.828125 -2.890625q0 -1.828125 -0.828125 -2.765625q-0.828125 -0.9375 -2.0625 -0.9375q-1.25 0 -2.078125 0.9375q-0.828125 0.9375 -0.828125 2.828125zm1.71875 -6.156254l1.234375 -2.59375l2.1875 0l-2.046875 2.59375l-1.375 0zm9.391296 11.078129l-3.015625 -9.859375l1.71875 0l1.5625 5.6875l0.59375 2.125q0.03125 -0.15625 0.5 -2.03125l1.578125 -5.78125l1.71875 0l1.46875 5.71875l0.484375 1.890625l0.578125 -1.90625l1.6875 -5.703125l1.625 0l-3.078125 9.859375l-1.734375 0l-1.578125 -5.90625l-0.375 -1.671875l-2.0 7.578125l-1.734375 0zm18.394836 -3.171875l1.71875 0.21875q-0.40625 1.5 -1.515625 2.34375q-1.09375 0.828125 -2.8125 0.828125q-2.15625 0 -3.421875 -1.328125q-1.265625 -1.328125 -1.265625 -3.734375q0 -2.484375 1.265625 -3.859375q1.28125 -1.3750038 3.328125 -1.3750038q1.984375 0 3.234375 1.3437538q1.25 1.34375 1.25 3.796875q0 0.140625 -0.015625 0.4375l-7.34375 0q0.09375 1.625 0.921875 2.484375q0.828125 0.859375 2.0625 0.859375q0.90625 0 1.546875 -0.46875q0.65625 -0.484375 1.046875 -1.546875zm-5.484375 -2.703125l5.5 0q-0.109375 -1.234375 -0.625 -1.859375q-0.796875 -0.96875 -2.078125 -0.96875q-1.140625 0 -1.9375 0.78125q-0.78125 0.765625 -0.859375 2.046875zm9.125732 5.875l0 -13.593754l1.671875 0l0 7.750004l3.953125 -4.015625l2.15625 0l-3.765625 3.65625l4.140625 6.203125l-2.0625 0l-3.25 -5.03125l-1.171875 1.125l0 3.90625l-1.671875 0zm13.823914 -2.9375l1.65625 -0.265625q0.140625 1.0 0.765625 1.53125q0.640625 0.515625 1.78125 0.515625q1.15625 0 1.703125 -0.46875q0.5625 -0.46875 0.5625 -1.09375q0 -0.5625 -0.484375 -0.890625q-0.34375 -0.21875 -1.703125 -0.5625q-1.84375 -0.46875 -2.5625 -0.796875q-0.703125 -0.34375 -1.078125 -0.9375q-0.359375 -0.609375 -0.359375 -1.328125q0 -0.65625 0.296875 -1.21875q0.3125 -0.5625 0.828125 -0.9375q0.390625 -0.28125 1.0625 -0.484375q0.671875 -0.20312881 1.4375 -0.20312881q1.171875 0 2.046875 0.3437538q0.875 0.328125 1.28125 0.90625q0.421875 0.5625 0.578125 1.515625l-1.625 0.21875q-0.109375 -0.75 -0.65625 -1.171875q-0.53125 -0.4375 -1.5 -0.4375q-1.15625 0 -1.640625 0.390625q-0.484375 0.375 -0.484375 0.875q0 0.328125 0.203125 0.59375q0.203125 0.265625 0.640625 0.4375q0.25 0.09375 1.46875 0.4375q1.765625 0.46875 2.46875 0.765625q0.703125 0.296875 1.09375 0.875q0.40625 0.578125 0.40625 1.4375q0 0.828125 -0.484375 1.578125q-0.484375 0.734375 -1.40625 1.140625q-0.921875 0.390625 -2.078125 0.390625q-1.921875 0 -2.9375 -0.796875q-1.0 -0.796875 -1.28125 -2.359375zm13.65625 1.4375l0.234375 1.484375q-0.703125 0.140625 -1.265625 0.140625q-0.90625 0 -1.40625 -0.28125q-0.5 -0.296875 -0.703125 -0.75q-0.203125 -0.46875 -0.203125 -1.984375l0 -5.65625l-1.234375 0l0 -1.3125l1.234375 0l0 -2.4375038l1.65625 -1.0l0 3.4375038l1.6875 0l0 1.3125l-1.6875 0l0 5.75q0 0.71875 0.078125 0.921875q0.09375 0.203125 0.296875 0.328125q0.203125 0.125 0.578125 0.125q0.265625 0 0.734375 -0.078125zm1.5114136 1.5l0 -9.859375l1.5 0l0 1.5q0.578125 -1.046875 1.0625 -1.375q0.484375 -0.3437538 1.078125 -0.3437538q0.84375 0 1.71875 0.5468788l-0.578125 1.546875q-0.609375 -0.359375 -1.234375 -0.359375q-0.546875 0 -0.984375 0.328125q-0.421875 0.328125 -0.609375 0.90625q-0.28125 0.890625 -0.28125 1.953125l0 5.15625l-1.671875 0zm5.6033325 -4.921875q0 -2.734375 1.53125 -4.0625q1.265625 -1.0937538 3.09375 -1.0937538q2.03125 0 3.3125 1.3437538q1.296875 1.328125 1.296875 3.671875q0 1.90625 -0.578125 3.0q-0.5625 1.078125 -1.65625 1.6875q-1.078125 0.59375 -2.375 0.59375q-2.0625 0 -3.34375 -1.328125q-1.28125 -1.328125 -1.28125 -3.8125zm1.71875 0q0 1.890625 0.828125 2.828125q0.828125 0.9375 2.078125 0.9375q1.25 0 2.0625 -0.9375q0.828125 -0.953125 0.828125 -2.890625q0 -1.828125 -0.828125 -2.765625q-0.828125 -0.9375 -2.0625 -0.9375q-1.25 0 -2.078125 0.9375q-0.828125 0.9375 -0.828125 2.828125zm9.281982 4.921875l0 -9.859375l1.5 0l0 1.40625q1.09375 -1.6250038 3.140625 -1.6250038q0.890625 0 1.640625 0.3281288q0.75 0.3125 1.109375 0.84375q0.375 0.515625 0.53125 1.21875q0.09375 0.46875 0.09375 1.625l0 6.0625l-1.671875 0l0 -6.0q0 -1.015625 -0.203125 -1.515625q-0.1875 -0.515625 -0.6875 -0.8125q-0.5 -0.296875 -1.171875 -0.296875q-1.0625 0 -1.84375 0.671875q-0.765625 0.671875 -0.765625 2.578125l0 5.375l-1.671875 0zm10.297546 3.796875l-0.171875 -1.5625q0.546875 0.140625 0.953125 0.140625q0.546875 0 0.875 -0.1875q0.34375 -0.1875 0.5625 -0.515625q0.15625 -0.25 0.5 -1.25q0.046875 -0.140625 0.15625 -0.40625l-3.734375 -9.875l1.796875 0l2.046875 5.71875q0.40625 1.078125 0.71875 2.28125q0.28125 -1.15625 0.6875 -2.25l2.09375 -5.75l1.671875 0l-3.75 10.03125q-0.59375 1.625 -0.9375 2.234375q-0.4375 0.828125 -1.015625 1.203125q-0.578125 0.390625 -1.375 0.390625q-0.484375 0 -1.078125 -0.203125z" fill-rule="nonzero"></path><path fill="#000000" fill-opacity="0.0" d="m478.5433 101.538055l215.43307 0l0 34.960632l-215.43307 0z" fill-rule="nonzero"></path><path fill="#000000" d="m495.2308 124.71962q-0.9375 0.796875 -1.796875 1.125q-0.859375 0.3125 -1.84375 0.3125q-1.609375 0 -2.484375 -0.78125q-0.875 -0.796875 -0.875 -2.03125q0 -0.734375 0.328125 -1.328125q0.328125 -0.59375 0.859375 -0.953125q0.53125 -0.359375 1.203125 -0.546875q0.5 -0.140625 1.484375 -0.25q2.03125 -0.25 2.984375 -0.578125q0 -0.34375 0 -0.4375q0 -1.015625 -0.46875 -1.4375q-0.640625 -0.5625 -1.90625 -0.5625q-1.171875 0 -1.734375 0.40625q-0.5625 0.40625 -0.828125 1.46875l-1.640625 -0.234375q0.234375 -1.046875 0.734375 -1.6875q0.515625 -0.640625 1.46875 -0.984375q0.96875 -0.359375 2.25 -0.359375q1.265625 0 2.046875 0.296875q0.78125 0.296875 1.15625 0.75q0.375 0.453125 0.515625 1.140625q0.09375 0.421875 0.09375 1.53125l0 2.234375q0 2.328125 0.09375 2.953125q0.109375 0.609375 0.4375 1.171875l-1.75 0q-0.265625 -0.515625 -0.328125 -1.21875zm-0.140625 -3.71875q-0.90625 0.359375 -2.734375 0.625q-1.03125 0.140625 -1.453125 0.328125q-0.421875 0.1875 -0.65625 0.546875q-0.234375 0.359375 -0.234375 0.796875q0 0.671875 0.5 1.125q0.515625 0.4375 1.484375 0.4375q0.96875 0 1.71875 -0.421875q0.75 -0.4375 1.109375 -1.15625q0.265625 -0.578125 0.265625 -1.671875l0 -0.609375zm7.7351074 3.4375l0.234375 1.484375q-0.703125 0.140625 -1.265625 0.140625q-0.90625 0 -1.40625 -0.28125q-0.5 -0.296875 -0.703125 -0.75q-0.203125 -0.46875 -0.203125 -1.984375l0 -5.65625l-1.234375 0l0 -1.3125l1.234375 0l0 -2.4375l1.65625 -1.0l0 3.4375l1.6875 0l0 1.3125l-1.6875 0l0 5.75q0 0.71875 0.078125 0.921875q0.09375 0.203125 0.296875 0.328125q0.203125 0.125 0.578125 0.125q0.265625 0 0.734375 -0.078125zm1.5114136 1.5l0 -9.859375l1.5 0l0 1.5q0.578125 -1.046875 1.0625 -1.375q0.484375 -0.34375 1.078125 -0.34375q0.84375 0 1.71875 0.546875l-0.578125 1.546875q-0.609375 -0.359375 -1.234375 -0.359375q-0.546875 0 -0.984375 0.328125q-0.421875 0.328125 -0.609375 0.90625q-0.28125 0.890625 -0.28125 1.953125l0 5.15625l-1.671875 0zm6.150177 3.796875l-0.171875 -1.5625q0.546875 0.140625 0.953125 0.140625q0.546875 0 0.875 -0.1875q0.34375 -0.1875 0.5625 -0.515625q0.15625 -0.25 0.5 -1.25q0.046875 -0.140625 0.15625 -0.40625l-3.734375 -9.875l1.796875 0l2.046875 5.71875q0.40625 1.078125 0.71875 2.28125q0.28125 -1.15625 0.6875 -2.25l2.09375 -5.75l1.671875 0l-3.75 10.03125q-0.59375 1.625 -0.9375 2.234375q-0.4375 0.828125 -1.015625 1.203125q-0.578125 0.390625 -1.375 0.390625q-0.484375 0 -1.078125 -0.203125zm10.953125 -3.796875l-1.546875 0l0 -13.59375l1.65625 0l0 4.84375q1.0625 -1.328125 2.703125 -1.328125q0.90625 0 1.71875 0.375q0.8125 0.359375 1.328125 1.03125q0.53125 0.65625 0.828125 1.59375q0.296875 0.9375 0.296875 2.0q0 2.53125 -1.25 3.921875q-1.25 1.375 -3.0 1.375q-1.75 0 -2.734375 -1.453125l0 1.234375zm-0.015625 -5.0q0 1.765625 0.46875 2.5625q0.796875 1.28125 2.140625 1.28125q1.09375 0 1.890625 -0.9375q0.796875 -0.953125 0.796875 -2.84375q0 -1.921875 -0.765625 -2.84375q-0.765625 -0.921875 -1.84375 -0.921875q-1.09375 0 -1.890625 0.953125q-0.796875 0.953125 -0.796875 2.75zm15.297607 5.0l0 -1.453125q-1.140625 1.671875 -3.125 1.671875q-0.859375 0 -1.625 -0.328125q-0.75 -0.34375 -1.125 -0.84375q-0.359375 -0.5 -0.515625 -1.234375q-0.09375 -0.5 -0.09375 -1.5625l0 -6.109375l1.671875 0l0 5.46875q0 1.3125 0.09375 1.765625q0.15625 0.65625 0.671875 1.03125q0.515625 0.375 1.265625 0.375q0.75 0 1.40625 -0.375q0.65625 -0.390625 0.921875 -1.046875q0.28125 -0.671875 0.28125 -1.9375l0 -5.28125l1.671875 0l0 9.859375l-1.5 0zm7.5788574 -1.5l0.234375 1.484375q-0.703125 0.140625 -1.265625 0.140625q-0.90625 0 -1.40625 -0.28125q-0.5 -0.296875 -0.703125 -0.75q-0.203125 -0.46875 -0.203125 -1.984375l0 -5.65625l-1.234375 0l0 -1.3125l1.234375 0l0 -2.4375l1.65625 -1.0l0 3.4375l1.6875 0l0 1.3125l-1.6875 0l0 5.75q0 0.71875 0.078125 0.921875q0.09375 0.203125 0.296875 0.328125q0.203125 0.125 0.578125 0.125q0.265625 0 0.734375 -0.078125zm5.429077 1.5l5.234375 -13.59375l1.9375 0l5.5625 13.59375l-2.046875 0l-1.59375 -4.125l-5.6875 0l-1.484375 4.125l-1.921875 0zm3.921875 -5.578125l4.609375 0l-1.40625 -3.78125q-0.65625 -1.703125 -0.96875 -2.8125q-0.265625 1.3125 -0.734375 2.59375l-1.5 4.0z" fill-rule="nonzero"></path><path fill="#000000" fill-opacity="0.0" d="m467.5538 90.884514l0 0c1.9221191 0 3.4803162 0.25968933 3.4803162 0.58003235l0 27.359627c0 0.3203354 1.558197 0.5800247 3.4803162 0.5800247l0 0c-1.9221191 0 -3.4803162 0.25968933 -3.4803162 0.58003235l0 27.359627c0 0.32034302 -1.558197 0.58003235 -3.4803162 0.58003235z" fill-rule="nonzero"></path><path fill="#000000" fill-opacity="0.0" d="m467.5538 90.884514l0 0c1.9221191 0 3.4803162 0.25968933 3.4803162 0.58003235l0 27.359627c0 0.3203354 1.558197 0.5800247 3.4803162 0.5800247l0 0c-1.9221191 0 -3.4803162 0.25968933 -3.4803162 0.58003235l0 27.359627c0 0.32034302 -1.558197 0.58003235 -3.4803162 0.58003235" fill-rule="nonzero"></path><path stroke="#000000" stroke-width="2.0" stroke-linejoin="round" stroke-linecap="butt" d="m467.5538 90.884514l0 0c1.9221191 0 3.4803162 0.25968933 3.4803162 0.58003235l0 27.359627c0 0.3203354 1.558197 0.5800247 3.4803162 0.5800247l0 0c-1.9221191 0 -3.4803162 0.25968933 -3.4803162 0.58003235l0 27.359627c0 0.32034302 -1.558197 0.58003235 -3.4803162 0.58003235" fill-rule="nonzero"></path><path fill="#000000" fill-opacity="0.0" d="m467.5538 160.47769l0 0c1.9221191 0 3.4803162 0.25968933 3.4803162 0.58003235l0 33.422607c0 0.32034302 1.558197 0.58003235 3.4803162 0.58003235l0 0c-1.9221191 0 -3.4803162 0.25968933 -3.4803162 0.58003235l0 33.422623c0 0.32034302 -1.558197 0.58003235 -3.4803162 0.58003235z" fill-rule="nonzero"></path><path fill="#000000" fill-opacity="0.0" d="m467.5538 160.47769l0 0c1.9221191 0 3.4803162 0.25968933 3.4803162 0.58003235l0 33.422607c0 0.32034302 1.558197 0.58003235 3.4803162 0.58003235l0 0c-1.9221191 0 -3.4803162 0.25968933 -3.4803162 0.58003235l0 33.422623c0 0.32034302 -1.558197 0.58003235 -3.4803162 0.58003235" fill-rule="nonzero"></path><path stroke="#000000" stroke-width="2.0" stroke-linejoin="round" stroke-linecap="butt" d="m467.5538 160.47769l0 0c1.9221191 0 3.4803162 0.25968933 3.4803162 0.58003235l0 33.422607c0 0.32034302 1.558197 0.58003235 3.4803162 0.58003235l0 0c-1.9221191 0 -3.4803162 0.25968933 -3.4803162 0.58003235l0 33.422623c0 0.32034302 -1.558197 0.58003235 -3.4803162 0.58003235" fill-rule="nonzero"></path><path fill="#000000" fill-opacity="0.0" d="m467.5538 237.14961l0 0c1.9221191 0 3.4803162 0.25968933 3.4803162 0.5800171l0 35.81633c0 0.32034302 1.558197 0.5800171 3.4803162 0.5800171l0 0c-1.9221191 0 -3.4803162 0.2597046 -3.4803162 0.5800476l0 35.816315c0 0.32034302 -1.558197 0.5800171 -3.4803162 0.5800171z" fill-rule="nonzero"></path><path fill="#000000" fill-opacity="0.0" d="m467.5538 237.14961l0 0c1.9221191 0 3.4803162 0.25968933 3.4803162 0.5800171l0 35.81633c0 0.32034302 1.558197 0.5800171 3.4803162 0.5800171l0 0c-1.9221191 0 -3.4803162 0.2597046 -3.4803162 0.5800476l0 35.816315c0 0.32034302 -1.558197 0.5800171 -3.4803162 0.5800171" fill-rule="nonzero"></path><path stroke="#000000" stroke-width="2.0" stroke-linejoin="round" stroke-linecap="butt" d="m467.5538 237.14961l0 0c1.9221191 0 3.4803162 0.25968933 3.4803162 0.5800171l0 35.81633c0 0.32034302 1.558197 0.5800171 3.4803162 0.5800171l0 0c-1.9221191 0 -3.4803162 0.2597046 -3.4803162 0.5800476l0 35.816315c0 0.32034302 -1.558197 0.5800171 -3.4803162 0.5800171" fill-rule="nonzero"></path><path fill="#000000" fill-opacity="0.0" d="m467.5538 315.75592l0 0c1.9221191 0 3.4803162 0.25967407 3.4803162 0.5800171l0 53.753326c0 0.32034302 1.558197 0.5800171 3.4803162 0.5800171l0 0c-1.9221191 0 -3.4803162 0.2597046 -3.4803162 0.5800476l0 53.753326c0 0.32034302 -1.558197 0.5800171 -3.4803162 0.5800171z" fill-rule="nonzero"></path><path fill="#000000" fill-opacity="0.0" d="m467.5538 315.75592l0 0c1.9221191 0 3.4803162 0.25967407 3.4803162 0.5800171l0 53.753326c0 0.32034302 1.558197 0.5800171 3.4803162 0.5800171l0 0c-1.9221191 0 -3.4803162 0.2597046 -3.4803162 0.5800476l0 53.753326c0 0.32034302 -1.558197 0.5800171 -3.4803162 0.5800171" fill-rule="nonzero"></path><path stroke="#000000" stroke-width="2.0" stroke-linejoin="round" stroke-linecap="butt" d="m467.5538 315.75592l0 0c1.9221191 0 3.4803162 0.25967407 3.4803162 0.5800171l0 53.753326c0 0.32034302 1.558197 0.5800171 3.4803162 0.5800171l0 0c-1.9221191 0 -3.4803162 0.2597046 -3.4803162 0.5800476l0 53.753326c0 0.32034302 -1.558197 0.5800171 -3.4803162 0.5800171" fill-rule="nonzero"></path><path fill="#000000" fill-opacity="0.0" d="m481.98163 177.57742l215.43304 0l0 34.960632l-215.43304 0z" fill-rule="nonzero"></path><path fill="#000000" d="m498.66913 200.75899q-0.9375 0.796875 -1.796875 1.125q-0.859375 0.3125 -1.84375 0.3125q-1.609375 0 -2.484375 -0.78125q-0.875 -0.796875 -0.875 -2.03125q0 -0.734375 0.328125 -1.328125q0.328125 -0.59375 0.859375 -0.953125q0.53125 -0.359375 1.203125 -0.546875q0.5 -0.140625 1.484375 -0.25q2.03125 -0.25 2.984375 -0.578125q0 -0.34375 0 -0.4375q0 -1.015625 -0.46875 -1.4375q-0.640625 -0.5625 -1.90625 -0.5625q-1.171875 0 -1.734375 0.40625q-0.5625 0.40625 -0.828125 1.46875l-1.640625 -0.234375q0.234375 -1.046875 0.734375 -1.6875q0.515625 -0.640625 1.46875 -0.984375q0.96875 -0.359375 2.25 -0.359375q1.265625 0 2.046875 0.296875q0.78125 0.296875 1.15625 0.75q0.375 0.453125 0.515625 1.140625q0.09375 0.421875 0.09375 1.53125l0 2.234375q0 2.328125 0.09375 2.953125q0.109375 0.609375 0.4375 1.171875l-1.75 0q-0.265625 -0.515625 -0.328125 -1.21875zm-0.140625 -3.71875q-0.90625 0.359375 -2.734375 0.625q-1.03125 0.140625 -1.453125 0.328125q-0.421875 0.1875 -0.65625 0.546875q-0.234375 0.359375 -0.234375 0.796875q0 0.671875 0.5 1.125q0.515625 0.4375 1.484375 0.4375q0.96875 0 1.71875 -0.421875q0.75 -0.4375 1.109375 -1.15625q0.265625 -0.578125 0.265625 -1.671875l0 -0.609375zm7.735077 3.4375l0.234375 1.484375q-0.703125 0.140625 -1.265625 0.140625q-0.90625 0 -1.40625 -0.28125q-0.5 -0.296875 -0.703125 -0.75q-0.203125 -0.46875 -0.203125 -1.984375l0 -5.65625l-1.234375 0l0 -1.3125l1.234375 0l0 -2.4375l1.65625 -1.0l0 3.4375l1.6875 0l0 1.3125l-1.6875 0l0 5.75q0 0.71875 0.078125 0.921875q0.09375 0.203125 0.296875 0.328125q0.203125 0.125 0.578125 0.125q0.265625 0 0.734375 -0.078125zm1.5114441 1.5l0 -9.859375l1.5 0l0 1.5q0.578125 -1.046875 1.0625 -1.375q0.484375 -0.34375 1.078125 -0.34375q0.84375 0 1.71875 0.546875l-0.578125 1.546875q-0.609375 -0.359375 -1.234375 -0.359375q-0.546875 0 -0.984375 0.328125q-0.421875 0.328125 -0.609375 0.90625q-0.28125 0.890625 -0.28125 1.953125l0 5.15625l-1.671875 0zm6.1501465 3.796875l-0.171875 -1.5625q0.546875 0.140625 0.953125 0.140625q0.546875 0 0.875 -0.1875q0.34375 -0.1875 0.5625 -0.515625q0.15625 -0.25 0.5 -1.25q0.046875 -0.140625 0.15625 -0.40625l-3.734375 -9.875l1.796875 0l2.046875 5.71875q0.40625 1.078125 0.71875 2.28125q0.28125 -1.15625 0.6875 -2.25l2.09375 -5.75l1.671875 0l-3.75 10.03125q-0.59375 1.625 -0.9375 2.234375q-0.4375 0.828125 -1.015625 1.203125q-0.578125 0.390625 -1.375 0.390625q-0.484375 0 -1.078125 -0.203125zm10.953125 -3.796875l-1.546875 0l0 -13.59375l1.65625 0l0 4.84375q1.0625 -1.328125 2.703125 -1.328125q0.90625 0 1.71875 0.375q0.8125 0.359375 1.328125 1.03125q0.53125 0.65625 0.828125 1.59375q0.296875 0.9375 0.296875 2.0q0 2.53125 -1.25 3.921875q-1.25 1.375 -3.0 1.375q-1.75 0 -2.734375 -1.453125l0 1.234375zm-0.015625 -5.0q0 1.765625 0.46875 2.5625q0.796875 1.28125 2.140625 1.28125q1.09375 0 1.890625 -0.9375q0.796875 -0.953125 0.796875 -2.84375q0 -1.921875 -0.765625 -2.84375q-0.765625 -0.921875 -1.84375 -0.921875q-1.09375 0 -1.890625 0.953125q-0.796875 0.953125 -0.796875 2.75zm15.297607 5.0l0 -1.453125q-1.140625 1.671875 -3.125 1.671875q-0.859375 0 -1.625 -0.328125q-0.75 -0.34375 -1.125 -0.84375q-0.359375 -0.5 -0.515625 -1.234375q-0.09375 -0.5 -0.09375 -1.5625l0 -6.109375l1.671875 0l0 5.46875q0 1.3125 0.09375 1.765625q0.15625 0.65625 0.671875 1.03125q0.515625 0.375 1.265625 0.375q0.75 0 1.40625 -0.375q0.65625 -0.390625 0.921875 -1.046875q0.28125 -0.671875 0.28125 -1.9375l0 -5.28125l1.671875 0l0 9.859375l-1.5 0zm7.5788574 -1.5l0.234375 1.484375q-0.703125 0.140625 -1.265625 0.140625q-0.90625 0 -1.40625 -0.28125q-0.5 -0.296875 -0.703125 -0.75q-0.203125 -0.46875 -0.203125 -1.984375l0 -5.65625l-1.234375 0l0 -1.3125l1.234375 0l0 -2.4375l1.65625 -1.0l0 3.4375l1.6875 0l0 1.3125l-1.6875 0l0 5.75q0 0.71875 0.078125 0.921875q0.09375 0.203125 0.296875 0.328125q0.203125 0.125 0.578125 0.125q0.265625 0 0.734375 -0.078125zm6.850952 1.5l0 -13.59375l5.109375 0q1.546875 0 2.484375 0.40625q0.953125 0.40625 1.484375 1.265625q0.53125 0.859375 0.53125 1.796875q0 0.875 -0.46875 1.65625q-0.46875 0.765625 -1.4375 1.234375q1.234375 0.359375 1.890625 1.234375q0.671875 0.875 0.671875 2.0625q0 0.953125 -0.40625 1.78125q-0.390625 0.8125 -0.984375 1.265625q-0.59375 0.4375 -1.5 0.671875q-0.890625 0.21875 -2.1875 0.21875l-5.1875 0zm1.796875 -7.890625l2.9375 0q1.203125 0 1.71875 -0.15625q0.6875 -0.203125 1.03125 -0.671875q0.359375 -0.46875 0.359375 -1.1875q0 -0.671875 -0.328125 -1.1875q-0.328125 -0.515625 -0.9375 -0.703125q-0.59375 -0.203125 -2.0625 -0.203125l-2.71875 0l0 4.109375zm0 6.28125l3.390625 0q0.875 0 1.21875 -0.0625q0.625 -0.109375 1.046875 -0.359375q0.421875 -0.265625 0.6875 -0.765625q0.265625 -0.5 0.265625 -1.140625q0 -0.765625 -0.390625 -1.328125q-0.390625 -0.5625 -1.078125 -0.78125q-0.6875 -0.234375 -1.984375 -0.234375l-3.15625 0l0 4.671875z" fill-rule="nonzero"></path><path fill="#000000" fill-opacity="0.0" d="m481.98163 256.65353l215.43304 0l0 34.960632l-215.43304 0z" fill-rule="nonzero"></path><path fill="#000000" d="m498.66913 279.8351q-0.9375 0.796875 -1.796875 1.125q-0.859375 0.3125 -1.84375 0.3125q-1.609375 0 -2.484375 -0.78125q-0.875 -0.796875 -0.875 -2.03125q0 -0.734375 0.328125 -1.328125q0.328125 -0.59375 0.859375 -0.953125q0.53125 -0.359375 1.203125 -0.546875q0.5 -0.140625 1.484375 -0.25q2.03125 -0.25 2.984375 -0.578125q0 -0.34375 0 -0.4375q0 -1.015625 -0.46875 -1.4375q-0.640625 -0.5625 -1.90625 -0.5625q-1.171875 0 -1.734375 0.40625q-0.5625 0.40625 -0.828125 1.46875l-1.640625 -0.234375q0.234375 -1.046875 0.734375 -1.6875q0.515625 -0.640625 1.46875 -0.984375q0.96875 -0.359375 2.25 -0.359375q1.265625 0 2.046875 0.296875q0.78125 0.296875 1.15625 0.75q0.375 0.453125 0.515625 1.140625q0.09375 0.421875 0.09375 1.53125l0 2.234375q0 2.328125 0.09375 2.953125q0.109375 0.609375 0.4375 1.171875l-1.75 0q-0.265625 -0.515625 -0.328125 -1.21875zm-0.140625 -3.71875q-0.90625 0.359375 -2.734375 0.625q-1.03125 0.140625 -1.453125 0.328125q-0.421875 0.1875 -0.65625 0.546875q-0.234375 0.359375 -0.234375 0.796875q0 0.671875 0.5 1.125q0.515625 0.4375 1.484375 0.4375q0.96875 0 1.71875 -0.421875q0.75 -0.4375 1.109375 -1.15625q0.265625 -0.578125 0.265625 -1.671875l0 -0.609375zm7.735077 3.4375l0.234375 1.484375q-0.703125 0.140625 -1.265625 0.140625q-0.90625 0 -1.40625 -0.28125q-0.5 -0.296875 -0.703125 -0.75q-0.203125 -0.46875 -0.203125 -1.984375l0 -5.65625l-1.234375 0l0 -1.3125l1.234375 0l0 -2.4375l1.65625 -1.0l0 3.4375l1.6875 0l0 1.3125l-1.6875 0l0 5.75q0 0.71875 0.078125 0.921875q0.09375 0.203125 0.296875 0.328125q0.203125 0.125 0.578125 0.125q0.265625 0 0.734375 -0.078125zm1.5114441 1.5l0 -9.859375l1.5 0l0 1.5q0.578125 -1.046875 1.0625 -1.375q0.484375 -0.34375 1.078125 -0.34375q0.84375 0 1.71875 0.546875l-0.578125 1.546875q-0.609375 -0.359375 -1.234375 -0.359375q-0.546875 0 -0.984375 0.328125q-0.421875 0.328125 -0.609375 0.90625q-0.28125 0.890625 -0.28125 1.953125l0 5.15625l-1.671875 0zm6.1501465 3.796875l-0.171875 -1.5625q0.546875 0.140625 0.953125 0.140625q0.546875 0 0.875 -0.1875q0.34375 -0.1875 0.5625 -0.515625q0.15625 -0.25 0.5 -1.25q0.046875 -0.140625 0.15625 -0.40625l-3.734375 -9.875l1.796875 0l2.046875 5.71875q0.40625 1.078125 0.71875 2.28125q0.28125 -1.15625 0.6875 -2.25l2.09375 -5.75l1.671875 0l-3.75 10.03125q-0.59375 1.625 -0.9375 2.234375q-0.4375 0.828125 -1.015625 1.203125q-0.578125 0.390625 -1.375 0.390625q-0.484375 0 -1.078125 -0.203125zm10.953125 -3.796875l-1.546875 0l0 -13.59375l1.65625 0l0 4.84375q1.0625 -1.328125 2.703125 -1.328125q0.90625 0 1.71875 0.375q0.8125 0.359375 1.328125 1.03125q0.53125 0.65625 0.828125 1.59375q0.296875 0.9375 0.296875 2.0q0 2.53125 -1.25 3.921875q-1.25 1.375 -3.0 1.375q-1.75 0 -2.734375 -1.453125l0 1.234375zm-0.015625 -5.0q0 1.765625 0.46875 2.5625q0.796875 1.28125 2.140625 1.28125q1.09375 0 1.890625 -0.9375q0.796875 -0.953125 0.796875 -2.84375q0 -1.921875 -0.765625 -2.84375q-0.765625 -0.921875 -1.84375 -0.921875q-1.09375 0 -1.890625 0.953125q-0.796875 0.953125 -0.796875 2.75zm15.297607 5.0l0 -1.453125q-1.140625 1.671875 -3.125 1.671875q-0.859375 0 -1.625 -0.328125q-0.75 -0.34375 -1.125 -0.84375q-0.359375 -0.5 -0.515625 -1.234375q-0.09375 -0.5 -0.09375 -1.5625l0 -6.109375l1.671875 0l0 5.46875q0 1.3125 0.09375 1.765625q0.15625 0.65625 0.671875 1.03125q0.515625 0.375 1.265625 0.375q0.75 0 1.40625 -0.375q0.65625 -0.390625 0.921875 -1.046875q0.28125 -0.671875 0.28125 -1.9375l0 -5.28125l1.671875 0l0 9.859375l-1.5 0zm7.5788574 -1.5l0.234375 1.484375q-0.703125 0.140625 -1.265625 0.140625q-0.90625 0 -1.40625 -0.28125q-0.5 -0.296875 -0.703125 -0.75q-0.203125 -0.46875 -0.203125 -1.984375l0 -5.65625l-1.234375 0l0 -1.3125l1.234375 0l0 -2.4375l1.65625 -1.0l0 3.4375l1.6875 0l0 1.3125l-1.6875 0l0 5.75q0 0.71875 0.078125 0.921875q0.09375 0.203125 0.296875 0.328125q0.203125 0.125 0.578125 0.125q0.265625 0 0.734375 -0.078125zm16.632202 -3.265625l1.796875 0.453125q-0.5625 2.21875 -2.03125 3.390625q-1.46875 1.15625 -3.59375 1.15625q-2.203125 0 -3.578125 -0.890625q-1.375 -0.90625 -2.09375 -2.59375q-0.71875 -1.703125 -0.71875 -3.65625q0 -2.125 0.796875 -3.703125q0.8125 -1.578125 2.3125 -2.390625q1.5 -0.828125 3.296875 -0.828125q2.046875 0 3.4375 1.046875q1.390625 1.03125 1.9375 2.90625l-1.765625 0.421875q-0.46875 -1.484375 -1.375 -2.15625q-0.90625 -0.6875 -2.265625 -0.6875q-1.5625 0 -2.625 0.75q-1.046875 0.75 -1.484375 2.03125q-0.421875 1.265625 -0.421875 2.609375q0 1.734375 0.5 3.03125q0.515625 1.28125 1.578125 1.921875q1.078125 0.640625 2.3125 0.640625q1.515625 0 2.5625 -0.859375q1.046875 -0.875 1.421875 -2.59375z" fill-rule="nonzero"></path><path fill="#000000" fill-opacity="0.0" d="m481.98163 353.1942l215.43304 0l0 34.960632l-215.43304 0z" fill-rule="nonzero"></path><path fill="#000000" d="m498.66913 376.3758q-0.9375 0.796875 -1.796875 1.125q-0.859375 0.3125 -1.84375 0.3125q-1.609375 0 -2.484375 -0.78125q-0.875 -0.796875 -0.875 -2.03125q0 -0.734375 0.328125 -1.328125q0.328125 -0.59375 0.859375 -0.953125q0.53125 -0.359375 1.203125 -0.546875q0.5 -0.140625 1.484375 -0.25q2.03125 -0.25 2.984375 -0.578125q0 -0.34375 0 -0.4375q0 -1.015625 -0.46875 -1.4375q-0.640625 -0.5625 -1.90625 -0.5625q-1.171875 0 -1.734375 0.40625q-0.5625 0.40625 -0.828125 1.46875l-1.640625 -0.234375q0.234375 -1.046875 0.734375 -1.6875q0.515625 -0.640625 1.46875 -0.984375q0.96875 -0.359375 2.25 -0.359375q1.265625 0 2.046875 0.296875q0.78125 0.296875 1.15625 0.75q0.375 0.453125 0.515625 1.140625q0.09375 0.421875 0.09375 1.53125l0 2.234375q0 2.328125 0.09375 2.953125q0.109375 0.609375 0.4375 1.171875l-1.75 0q-0.265625 -0.515625 -0.328125 -1.21875zm-0.140625 -3.71875q-0.90625 0.359375 -2.734375 0.625q-1.03125 0.140625 -1.453125 0.328125q-0.421875 0.1875 -0.65625 0.546875q-0.234375 0.359375 -0.234375 0.796875q0 0.671875 0.5 1.125q0.515625 0.4375 1.484375 0.4375q0.96875 0 1.71875 -0.421875q0.75 -0.4375 1.109375 -1.15625q0.265625 -0.578125 0.265625 -1.671875l0 -0.609375zm7.735077 3.4375l0.234375 1.484375q-0.703125 0.140625 -1.265625 0.140625q-0.90625 0 -1.40625 -0.28125q-0.5 -0.296875 -0.703125 -0.75q-0.203125 -0.46875 -0.203125 -1.984375l0 -5.65625l-1.234375 0l0 -1.3125l1.234375 0l0 -2.4375l1.65625 -1.0l0 3.4375l1.6875 0l0 1.3125l-1.6875 0l0 5.75q0 0.71875 0.078125 0.921875q0.09375 0.203125 0.296875 0.328125q0.203125 0.125 0.578125 0.125q0.265625 0 0.734375 -0.078125zm1.5114441 1.5l0 -9.859375l1.5 0l0 1.5q0.578125 -1.046875 1.0625 -1.375q0.484375 -0.34375 1.078125 -0.34375q0.84375 0 1.71875 0.546875l-0.578125 1.546875q-0.609375 -0.359375 -1.234375 -0.359375q-0.546875 0 -0.984375 0.328125q-0.421875 0.328125 -0.609375 0.90625q-0.28125 0.890625 -0.28125 1.953125l0 5.15625l-1.671875 0zm6.1501465 3.796875l-0.171875 -1.5625q0.546875 0.140625 0.953125 0.140625q0.546875 0 0.875 -0.1875q0.34375 -0.1875 0.5625 -0.515625q0.15625 -0.25 0.5 -1.25q0.046875 -0.140625 0.15625 -0.40625l-3.734375 -9.875l1.796875 0l2.046875 5.71875q0.40625 1.078125 0.71875 2.28125q0.28125 -1.15625 0.6875 -2.25l2.09375 -5.75l1.671875 0l-3.75 10.03125q-0.59375 1.625 -0.9375 2.234375q-0.4375 0.828125 -1.015625 1.203125q-0.578125 0.390625 -1.375 0.390625q-0.484375 0 -1.078125 -0.203125zm10.953125 -3.796875l-1.546875 0l0 -13.59375l1.65625 0l0 4.84375q1.0625 -1.328125 2.703125 -1.328125q0.90625 0 1.71875 0.375q0.8125 0.359375 1.328125 1.03125q0.53125 0.65625 0.828125 1.59375q0.296875 0.9375 0.296875 2.0q0 2.53125 -1.25 3.921875q-1.25 1.375 -3.0 1.375q-1.75 0 -2.734375 -1.453125l0 1.234375zm-0.015625 -5.0q0 1.765625 0.46875 2.5625q0.796875 1.28125 2.140625 1.28125q1.09375 0 1.890625 -0.9375q0.796875 -0.953125 0.796875 -2.84375q0 -1.921875 -0.765625 -2.84375q-0.765625 -0.921875 -1.84375 -0.921875q-1.09375 0 -1.890625 0.953125q-0.796875 0.953125 -0.796875 2.75zm15.297607 5.0l0 -1.453125q-1.140625 1.671875 -3.125 1.671875q-0.859375 0 -1.625 -0.328125q-0.75 -0.34375 -1.125 -0.84375q-0.359375 -0.5 -0.515625 -1.234375q-0.09375 -0.5 -0.09375 -1.5625l0 -6.109375l1.671875 0l0 5.46875q0 1.3125 0.09375 1.765625q0.15625 0.65625 0.671875 1.03125q0.515625 0.375 1.265625 0.375q0.75 0 1.40625 -0.375q0.65625 -0.390625 0.921875 -1.046875q0.28125 -0.671875 0.28125 -1.9375l0 -5.28125l1.671875 0l0 9.859375l-1.5 0zm7.5788574 -1.5l0.234375 1.484375q-0.703125 0.140625 -1.265625 0.140625q-0.90625 0 -1.40625 -0.28125q-0.5 -0.296875 -0.703125 -0.75q-0.203125 -0.46875 -0.203125 -1.984375l0 -5.65625l-1.234375 0l0 -1.3125l1.234375 0l0 -2.4375l1.65625 -1.0l0 3.4375l1.6875 0l0 1.3125l-1.6875 0l0 5.75q0 0.71875 0.078125 0.921875q0.09375 0.203125 0.296875 0.328125q0.203125 0.125 0.578125 0.125q0.265625 0 0.734375 -0.078125zm6.929077 1.5l0 -13.59375l4.6875 0q1.578125 0 2.421875 0.1875q1.15625 0.265625 1.984375 0.96875q1.078125 0.921875 1.609375 2.34375q0.53125 1.40625 0.53125 3.21875q0 1.546875 -0.359375 2.75q-0.359375 1.1875 -0.921875 1.984375q-0.5625 0.78125 -1.234375 1.234375q-0.671875 0.4375 -1.625 0.671875q-0.953125 0.234375 -2.1875 0.234375l-4.90625 0zm1.796875 -1.609375l2.90625 0q1.34375 0 2.109375 -0.25q0.765625 -0.25 1.21875 -0.703125q0.640625 -0.640625 1.0 -1.71875q0.359375 -1.078125 0.359375 -2.625q0 -2.125 -0.703125 -3.265625q-0.703125 -1.15625 -1.703125 -1.546875q-0.71875 -0.28125 -2.328125 -0.28125l-2.859375 0l0 10.390625z" fill-rule="nonzero"></path></g></svg>

