<?xml version="1.0" standalone="yes"?>

<svg version="1.1" viewBox="0.0 0.0 856.0 330.0" fill="none" stroke="none" stroke-linecap="square" stroke-miterlimit="10" xmlns="http://www.w3.org/2000/svg" xmlns:xlink="http://www.w3.org/1999/xlink"><clipPath id="p.0"><path d="m0 0l856.0 0l0 330.0l-856.0 0l0 -330.0z" clip-rule="nonzero"></path></clipPath><g clip-path="url(#p.0)"><path fill="#000000" fill-opacity="0.0" d="m0 0l856.32544 0l0 330.79266l-856.32544 0z" fill-rule="nonzero"></path><path fill="#fce5cd" d="m11.112861 62.75328l800.7874 0l0 176.66142l-800.7874 0z" fill-rule="nonzero"></path><path stroke="#000000" stroke-width="2.0" stroke-linejoin="round" stroke-linecap="butt" d="m11.112861 62.75328l800.7874 0l0 176.66142l-800.7874 0z" fill-rule="nonzero"></path><path fill="#f6b26b" d="m11.112861 62.75328l213.54332 0l0 46.614174l-213.54332 0z" fill-rule="nonzero"></path><path stroke="#000000" stroke-width="2.0" stroke-linejoin="round" stroke-linecap="butt" d="m11.112861 62.75328l213.54332 0l0 46.614174l-213.54332 0z" fill-rule="nonzero"></path><path fill="#000000" d="m103.10219 89.41787l1.765625 -0.15625q0.1875 1.28125 0.890625 1.9375q0.71875 0.640625 1.71875 0.640625q1.203125 0 2.03125 -0.90625q0.84375 -0.90625 0.84375 -2.421875q0 -1.421875 -0.8125 -2.25q-0.796875 -0.828125 -2.09375 -0.828125q-0.796875 0 -1.453125 0.375q-0.640625 0.359375 -1.015625 0.953125l-1.578125 -0.203125l1.328125 -7.0l6.765625 0l0 1.609375l-5.4375 0l-0.734375 3.640625q1.234375 -0.84375 2.578125 -0.84375q1.78125 0 3.0 1.234375q1.234375 1.234375 1.234375 3.171875q0 1.84375 -1.078125 3.1875q-1.3125 1.65625 -3.578125 1.65625q-1.859375 0 -3.03125 -1.03125q-1.171875 -1.046875 -1.34375 -2.765625zm10.391342 -0.03125l1.671875 -0.21875q0.28125 1.421875 0.96875 2.046875q0.703125 0.625 1.6875 0.625q1.1875 0 2.0 -0.8125q0.8125 -0.828125 0.8125 -2.03125q0 -1.140625 -0.765625 -1.890625q-0.75 -0.75 -1.90625 -0.75q-0.46875 0 -1.171875 0.1875l0.1875 -1.46875q0.15625 0.015625 0.265625 0.015625q1.0625 0 1.90625 -0.546875q0.859375 -0.5625 0.859375 -1.71875q0 -0.921875 -0.625 -1.515625q-0.609375 -0.609375 -1.59375 -0.609375q-0.96875 0 -1.625 0.609375q-0.640625 0.609375 -0.828125 1.84375l-1.671875 -0.296875q0.296875 -1.6875 1.375 -2.609375q1.09375 -0.921875 2.71875 -0.921875q1.109375 0 2.046875 0.484375q0.9375 0.46875 1.421875 1.296875q0.5 0.828125 0.5 1.75q0 0.890625 -0.46875 1.609375q-0.46875 0.71875 -1.40625 1.15625q1.21875 0.265625 1.875 1.15625q0.671875 0.875 0.671875 2.1875q0 1.78125 -1.296875 3.015625q-1.296875 1.234375 -3.28125 1.234375q-1.796875 0 -2.984375 -1.0625q-1.171875 -1.0625 -1.34375 -2.765625zm16.656967 3.59375l-1.671875 0l0 -10.640625q-0.59375 0.578125 -1.578125 1.15625q-0.984375 0.5625 -1.765625 0.859375l0 -1.625q1.40625 -0.65625 2.453125 -1.59375q1.046875 -0.9375 1.484375 -1.8125l1.078125 0l0 13.65625z" fill-rule="nonzero"></path><path fill="#b6d7a8" d="m438.19946 62.75328l53.385834 0l0 46.614174l-53.385834 0z" fill-rule="nonzero"></path><path stroke="#000000" stroke-width="2.0" stroke-linejoin="round" stroke-linecap="butt" d="m438.19946 62.75328l53.385834 0l0 46.614174l-53.385834 0z" fill-rule="nonzero"></path><path fill="#000000" d="m461.65955 81.66787l0 1.9375l-1.796875 0l0 -1.53125q0 -1.25 0.296875 -1.796875q0.390625 -0.75 1.234375 -1.125l0.40625 0.640625q-0.515625 0.21875 -0.75 0.640625q-0.234375 0.421875 -0.265625 1.234375l0.875 0zm2.379181 11.3125l0 -13.59375l1.671875 0l0 13.59375l-1.671875 0zm4.0823364 -11.796875l0 -1.9375l1.78125 0l0 1.53125q0 1.234375 -0.28125 1.78125q-0.40625 0.75 -1.25 1.140625l-0.40625 -0.671875q0.5 -0.203125 0.75 -0.640625q0.25 -0.4375 0.265625 -1.203125l-0.859375 0z" fill-rule="nonzero"></path><path fill="#b6d7a8" d="m491.5853 62.75328l53.385834 0l0 46.614174l-53.385834 0z" fill-rule="nonzero"></path><path stroke="#000000" stroke-width="2.0" stroke-linejoin="round" stroke-linecap="butt" d="m491.5853 62.75328l53.385834 0l0 46.614174l-53.385834 0z" fill-rule="nonzero"></path><path fill="#000000" d="m511.9299 81.66787l0 1.9375l-1.796875 0l0 -1.53125q0 -1.25 0.296875 -1.796875q0.390625 -0.75 1.234375 -1.125l0.40628052 0.640625q-0.5156555 0.21875 -0.7500305 0.640625q-0.234375 0.421875 -0.265625 1.234375l0.875 0zm1.7854309 6.390625q0 -2.734375 1.53125 -4.0625q1.265625 -1.09375 3.09375 -1.09375q2.03125 0 3.3125 1.34375q1.296875 1.328125 1.296875 3.671875q0 1.90625 -0.578125 3.0q-0.5625 1.078125 -1.65625 1.6875q-1.078125 0.59375 -2.375 0.59375q-2.0625 0 -3.34375 -1.328125q-1.28125 -1.328125 -1.28125 -3.8125zm1.71875 0q0 1.890625 0.828125 2.828125q0.828125 0.9375 2.078125 0.9375q1.25 0 2.0625 -0.9375q0.828125 -0.953125 0.828125 -2.890625q0 -1.828125 -0.828125 -2.765625q-0.828125 -0.9375 -2.0625 -0.9375q-1.25 0 -2.078125 0.9375q-0.828125 0.9375 -0.828125 2.828125zm9.188232 -6.875l0 -1.9375l1.78125 0l0 1.53125q0 1.234375 -0.28125 1.78125q-0.40625 0.75 -1.25 1.140625l-0.40625 -0.671875q0.5 -0.203125 0.75 -0.640625q0.25 -0.4375 0.265625 -1.203125l-0.859375 0z" fill-rule="nonzero"></path><path fill="#b6d7a8" d="m544.9711 62.75328l53.385803 0l0 46.614174l-53.385803 0z" fill-rule="nonzero"></path><path stroke="#000000" stroke-width="2.0" stroke-linejoin="round" stroke-linecap="butt" d="m544.9711 62.75328l53.385803 0l0 46.614174l-53.385803 0z" fill-rule="nonzero"></path><path fill="#000000" d="m567.3973 81.66787l0 1.9375l-1.796875 0l0 -1.53125q0 -1.25 0.296875 -1.796875q0.390625 -0.75 1.234375 -1.125l0.40625 0.640625q-0.515625 0.21875 -0.75 0.640625q-0.234375 0.421875 -0.265625 1.234375l0.875 0zm2.3947754 11.3125l0 -9.859375l1.5 0l0 1.5q0.578125 -1.046875 1.0625 -1.375q0.484375 -0.34375 1.078125 -0.34375q0.84375 0 1.71875 0.546875l-0.578125 1.546875q-0.609375 -0.359375 -1.234375 -0.359375q-0.546875 0 -0.984375 0.328125q-0.421875 0.328125 -0.609375 0.90625q-0.28125 0.890625 -0.28125 1.953125l0 5.15625l-1.671875 0zm6.1345825 -11.796875l0 -1.9375l1.78125 0l0 1.53125q0 1.234375 -0.28125 1.78125q-0.40625 0.75 -1.25 1.140625l-0.40625 -0.671875q0.5 -0.203125 0.75 -0.640625q0.25 -0.4375 0.265625 -1.203125l-0.859375 0z" fill-rule="nonzero"></path><path fill="#b6d7a8" d="m598.35693 62.75328l53.385864 0l0 46.614174l-53.385864 0z" fill-rule="nonzero"></path><path stroke="#000000" stroke-width="2.0" stroke-linejoin="round" stroke-linecap="butt" d="m598.35693 62.75328l53.385864 0l0 46.614174l-53.385864 0z" fill-rule="nonzero"></path><path fill="#000000" d="m618.70154 81.66787l0 1.9375l-1.796875 0l0 -1.53125q0 -1.25 0.296875 -1.796875q0.390625 -0.75 1.234375 -1.125l0.40625 0.640625q-0.515625 0.21875 -0.75 0.640625q-0.234375 0.421875 -0.265625 1.234375l0.875 0zm9.160461 8.140625l1.71875 0.21875q-0.40625 1.5 -1.515625 2.34375q-1.09375 0.828125 -2.8125 0.828125q-2.15625 0 -3.421875 -1.328125q-1.265625 -1.328125 -1.265625 -3.734375q0 -2.484375 1.265625 -3.859375q1.28125 -1.375 3.328125 -1.375q1.984375 0 3.234375 1.34375q1.25 1.34375 1.25 3.796875q0 0.140625 -0.015625 0.4375l-7.34375 0q0.09375 1.625 0.921875 2.484375q0.828125 0.859375 2.0625 0.859375q0.90625 0 1.546875 -0.46875q0.65625 -0.484375 1.046875 -1.546875zm-5.484375 -2.703125l5.5 0q-0.109375 -1.234375 -0.625 -1.859375q-0.796875 -0.96875 -2.078125 -0.96875q-1.140625 0 -1.9375 0.78125q-0.78125 0.765625 -0.859375 2.046875zm9.016357 -5.921875l0 -1.9375l1.78125 0l0 1.53125q0 1.234375 -0.28125 1.78125q-0.40625 0.75 -1.25 1.140625l-0.40625 -0.671875q0.5 -0.203125 0.75 -0.640625q0.25 -0.4375 0.265625 -1.203125l-0.859375 0z" fill-rule="nonzero"></path><path fill="#b6d7a8" d="m651.7428 62.75328l53.385803 0l0 46.614174l-53.385803 0z" fill-rule="nonzero"></path><path stroke="#000000" stroke-width="2.0" stroke-linejoin="round" stroke-linecap="butt" d="m651.7428 62.75328l53.385803 0l0 46.614174l-53.385803 0z" fill-rule="nonzero"></path><path fill="#000000" d="m669.5048 81.66787l0 1.9375l-1.796875 0l0 -1.53125q0 -1.25 0.296875 -1.796875q0.390625 -0.75 1.234375 -1.125l0.40625 0.640625q-0.515625 0.21875 -0.75 0.640625q-0.234375 0.421875 -0.265625 1.234375l0.875 0zm2.4104614 11.3125l0 -9.859375l1.5 0l0 1.390625q0.453125 -0.71875 1.21875 -1.15625q0.78125 -0.453125 1.765625 -0.453125q1.09375 0 1.796875 0.453125q0.703125 0.453125 0.984375 1.28125q1.171875 -1.734375 3.046875 -1.734375q1.46875 0 2.25 0.8125q0.796875 0.8125 0.796875 2.5l0 6.765625l-1.671875 0l0 -6.203125q0 -1.0 -0.15625 -1.4375q-0.15625 -0.453125 -0.59375 -0.71875q-0.421875 -0.265625 -1.0 -0.265625q-1.03125 0 -1.71875 0.6875q-0.6875 0.6875 -0.6875 2.21875l0 5.71875l-1.671875 0l0 -6.40625q0 -1.109375 -0.40625 -1.65625q-0.40625 -0.5625 -1.34375 -0.5625q-0.703125 0 -1.3125 0.375q-0.59375 0.359375 -0.859375 1.078125q-0.265625 0.71875 -0.265625 2.0625l0 5.109375l-1.671875 0zm15.4470825 -11.796875l0 -1.9375l1.78125 0l0 1.53125q0 1.234375 -0.28125 1.78125q-0.40625 0.75 -1.25 1.140625l-0.40625 -0.671875q0.5 -0.203125 0.75 -0.640625q0.25 -0.4375 0.265625 -1.203125l-0.859375 0z" fill-rule="nonzero"></path><path fill="#b6d7a8" d="m705.1286 62.75328l53.385864 0l0 46.614174l-53.385864 0z" fill-rule="nonzero"></path><path stroke="#000000" stroke-width="2.0" stroke-linejoin="round" stroke-linecap="butt" d="m705.1286 62.75328l53.385864 0l0 46.614174l-53.385864 0z" fill-rule="nonzero"></path><path fill="#000000" d="m728.0694 81.66787l0 1.9375l-1.796875 0l0 -1.53125q0 -1.25 0.296875 -1.796875q0.390625 -0.75 1.234375 -1.125l0.40625 0.640625q-0.515625 0.21875 -0.75 0.640625q-0.234375 0.421875 -0.265625 1.234375l0.875 0zm7.5 -0.484375l0 -1.9375l1.78125 0l0 1.53125q0 1.234375 -0.28125 1.78125q-0.40625 0.75 -1.25 1.140625l-0.40625 -0.671875q0.5 -0.203125 0.75 -0.640625q0.25 -0.4375 0.265625 -1.203125l-0.859375 0z" fill-rule="nonzero"></path><path fill="#b6d7a8" d="m758.51447 62.75328l53.385803 0l0 46.614174l-53.385803 0z" fill-rule="nonzero"></path><path stroke="#000000" stroke-width="2.0" stroke-linejoin="round" stroke-linecap="butt" d="m758.51447 62.75328l53.385803 0l0 46.614174l-53.385803 0z" fill-rule="nonzero"></path><path fill="#000000" d="m781.9745 81.66787l0 1.9375l-1.796875 0l0 -1.53125q0 -1.25 0.296875 -1.796875q0.390625 -0.75 1.234375 -1.125l0.40625 0.640625q-0.515625 0.21875 -0.75 0.640625q-0.234375 0.421875 -0.265625 1.234375l0.875 0zm2.4260864 -0.375l0 -1.90625l1.671875 0l0 1.90625l-1.671875 0zm0 11.6875l0 -9.859375l1.671875 0l0 9.859375l-1.671875 0zm5.8635864 -11.3125l0 1.9375l-1.796875 0l0 -1.53125q0 -1.25 0.296875 -1.796875q0.390625 -0.75 1.234375 -1.125l0.40625 0.640625q-0.515625 0.21875 -0.75 0.640625q-0.234375 0.421875 -0.265625 1.234375l0.875 0z" fill-rule="nonzero"></path><path fill="#f6b26b" d="m224.65617 62.75328l213.54329 0l0 46.614174l-213.54329 0z" fill-rule="nonzero"></path><path stroke="#000000" stroke-width="2.0" stroke-linejoin="round" stroke-linecap="butt" d="m224.65617 62.75328l213.54329 0l0 46.614174l-213.54329 0z" fill-rule="nonzero"></path><path fill="#000000" d="m311.45764 89.41787l1.765625 -0.15625q0.1875 1.28125 0.890625 1.9375q0.71875 0.640625 1.71875 0.640625q1.203125 0 2.03125 -0.90625q0.84375 -0.90625 0.84375 -2.421875q0 -1.421875 -0.8125 -2.25q-0.796875 -0.828125 -2.09375 -0.828125q-0.796875 0 -1.453125 0.375q-0.640625 0.359375 -1.015625 0.953125l-1.578125 -0.203125l1.328125 -7.0l6.765625 0l0 1.609375l-5.4375 0l-0.734375 3.640625q1.234375 -0.84375 2.578125 -0.84375q1.78125 0 3.0 1.234375q1.234375 1.234375 1.234375 3.171875q0 1.84375 -1.078125 3.1875q-1.3125 1.65625 -3.578125 1.65625q-1.859375 0 -3.03125 -1.03125q-1.171875 -1.046875 -1.34375 -2.765625zm10.375702 -3.140625q0 -2.421875 0.5 -3.890625q0.5 -1.46875 1.46875 -2.265625q0.984375 -0.796875 2.46875 -0.796875q1.09375 0 1.921875 0.4375q0.828125 0.4375 1.359375 1.28125q0.546875 0.828125 0.84375 2.015625q0.3125 1.1875 0.3125 3.21875q0 2.390625 -0.5 3.859375q-0.484375 1.46875 -1.46875 2.28125q-0.96875 0.796875 -2.46875 0.796875q-1.96875 0 -3.078125 -1.40625q-1.359375 -1.703125 -1.359375 -5.53125zm1.71875 0q0 3.34375 0.78125 4.453125q0.796875 1.109375 1.9375 1.109375q1.15625 0 1.9375 -1.109375q0.78125 -1.125 0.78125 -4.453125q0 -3.359375 -0.78125 -4.46875q-0.78125 -1.109375 -1.953125 -1.109375q-1.15625 0 -1.828125 0.984375q-0.875 1.234375 -0.875 4.59375zm8.922607 3.5625l1.59375 -0.15625q0.203125 1.140625 0.78125 1.65625q0.578125 0.5 1.484375 0.5q0.765625 0 1.34375 -0.34375q0.578125 -0.359375 0.953125 -0.953125q0.375 -0.59375 0.625 -1.59375q0.25 -1.0 0.25 -2.03125q0 -0.109375 -0.015625 -0.34375q-0.5 0.796875 -1.375 1.296875q-0.859375 0.5 -1.875 0.5q-1.6875 0 -2.859375 -1.21875q-1.171875 -1.234375 -1.171875 -3.234375q0 -2.078125 1.21875 -3.328125q1.234375 -1.265625 3.0625 -1.265625q1.328125 0 2.421875 0.71875q1.109375 0.703125 1.671875 2.03125q0.578125 1.328125 0.578125 3.828125q0 2.609375 -0.578125 4.15625q-0.5625 1.546875 -1.6875 2.359375q-1.109375 0.796875 -2.609375 0.796875q-1.59375 0 -2.609375 -0.890625q-1.0 -0.890625 -1.203125 -2.484375zm6.828125 -6.0q0 -1.4375 -0.765625 -2.28125q-0.765625 -0.859375 -1.84375 -0.859375q-1.109375 0 -1.9375 0.921875q-0.828125 0.90625 -0.828125 2.34375q0 1.3125 0.78125 2.125q0.796875 0.796875 1.9375 0.796875q1.171875 0 1.90625 -0.796875q0.75 -0.8125 0.75 -2.25zm3.281952 2.4375q0 -2.421875 0.5 -3.890625q0.5 -1.46875 1.46875 -2.265625q0.984375 -0.796875 2.46875 -0.796875q1.09375 0 1.921875 0.4375q0.828125 0.4375 1.359375 1.28125q0.546875 0.828125 0.84375 2.015625q0.3125 1.1875 0.3125 3.21875q0 2.390625 -0.5 3.859375q-0.484375 1.46875 -1.46875 2.28125q-0.96875 0.796875 -2.46875 0.796875q-1.96875 0 -3.078125 -1.40625q-1.359375 -1.703125 -1.359375 -5.53125zm1.71875 0q0 3.34375 0.78125 4.453125q0.796875 1.109375 1.9375 1.109375q1.15625 0 1.9375 -1.109375q0.78125 -1.125 0.78125 -4.453125q0 -3.359375 -0.78125 -4.46875q-0.78125 -1.109375 -1.953125 -1.109375q-1.15625 0 -1.828125 0.984375q-0.875 1.234375 -0.875 4.59375z" fill-rule="nonzero"></path><path fill="#000000" fill-opacity="0.0" d="m13.490813 57.341206c0 -3.2963104 0.4453478 -5.968502 0.9947109 -5.968502l102.404274 0c0.5493698 0 0.9947128 -2.6721916 0.9947128 -5.968506l0 0c0 3.2963142 0.44535065 5.968506 0.9947128 5.968506l102.40428 0l0 0c0.5493622 0 0.9947052 2.6721916 0.9947052 5.968502z" fill-rule="nonzero"></path><path fill="#000000" fill-opacity="0.0" d="m13.490813 57.341206c0 -3.2963104 0.4453478 -5.968502 0.9947109 -5.968502l102.404274 0c0.5493698 0 0.9947128 -2.6721916 0.9947128 -5.968506l0 0c0 3.2963142 0.44535065 5.968506 0.9947128 5.968506l102.40428 0l0 0c0.5493622 0 0.9947052 2.6721916 0.9947052 5.968502" fill-rule="nonzero"></path><path stroke="#000000" stroke-width="2.0" stroke-linejoin="round" stroke-linecap="butt" d="m13.490813 57.341206c0 -3.2963104 0.4453478 -5.968502 0.9947109 -5.968502l102.404274 0c0.5493698 0 0.9947128 -2.6721916 0.9947128 -5.968506l0 0c0 3.2963142 0.44535065 5.968506 0.9947128 5.968506l102.40428 0l0 0c0.5493622 0 0.9947052 2.6721916 0.9947052 5.968502" fill-rule="nonzero"></path><path fill="#000000" fill-opacity="0.0" d="m227.03412 57.341206c0 -3.2963104 0.44534302 -5.968502 0.99472046 -5.968502l102.40427 0c0.54937744 0 0.99472046 -2.6721916 0.99472046 -5.968506l0 0c0 3.2963142 0.44534302 5.968506 0.99472046 5.968506l102.40427 0l0 0c0.54937744 0 0.99472046 2.6721916 0.99472046 5.968502z" fill-rule="nonzero"></path><path fill="#000000" fill-opacity="0.0" d="m227.03412 57.341206c0 -3.2963104 0.44534302 -5.968502 0.99472046 -5.968502l102.40427 0c0.54937744 0 0.99472046 -2.6721916 0.99472046 -5.968506l0 0c0 3.2963142 0.44534302 5.968506 0.99472046 5.968506l102.40427 0l0 0c0.54937744 0 0.99472046 2.6721916 0.99472046 5.968502" fill-rule="nonzero"></path><path stroke="#000000" stroke-width="2.0" stroke-linejoin="round" stroke-linecap="butt" d="m227.03412 57.341206c0 -3.2963104 0.44534302 -5.968502 0.99472046 -5.968502l102.40427 0c0.54937744 0 0.99472046 -2.6721916 0.99472046 -5.968506l0 0c0 3.2963142 0.44534302 5.968506 0.99472046 5.968506l102.40427 0l0 0c0.54937744 0 0.99472046 2.6721916 0.99472046 5.968502" fill-rule="nonzero"></path><path fill="#000000" fill-opacity="0.0" d="m22.713911 9.3412075l190.3307 0l0 48.0l-190.3307 0z" fill-rule="nonzero"></path><path fill="#000000" d="m68.85591 24.573706l0 -1.90625l1.671875 0l0 1.90625l-1.671875 0zm0 11.687498l0 -9.859373l1.671875 0l0 9.859373l-1.671875 0zm4.097946 0l0 -13.593748l1.671875 0l0 13.593748l-1.671875 0zm3.5510712 -4.921873q0 -2.734375 1.53125 -4.0625q1.265625 -1.09375 3.09375 -1.09375q2.03125 0 3.3125 1.34375q1.296875 1.328125 1.296875 3.671875q0 1.9062481 -0.578125 2.999998q-0.5625 1.078125 -1.65625 1.6875q-1.078125 0.59375 -2.375 0.59375q-2.0625 0 -3.34375 -1.328125q-1.28125 -1.328125 -1.28125 -3.812498zm1.71875 0q0 1.8906231 0.828125 2.828123q0.828125 0.9375 2.078125 0.9375q1.25 0 2.0625 -0.9375q0.828125 -0.953125 0.828125 -2.890623q0 -1.828125 -0.828125 -2.765625q-0.828125 -0.9375 -2.0625 -0.9375q-1.25 0 -2.078125 0.9375q-0.828125 0.9375 -0.828125 2.828125zm8.610092 1.9843731l1.65625 -0.265625q0.140625 1.0 0.765625 1.53125q0.640625 0.515625 1.78125 0.515625q1.15625 0 1.703125 -0.46875q0.5625 -0.46875 0.5625 -1.09375q0 -0.5625 -0.484375 -0.890625q-0.34375 -0.21875 -1.703125 -0.5625q-1.84375 -0.4687481 -2.5625 -0.7968731q-0.703125 -0.34375 -1.078125 -0.9375q-0.359375 -0.609375 -0.359375 -1.328125q0 -0.65625 0.296875 -1.21875q0.3125 -0.5625 0.828125 -0.9375q0.390625 -0.28125 1.0625 -0.484375q0.671875 -0.203125 1.4375 -0.203125q1.171875 0 2.046875 0.34375q0.875 0.328125 1.28125 0.90625q0.421875 0.5625 0.578125 1.515625l-1.625 0.21875q-0.109375 -0.75 -0.65625 -1.171875q-0.53125 -0.4375 -1.5 -0.4375q-1.15625 0 -1.640625 0.390625q-0.484375 0.375 -0.484375 0.875q0 0.328125 0.203125 0.59375q0.203125 0.265625 0.640625 0.4375q0.25 0.09375 1.46875 0.4375q1.765625 0.46875 2.46875 0.765625q0.703125 0.296875 1.09375 0.875q0.40625 0.5781231 0.40625 1.4374981q0 0.828125 -0.484375 1.578125q-0.484375 0.734375 -1.40625 1.140625q-0.921875 0.390625 -2.078125 0.390625q-1.921875 0 -2.9375 -0.796875q-1.0 -0.796875 -1.28125 -2.359375zm3.484375 -8.140623l1.234375 -2.59375l2.1875 0l-2.046875 2.59375l-1.375 0zm12.953125 7.468748l1.640625 0.21875q-0.265625 1.6875 -1.375 2.65625q-1.109375 0.953125 -2.734375 0.953125q-2.015625 0 -3.25 -1.3125q-1.21875 -1.328125 -1.21875 -3.796873q0 -1.59375 0.515625 -2.78125q0.53125 -1.203125 1.609375 -1.796875q1.09375 -0.609375 2.359375 -0.609375q1.609375 0 2.625 0.8125q1.015625 0.8125 1.3125 2.3125l-1.625 0.25q-0.234375 -1.0 -0.828125 -1.5q-0.59375 -0.5 -1.421875 -0.5q-1.265625 0 -2.0625 0.90625q-0.78125 0.90625 -0.78125 2.859375q0 1.9843731 0.765625 2.890623q0.765625 0.890625 1.984375 0.890625q0.984375 0 1.640625 -0.59375q0.65625 -0.609375 0.84375 -1.859375zm-3.625 -7.468748l1.234375 -2.59375l2.1875 0l-2.046875 2.59375l-1.375 0zm18.136429 7.468748l1.640625 0.21875q-0.265625 1.6875 -1.375 2.65625q-1.109375 0.953125 -2.734375 0.953125q-2.015625 0 -3.25 -1.3125q-1.21875 -1.328125 -1.21875 -3.796873q0 -1.59375 0.515625 -2.78125q0.53125 -1.203125 1.609375 -1.796875q1.09375 -0.609375 2.359375 -0.609375q1.609375 0 2.625 0.8125q1.015625 0.8125 1.3125 2.3125l-1.625 0.25q-0.234375 -1.0 -0.828125 -1.5q-0.59375 -0.5 -1.421875 -0.5q-1.265625 0 -2.0625 0.90625q-0.78125 0.90625 -0.78125 2.859375q0 1.9843731 0.765625 2.890623q0.765625 0.890625 1.984375 0.890625q0.984375 0 1.640625 -0.59375q0.65625 -0.609375 0.84375 -1.859375zm2.90625 -8.078123l0 -1.90625l1.671875 0l0 1.90625l-1.671875 0zm0 11.687498l0 -9.859373l1.671875 0l0 9.859373l-1.671875 0zm10.566696 -1.21875q-0.9375 0.796875 -1.796875 1.125q-0.859375 0.3125 -1.84375 0.3125q-1.609375 0 -2.484375 -0.78125q-0.875 -0.796875 -0.875 -2.03125q0 -0.734375 0.328125 -1.328125q0.328125 -0.5937481 0.859375 -0.9531231q0.53125 -0.359375 1.203125 -0.546875q0.5 -0.140625 1.484375 -0.25q2.03125 -0.25 2.984375 -0.578125q0 -0.34375 0 -0.4375q0 -1.015625 -0.46875 -1.4375q-0.640625 -0.5625 -1.90625 -0.5625q-1.171875 0 -1.734375 0.40625q-0.5625 0.40625 -0.828125 1.46875l-1.640625 -0.234375q0.234375 -1.046875 0.734375 -1.6875q0.515625 -0.640625 1.46875 -0.984375q0.96875 -0.359375 2.25 -0.359375q1.265625 0 2.046875 0.296875q0.78125 0.296875 1.15625 0.75q0.375 0.453125 0.515625 1.140625q0.09375 0.421875 0.09375 1.53125l0 2.234373q0 2.328125 0.09375 2.953125q0.109375 0.609375 0.4375 1.171875l-1.75 0q-0.265625 -0.515625 -0.328125 -1.21875zm-0.140625 -3.718748q-0.90625 0.359375 -2.734375 0.625q-1.03125 0.1406231 -1.453125 0.3281231q-0.421875 0.1875 -0.65625 0.546875q-0.234375 0.359375 -0.234375 0.796875q0 0.671875 0.5 1.125q0.515625 0.4375 1.484375 0.4375q0.96875 0 1.71875 -0.421875q0.75 -0.4375 1.109375 -1.15625q0.265625 -0.578125 0.265625 -1.6718731l0 -0.609375zm1.65625 4.937498q-0.53125 0.328125 -0.828125 0.796875q-0.28125 0.484375 -0.28125 0.96875q0 0.390625 0.203125 0.65625q0.21875 0.28125 0.703125 0.28125q0.203125 0 0.421875 -0.0625q0.234375 -0.0625 0.421875 -0.15625l0 1.1875q-0.6875 0.3125 -1.265625 0.3125q-0.46875 0 -0.828125 -0.140625q-0.34375 -0.125 -0.59375 -0.359375q-0.234375 -0.234375 -0.34375 -0.546875q-0.109375 -0.296875 -0.109375 -0.65625q0 -0.59375 0.328125 -1.203125q0.328125 -0.59375 0.9375 -1.078125l1.234375 0zm2.1257172 0.8125l1.609375 0.25q0.109375 0.75 0.578125 1.09375q0.609375 0.453125 1.6875 0.453125q1.171875 0 1.796875 -0.46875q0.625 -0.453125 0.859375 -1.28125q0.125 -0.515625 0.109375 -2.15625q-1.09375 1.296875 -2.71875 1.296875q-2.03125 0 -3.15625 -1.46875q-1.109375 -1.46875 -1.109375 -3.515623q0 -1.40625 0.515625 -2.59375q0.515625 -1.203125 1.484375 -1.84375q0.96875 -0.65625 2.265625 -0.65625q1.75 0 2.875 1.40625l0 -1.1875l1.546875 0l0 8.515623q0 2.3125 -0.46875 3.265625q-0.46875 0.96875 -1.484375 1.515625q-1.015625 0.5625 -2.5 0.5625q-1.765625 0 -2.859375 -0.796875q-1.078125 -0.796875 -1.03125 -2.390625zm1.375 -5.921873q0 1.9531231 0.765625 2.843748q0.78125 0.890625 1.9375 0.890625q1.140625 0 1.921875 -0.890625q0.78125 -0.890625 0.78125 -2.781248q0 -1.8125 -0.8125 -2.71875q-0.796875 -0.921875 -1.921875 -0.921875q-1.109375 0 -1.890625 0.90625q-0.78125 0.890625 -0.78125 2.671875zm8.672592 0.1875q0 -2.734375 1.53125 -4.0625q1.265625 -1.09375 3.09375 -1.09375q2.03125 0 3.3125 1.34375q1.296875 1.328125 1.296875 3.671875q0 1.9062481 -0.578125 2.999998q-0.5625 1.078125 -1.65625 1.6875q-1.078125 0.59375 -2.375 0.59375q-2.0625 0 -3.34375 -1.328125q-1.28125 -1.328125 -1.28125 -3.812498zm1.71875 0q0 1.8906231 0.828125 2.828123q0.828125 0.9375 2.078125 0.9375q1.25 0 2.0625 -0.9375q0.828125 -0.953125 0.828125 -2.890623q0 -1.828125 -0.828125 -2.765625q-0.828125 -0.9375 -2.0625 -0.9375q-1.25 0 -2.078125 0.9375q-0.828125 0.9375 -0.828125 2.828125zm1.71875 -6.15625l1.234375 -2.59375l2.1875 0l-2.046875 2.59375l-1.375 0zm9.391342 11.078123l-3.015625 -9.859373l1.71875 0l1.5625 5.687498l0.59375 2.125q0.03125 -0.15625 0.5 -2.03125l1.578125 -5.781248l1.71875 0l1.46875 5.718748l0.484375 1.890625l0.578125 -1.90625l1.6875 -5.703123l1.625 0l-3.078125 9.859373l-1.734375 0l-1.578125 -5.906248l-0.375 -1.671875l-2.0 7.578123l-1.734375 0z" fill-rule="nonzero"></path><path fill="#000000" fill-opacity="0.0" d="m246.19948 9.3412075l170.45668 0l0 48.0l-170.45668 0z" fill-rule="nonzero"></path><path fill="#000000" d="m275.6413 36.261204l0 -9.859373l1.5 0l0 1.5q0.578125 -1.046875 1.0625 -1.375q0.484375 -0.34375 1.078125 -0.34375q0.84375 0 1.71875 0.546875l-0.578125 1.546875q-0.609375 -0.359375 -1.234375 -0.359375q-0.546875 0 -0.984375 0.328125q-0.421875 0.328125 -0.609375 0.90625q-0.28125 0.890625 -0.28125 1.953125l0 5.156248l-1.671875 0zm5.603302 -4.921873q0 -2.734375 1.53125 -4.0625q1.265625 -1.09375 3.09375 -1.09375q2.03125 0 3.3125 1.34375q1.296875 1.328125 1.296875 3.671875q0 1.9062481 -0.578125 2.999998q-0.5625 1.078125 -1.65625 1.6875q-1.078125 0.59375 -2.375 0.59375q-2.0625 0 -3.34375 -1.328125q-1.28125 -1.328125 -1.28125 -3.812498zm1.71875 0q0 1.8906231 0.828125 2.828123q0.828125 0.9375 2.078125 0.9375q1.25 0 2.0625 -0.9375q0.828125 -0.953125 0.828125 -2.890623q0 -1.828125 -0.828125 -2.765625q-0.828125 -0.9375 -2.0625 -0.9375q-1.25 0 -2.078125 0.9375q-0.828125 0.9375 -0.828125 2.828125zm8.406982 4.921873l0 -1.359375l6.265625 -7.187498q-1.0625 0.046875 -1.875 0.046875l-4.015625 0l0 -1.359375l8.046875 0l0 1.109375l-5.34375 6.249998l-1.015625 1.140625q1.109375 -0.078125 2.09375 -0.078125l4.5625 0l0 1.4375l-8.71875 0zm10.203125 0l0 -9.859373l1.5 0l0 1.390625q0.453125 -0.71875 1.21875 -1.15625q0.78125 -0.453125 1.765625 -0.453125q1.09375 0 1.796875 0.453125q0.703125 0.453125 0.984375 1.28125q1.171875 -1.734375 3.046875 -1.734375q1.46875 0 2.25 0.8125q0.796875 0.8125 0.796875 2.5l0 6.765623l-1.671875 0l0 -6.203123q0 -1.0 -0.15625 -1.4375q-0.15625 -0.453125 -0.59375 -0.71875q-0.421875 -0.265625 -1.0 -0.265625q-1.03125 0 -1.71875 0.6875q-0.6875 0.6875 -0.6875 2.21875l0 5.718748l-1.671875 0l0 -6.406248q0 -1.109375 -0.40625 -1.65625q-0.40625 -0.5625 -1.34375 -0.5625q-0.703125 0 -1.3125 0.375q-0.59375 0.359375 -0.859375 1.078125q-0.265625 0.71875 -0.265625 2.0625l0 5.109373l-1.671875 0zm15.556427 -11.687498l0 -1.90625l1.671875 0l0 1.90625l-1.671875 0zm0 11.687498l0 -9.859373l1.671875 0l0 9.859373l-1.671875 0zm10.566681 -1.21875q-0.9375 0.796875 -1.796875 1.125q-0.859375 0.3125 -1.84375 0.3125q-1.609375 0 -2.484375 -0.78125q-0.875 -0.796875 -0.875 -2.03125q0 -0.734375 0.328125 -1.328125q0.328125 -0.5937481 0.859375 -0.9531231q0.53125 -0.359375 1.203125 -0.546875q0.5 -0.140625 1.484375 -0.25q2.03125 -0.25 2.984375 -0.578125q0 -0.34375 0 -0.4375q0 -1.015625 -0.46875 -1.4375q-0.640625 -0.5625 -1.90625 -0.5625q-1.171875 0 -1.734375 0.40625q-0.5625 0.40625 -0.828125 1.46875l-1.640625 -0.234375q0.234375 -1.046875 0.734375 -1.6875q0.515625 -0.640625 1.46875 -0.984375q0.96875 -0.359375 2.25 -0.359375q1.265625 0 2.046875 0.296875q0.78125 0.296875 1.15625 0.75q0.375 0.453125 0.515625 1.140625q0.09375 0.421875 0.09375 1.53125l0 2.234373q0 2.328125 0.09375 2.953125q0.109375 0.609375 0.4375 1.171875l-1.75 0q-0.265625 -0.515625 -0.328125 -1.21875zm-0.140625 -3.718748q-0.90625 0.359375 -2.734375 0.625q-1.03125 0.1406231 -1.453125 0.3281231q-0.421875 0.1875 -0.65625 0.546875q-0.234375 0.359375 -0.234375 0.796875q0 0.671875 0.5 1.125q0.515625 0.4375 1.484375 0.4375q0.96875 0 1.71875 -0.421875q0.75 -0.4375 1.109375 -1.15625q0.265625 -0.578125 0.265625 -1.6718731l0 -0.609375zm4.0632324 4.937498l0 -9.859373l1.5 0l0 1.5q0.578125 -1.046875 1.0625 -1.375q0.484375 -0.34375 1.078125 -0.34375q0.84375 0 1.71875 0.546875l-0.578125 1.546875q-0.609375 -0.359375 -1.234375 -0.359375q-0.546875 0 -0.984375 0.328125q-0.421875 0.328125 -0.609375 0.90625q-0.28125 0.890625 -0.28125 1.953125l0 5.156248l-1.671875 0zm17.84909 -1.21875q-0.9375 0.796875 -1.796875 1.125q-0.859375 0.3125 -1.84375 0.3125q-1.609375 0 -2.484375 -0.78125q-0.875 -0.796875 -0.875 -2.03125q0 -0.734375 0.328125 -1.328125q0.328125 -0.5937481 0.859375 -0.9531231q0.53125 -0.359375 1.203125 -0.546875q0.5 -0.140625 1.484375 -0.25q2.03125 -0.25 2.984375 -0.578125q0 -0.34375 0 -0.4375q0 -1.015625 -0.46875 -1.4375q-0.640625 -0.5625 -1.90625 -0.5625q-1.171875 0 -1.734375 0.40625q-0.5625 0.40625 -0.828125 1.46875l-1.640625 -0.234375q0.234375 -1.046875 0.734375 -1.6875q0.515625 -0.640625 1.46875 -0.984375q0.96875 -0.359375 2.25 -0.359375q1.265625 0 2.046875 0.296875q0.78125 0.296875 1.15625 0.75q0.375 0.453125 0.515625 1.140625q0.09375 0.421875 0.09375 1.53125l0 2.234373q0 2.328125 0.09375 2.953125q0.109375 0.609375 0.4375 1.171875l-1.75 0q-0.265625 -0.515625 -0.328125 -1.21875zm-0.140625 -3.718748q-0.90625 0.359375 -2.734375 0.625q-1.03125 0.1406231 -1.453125 0.3281231q-0.421875 0.1875 -0.65625 0.546875q-0.234375 0.359375 -0.234375 0.796875q0 0.671875 0.5 1.125q0.515625 0.4375 1.484375 0.4375q0.96875 0 1.71875 -0.421875q0.75 -0.4375 1.109375 -1.15625q0.265625 -0.578125 0.265625 -1.6718731l0 -0.609375zm4.0632324 4.937498l0 -9.859373l1.5 0l0 1.5q0.578125 -1.046875 1.0625 -1.375q0.484375 -0.34375 1.078125 -0.34375q0.84375 0 1.71875 0.546875l-0.578125 1.546875q-0.609375 -0.359375 -1.234375 -0.359375q-0.546875 0 -0.984375 0.328125q-0.421875 0.328125 -0.609375 0.90625q-0.28125 0.890625 -0.28125 1.953125l0 5.156248l-1.671875 0zm12.978302 -3.171875l1.71875 0.21875q-0.40625 1.5 -1.515625 2.34375q-1.09375 0.828125 -2.8125 0.828125q-2.15625 0 -3.421875 -1.328125q-1.265625 -1.328125 -1.265625 -3.734373q0 -2.484375 1.265625 -3.859375q1.28125 -1.375 3.328125 -1.375q1.984375 0 3.234375 1.34375q1.25 1.34375 1.25 3.796875q0 0.140625 -0.015625 0.4375l-7.34375 0q0.09375 1.6249981 0.921875 2.484373q0.828125 0.859375 2.0625 0.859375q0.90625 0 1.546875 -0.46875q0.65625 -0.484375 1.046875 -1.546875zm-5.484375 -2.703123l5.5 0q-0.109375 -1.234375 -0.625 -1.859375q-0.796875 -0.96875 -2.078125 -0.96875q-1.140625 0 -1.9375 0.78125q-0.78125 0.765625 -0.859375 2.046875zm9.110077 5.874998l0 -9.859373l1.5 0l0 1.40625q1.09375 -1.625 3.140625 -1.625q0.890625 0 1.640625 0.328125q0.75 0.3125 1.109375 0.84375q0.375 0.515625 0.53125 1.21875q0.09375 0.46875 0.09375 1.625l0 6.062498l-1.671875 0l0 -5.999998q0 -1.015625 -0.203125 -1.515625q-0.1875 -0.515625 -0.6875 -0.8125q-0.5 -0.296875 -1.171875 -0.296875q-1.0625 0 -1.84375 0.671875q-0.765625 0.671875 -0.765625 2.578125l0 5.374998l-1.671875 0zm10.297577 3.796875l-0.171875 -1.5625q0.546875 0.140625 0.953125 0.140625q0.546875 0 0.875 -0.1875q0.34375 -0.1875 0.5625 -0.515625q0.15625 -0.25 0.5 -1.25q0.046875 -0.140625 0.15625 -0.40625l-3.734375 -9.874998l1.796875 0l2.046875 5.718748q0.40625 1.078125 0.71875 2.28125q0.28125 -1.15625 0.6875 -2.25l2.09375 -5.749998l1.671875 0l-3.75 10.031248q-0.59375 1.625 -0.9375 2.234375q-0.4375 0.828125 -1.015625 1.203125q-0.578125 0.390625 -1.375 0.390625q-0.484375 0 -1.078125 -0.203125z" fill-rule="nonzero"></path><path fill="#b6d7a8" d="m11.112861 109.367455l53.385826 0l0 46.614174l-53.385826 0z" fill-rule="nonzero"></path><path stroke="#000000" stroke-width="2.0" stroke-linejoin="round" stroke-linecap="butt" d="m11.112861 109.367455l53.385826 0l0 46.614174l-53.385826 0z" fill-rule="nonzero"></path><path fill="#000000" d="m31.45747 128.28204l0 1.9375l-1.796875 0l0 -1.53125q0 -1.2500076 0.296875 -1.7968826q0.390625 -0.75 1.234375 -1.125l0.40625 0.640625q-0.515625 0.21875 -0.75 0.640625q-0.234375 0.421875 -0.265625 1.2343826l0.875 0zm2.4104462 15.09375l0 -13.640625l1.53125 0l0 1.28125q0.53125 -0.75 1.203125 -1.125q0.6875 -0.375 1.640625 -0.375q1.265625 0 2.234375 0.65625q0.96875 0.640625 1.453125 1.828125q0.5 1.1875 0.5 2.59375q0 1.515625 -0.546875 2.734375q-0.546875 1.203125 -1.578125 1.84375q-1.03125 0.640625 -2.171875 0.640625q-0.84375 0 -1.515625 -0.34375q-0.65625 -0.359375 -1.078125 -0.890625l0 4.796875l-1.671875 0zm1.515625 -8.65625q0 1.90625 0.765625 2.8125q0.78125 0.90625 1.875 0.90625q1.109375 0 1.890625 -0.9375q0.796875 -0.9375 0.796875 -2.921875q0 -1.875 -0.78125 -2.8125q-0.765625 -0.9375 -1.84375 -0.9375q-1.0625 0 -1.890625 1.0q-0.8125 1.0 -0.8125 2.890625zm8.766342 -6.9218826l0 -1.9375l1.78125 0l0 1.53125q0 1.2343826 -0.28125 1.7812576q-0.40625 0.75 -1.25 1.140625l-0.40625 -0.671875q0.5 -0.203125 0.75 -0.640625q0.25 -0.4375 0.265625 -1.2031326l-0.859375 0z" fill-rule="nonzero"></path><path fill="#b6d7a8" d="m64.49869 109.367455l53.385826 0l0 46.614174l-53.385826 0z" fill-rule="nonzero"></path><path stroke="#000000" stroke-width="2.0" stroke-linejoin="round" stroke-linecap="butt" d="m64.49869 109.367455l53.385826 0l0 46.614174l-53.385826 0z" fill-rule="nonzero"></path><path fill="#000000" d="m85.36709 128.28204l0 1.9375l-1.796875 0l0 -1.53125q0 -1.2500076 0.296875 -1.7968826q0.390625 -0.75 1.234375 -1.125l0.40625 0.640625q-0.515625 0.21875 -0.75 0.640625q-0.234375 0.421875 -0.265625 1.2343826l0.875 0zm1.7385712 8.375l1.65625 -0.265625q0.140625 1.0 0.765625 1.53125q0.640625 0.515625 1.78125 0.515625q1.15625 0 1.703125 -0.46875q0.5625 -0.46875 0.5625 -1.09375q0 -0.5625 -0.484375 -0.890625q-0.34375 -0.21875 -1.703125 -0.5625q-1.84375 -0.46875 -2.5625 -0.796875q-0.703125 -0.34375 -1.078125 -0.9375q-0.359375 -0.609375 -0.359375 -1.328125q0 -0.65625 0.296875 -1.21875q0.3125 -0.5625 0.828125 -0.9375q0.390625 -0.28125 1.0625 -0.484375q0.671875 -0.203125 1.4375 -0.203125q1.171875 0 2.046875 0.34375q0.875 0.328125 1.28125 0.90625q0.421875 0.5625 0.578125 1.515625l-1.625 0.21875q-0.109375 -0.75 -0.65625 -1.171875q-0.53125 -0.4375 -1.5 -0.4375q-1.15625 0 -1.640625 0.390625q-0.484375 0.375 -0.484375 0.875q0 0.328125 0.203125 0.59375q0.203125 0.265625 0.640625 0.4375q0.25 0.09375 1.46875 0.4375q1.765625 0.46875 2.46875 0.765625q0.703125 0.296875 1.09375 0.875q0.40625 0.578125 0.40625 1.4375q0 0.828125 -0.484375 1.578125q-0.484375 0.734375 -1.40625 1.140625q-0.921875 0.390625 -2.078125 0.390625q-1.921875 0 -2.9375 -0.796875q-1.0 -0.796875 -1.28125 -2.359375zm9.90625 -8.859383l0 -1.9375l1.78125 0l0 1.53125q0 1.2343826 -0.28125 1.7812576q-0.40625 0.75 -1.25 1.140625l-0.40625 -0.671875q0.5 -0.203125 0.75 -0.640625q0.25 -0.4375 0.265625 -1.2031326l-0.859375 0z" fill-rule="nonzero"></path><path fill="#b6d7a8" d="m117.884514 109.367455l53.385826 0l0 46.614174l-53.385826 0z" fill-rule="nonzero"></path><path stroke="#000000" stroke-width="2.0" stroke-linejoin="round" stroke-linecap="butt" d="m117.884514 109.367455l53.385826 0l0 46.614174l-53.385826 0z" fill-rule="nonzero"></path><path fill="#000000" d="m138.22913 128.28204l0 1.9375l-1.796875 0l0 -1.53125q0 -1.2500076 0.296875 -1.7968826q0.390625 -0.75 1.234375 -1.125l0.40625 0.640625q-0.515625 0.21875 -0.75 0.640625q-0.234375 0.421875 -0.265625 1.2343826l0.875 0zm8.863571 11.3125l0 -1.453125q-1.140625 1.671875 -3.125 1.671875q-0.859375 0 -1.625 -0.328125q-0.75 -0.34375 -1.125 -0.84375q-0.359375 -0.5 -0.515625 -1.234375q-0.09375 -0.5 -0.09375 -1.5625l0 -6.109375l1.671875 0l0 5.46875q0 1.3125 0.09375 1.765625q0.15625 0.65625 0.671875 1.03125q0.515625 0.375 1.265625 0.375q0.75 0 1.40625 -0.375q0.65625 -0.390625 0.921875 -1.046875q0.28125 -0.671875 0.28125 -1.9375l0 -5.28125l1.671875 0l0 9.859375l-1.5 0zm3.8288422 -11.796883l0 -1.9375l1.78125 0l0 1.53125q0 1.2343826 -0.28125 1.7812576q-0.40625 0.75 -1.25 1.140625l-0.40625 -0.671875q0.5 -0.203125 0.75 -0.640625q0.25 -0.4375 0.265625 -1.2031326l-0.859375 0z" fill-rule="nonzero"></path><path fill="#b6d7a8" d="m171.27034 109.367455l53.385834 0l0 46.614174l-53.385834 0z" fill-rule="nonzero"></path><path stroke="#000000" stroke-width="2.0" stroke-linejoin="round" stroke-linecap="butt" d="m171.27034 109.367455l53.385834 0l0 46.614174l-53.385834 0z" fill-rule="nonzero"></path><path fill="#000000" d="m189.03241 128.28204l0 1.9375l-1.796875 0l0 -1.53125q0 -1.2500076 0.296875 -1.7968826q0.390625 -0.75 1.234375 -1.125l0.40625 0.640625q-0.515625 0.21875 -0.75 0.640625q-0.234375 0.421875 -0.265625 1.2343826l0.875 0zm2.4104462 11.3125l0 -9.859375l1.5 0l0 1.390625q0.453125 -0.71875 1.21875 -1.15625q0.78125 -0.453125 1.765625 -0.453125q1.09375 0 1.796875 0.453125q0.703125 0.453125 0.984375 1.28125q1.171875 -1.734375 3.046875 -1.734375q1.46875 0 2.25 0.8125q0.796875 0.8125 0.796875 2.5l0 6.765625l-1.671875 0l0 -6.203125q0 -1.0 -0.15625 -1.4375q-0.15625 -0.453125 -0.59375 -0.71875q-0.421875 -0.265625 -1.0 -0.265625q-1.03125 0 -1.71875 0.6875q-0.6875 0.6875 -0.6875 2.21875l0 5.71875l-1.671875 0l0 -6.40625q0 -1.109375 -0.40625 -1.65625q-0.40625 -0.5625 -1.34375 -0.5625q-0.703125 0 -1.3125 0.375q-0.59375 0.359375 -0.859375 1.078125q-0.265625 0.71875 -0.265625 2.0625l0 5.109375l-1.671875 0zm15.447052 -11.796883l0 -1.9375l1.78125 0l0 1.53125q0 1.2343826 -0.28125 1.7812576q-0.40625 0.75 -1.25 1.140625l-0.40625 -0.671875q0.5 -0.203125 0.75 -0.640625q0.25 -0.4375 0.265625 -1.2031326l-0.859375 0z" fill-rule="nonzero"></path><path fill="#c9daf8" d="m224.65617 109.367455l53.38582 0l0 46.614174l-53.38582 0z" fill-rule="nonzero"></path><path stroke="#000000" stroke-width="2.0" stroke-linejoin="round" stroke-linecap="butt" d="m224.65617 109.367455l53.38582 0l0 46.614174l-53.38582 0z" fill-rule="nonzero"></path><path fill="#000000" d="m236.08336 132.45767q0 -1.90625 0.390625 -3.0625q0.390625 -1.15625 1.15625 -1.7812576q0.78125 -0.640625 1.953125 -0.640625q0.859375 0 1.515625 0.359375q0.65625 0.34375 1.078125 1.0000076q0.421875 0.640625 0.65625 1.59375q0.25 0.9375 0.25 2.53125q0 1.890625 -0.390625 3.0625q-0.390625 1.15625 -1.171875 1.796875q-0.765625 0.625 -1.9375 0.625q-1.546875 0 -2.4375 -1.125q-1.0625 -1.328125 -1.0625 -4.359375zm1.359375 0q0 2.640625 0.609375 3.515625q0.625 0.875 1.53125 0.875q0.90625 0 1.515625 -0.875q0.625 -0.875 0.625 -3.515625q0 -2.65625 -0.625 -3.515625q-0.609375 -0.875 -1.53125 -0.875q-0.90625 0 -1.453125 0.765625q-0.671875 0.984375 -0.671875 3.625zm6.276108 5.296875l2.84375 -4.046875l-2.625 -3.734375l1.640625 0l1.203125 1.828125q0.328125 0.515625 0.53125 0.875q0.328125 -0.484375 0.59375 -0.859375l1.3125 -1.84375l1.578125 0l-2.6875 3.671875l2.890625 4.109375l-1.625 0l-1.59375 -2.421875l-0.421875 -0.640625l-2.046875 3.0625l-1.59375 0zm7.84375 -5.296875q0 -1.90625 0.390625 -3.0625q0.390625 -1.15625 1.15625 -1.7812576q0.78125 -0.640625 1.953125 -0.640625q0.859375 0 1.515625 0.359375q0.65625 0.34375 1.078125 1.0000076q0.421875 0.640625 0.65625 1.59375q0.25 0.9375 0.25 2.53125q0 1.890625 -0.390625 3.0625q-0.390625 1.15625 -1.171875 1.796875q-0.765625 0.625 -1.9375 0.625q-1.546875 0 -2.4375 -1.125q-1.0625 -1.328125 -1.0625 -4.359375zm1.359375 0q0 2.640625 0.609375 3.515625q0.625 0.875 1.53125 0.875q0.90625 0 1.515625 -0.875q0.625 -0.875 0.625 -3.515625q0 -2.65625 -0.625 -3.515625q-0.609375 -0.875 -1.53125 -0.875q-0.90625 0 -1.453125 0.765625q-0.671875 0.984375 -0.671875 3.625zm6.7917175 2.484375l1.375 -0.125q0.15625 1.015625 0.71875 1.53125q0.5625 0.5 1.359375 0.5q0.953125 0 1.609375 -0.71875q0.65625 -0.71875 0.65625 -1.890625q0 -1.140625 -0.640625 -1.78125q-0.625 -0.65625 -1.65625 -0.65625q-0.640625 0 -1.15625 0.296875q-0.5 0.28125 -0.796875 0.734375l-1.234375 -0.15625l1.03125 -5.5156326l5.34375 0l0 1.2656326l-4.28125 0l-0.578125 2.875q0.96875 -0.671875 2.03125 -0.671875q1.40625 0 2.359375 0.984375q0.96875 0.96875 0.96875 2.5q0 1.453125 -0.84375 2.515625q-1.03125 1.3125 -2.8125 1.3125q-1.46875 0 -2.40625 -0.8125q-0.921875 -0.828125 -1.046875 -2.1875z" fill-rule="nonzero"></path><path fill="#c9daf8" d="m278.042 109.367455l53.385834 0l0 46.614174l-53.385834 0z" fill-rule="nonzero"></path><path stroke="#000000" stroke-width="2.0" stroke-linejoin="round" stroke-linecap="butt" d="m278.042 109.367455l53.385834 0l0 46.614174l-53.385834 0z" fill-rule="nonzero"></path><path fill="#000000" d="m289.46918 132.45767q0 -1.90625 0.390625 -3.0625q0.390625 -1.15625 1.15625 -1.7812576q0.78125 -0.640625 1.953125 -0.640625q0.859375 0 1.515625 0.359375q0.65625 0.34375 1.078125 1.0000076q0.421875 0.640625 0.65625 1.59375q0.25 0.9375 0.25 2.53125q0 1.890625 -0.390625 3.0625q-0.390625 1.15625 -1.171875 1.796875q-0.765625 0.625 -1.9375 0.625q-1.546875 0 -2.4375 -1.125q-1.0625 -1.328125 -1.0625 -4.359375zm1.359375 0q0 2.640625 0.609375 3.515625q0.625 0.875 1.53125 0.875q0.90625 0 1.515625 -0.875q0.625 -0.875 0.625 -3.515625q0 -2.65625 -0.625 -3.515625q-0.609375 -0.875 -1.53125 -0.875q-0.90625 0 -1.453125 0.765625q-0.671875 0.984375 -0.671875 3.625zm6.276123 5.296875l2.84375 -4.046875l-2.625 -3.734375l1.640625 0l1.203125 1.828125q0.328125 0.515625 0.53125 0.875q0.328125 -0.484375 0.59375 -0.859375l1.3125 -1.84375l1.578125 0l-2.6875 3.671875l2.890625 4.109375l-1.625 0l-1.59375 -2.421875l-0.421875 -0.640625l-2.046875 3.0625l-1.59375 0zm7.84375 -5.296875q0 -1.90625 0.390625 -3.0625q0.390625 -1.15625 1.15625 -1.7812576q0.78125 -0.640625 1.953125 -0.640625q0.859375 0 1.515625 0.359375q0.65625 0.34375 1.078125 1.0000076q0.421875 0.640625 0.65625 1.59375q0.25 0.9375 0.25 2.53125q0 1.890625 -0.390625 3.0625q-0.390625 1.15625 -1.171875 1.796875q-0.765625 0.625 -1.9375 0.625q-1.546875 0 -2.4375 -1.125q-1.0625 -1.328125 -1.0625 -4.359375zm1.359375 0q0 2.640625 0.609375 3.515625q0.625 0.875 1.53125 0.875q0.90625 0 1.515625 -0.875q0.625 -0.875 0.625 -3.515625q0 -2.65625 -0.625 -3.515625q-0.609375 -0.875 -1.53125 -0.875q-0.90625 0 -1.453125 0.765625q-0.671875 0.984375 -0.671875 3.625zm6.7917175 0q0 -1.90625 0.390625 -3.0625q0.390625 -1.15625 1.15625 -1.7812576q0.78125 -0.640625 1.953125 -0.640625q0.859375 0 1.515625 0.359375q0.65625 0.34375 1.078125 1.0000076q0.421875 0.640625 0.65625 1.59375q0.25 0.9375 0.25 2.53125q0 1.890625 -0.390625 3.0625q-0.390625 1.15625 -1.171875 1.796875q-0.765625 0.625 -1.9375 0.625q-1.546875 0 -2.4375 -1.125q-1.0625 -1.328125 -1.0625 -4.359375zm1.359375 0q0 2.640625 0.609375 3.515625q0.625 0.875 1.53125 0.875q0.90625 0 1.515625 -0.875q0.625 -0.875 0.625 -3.515625q0 -2.65625 -0.625 -3.515625q-0.609375 -0.875 -1.53125 -0.875q-0.90625 0 -1.453125 0.765625q-0.671875 0.984375 -0.671875 3.625z" fill-rule="nonzero"></path><path fill="#c9daf8" d="m331.42783 109.367455l53.385834 0l0 46.614174l-53.385834 0z" fill-rule="nonzero"></path><path stroke="#000000" stroke-width="2.0" stroke-linejoin="round" stroke-linecap="butt" d="m331.42783 109.367455l53.385834 0l0 46.614174l-53.385834 0z" fill-rule="nonzero"></path><path fill="#000000" d="m342.855 132.45767q0 -1.90625 0.390625 -3.0625q0.390625 -1.15625 1.15625 -1.7812576q0.78125 -0.640625 1.953125 -0.640625q0.859375 0 1.515625 0.359375q0.65625 0.34375 1.078125 1.0000076q0.421875 0.640625 0.65625 1.59375q0.25 0.9375 0.25 2.53125q0 1.890625 -0.390625 3.0625q-0.390625 1.15625 -1.171875 1.796875q-0.765625 0.625 -1.9375 0.625q-1.546875 0 -2.4375 -1.125q-1.0625 -1.328125 -1.0625 -4.359375zm1.359375 0q0 2.640625 0.609375 3.515625q0.625 0.875 1.53125 0.875q0.90625 0 1.515625 -0.875q0.625 -0.875 0.625 -3.515625q0 -2.65625 -0.625 -3.515625q-0.609375 -0.875 -1.53125 -0.875q-0.90625 0 -1.453125 0.765625q-0.671875 0.984375 -0.671875 3.625zm6.2760925 5.296875l2.84375 -4.046875l-2.625 -3.734375l1.640625 0l1.203125 1.828125q0.328125 0.515625 0.53125 0.875q0.328125 -0.484375 0.59375 -0.859375l1.3125 -1.84375l1.578125 0l-2.6875 3.671875l2.890625 4.109375l-1.625 0l-1.59375 -2.421875l-0.421875 -0.640625l-2.046875 3.0625l-1.59375 0zm14.765625 -1.265625l0 1.265625l-7.09375 0q-0.015625 -0.46875 0.15625 -0.921875q0.265625 -0.71875 0.859375 -1.421875q0.609375 -0.703125 1.734375 -1.625q1.75 -1.4375 2.359375 -2.265625q0.625 -0.84375 0.625 -1.59375q0 -0.78125 -0.5625 -1.3125q-0.5625 -0.546875 -1.46875 -0.546875q-0.953125 0 -1.53125 0.578125q-0.5625 0.5625 -0.5625 1.578125l-1.359375 -0.140625q0.140625 -1.515625 1.046875 -2.3125076q0.90625 -0.796875 2.4375 -0.796875q1.546875 0 2.4375 0.859375q0.90625 0.8593826 0.90625 2.1250076q0 0.640625 -0.265625 1.265625q-0.25 0.625 -0.875 1.3125q-0.609375 0.6875 -2.03125 1.890625q-1.1875 0.984375 -1.53125 1.34375q-0.328125 0.359375 -0.546875 0.71875l5.265625 0zm1.229248 -4.03125q0 -1.90625 0.390625 -3.0625q0.390625 -1.15625 1.15625 -1.7812576q0.78125 -0.640625 1.953125 -0.640625q0.859375 0 1.515625 0.359375q0.65625 0.34375 1.078125 1.0000076q0.421875 0.640625 0.65625 1.59375q0.25 0.9375 0.25 2.53125q0 1.890625 -0.390625 3.0625q-0.390625 1.15625 -1.171875 1.796875q-0.765625 0.625 -1.9375 0.625q-1.546875 0 -2.4375 -1.125q-1.0625 -1.328125 -1.0625 -4.359375zm1.359375 0q0 2.640625 0.609375 3.515625q0.625 0.875 1.53125 0.875q0.90625 0 1.515625 -0.875q0.625 -0.875 0.625 -3.515625q0 -2.65625 -0.625 -3.515625q-0.609375 -0.875 -1.53125 -0.875q-0.90625 0 -1.453125 0.765625q-0.671875 0.984375 -0.671875 3.625z" fill-rule="nonzero"></path><path fill="#c9daf8" d="m384.81366 109.367455l53.385803 0l0 46.614174l-53.385803 0z" fill-rule="nonzero"></path><path stroke="#000000" stroke-width="2.0" stroke-linejoin="round" stroke-linecap="butt" d="m384.81366 109.367455l53.385803 0l0 46.614174l-53.385803 0z" fill-rule="nonzero"></path><path fill="#000000" d="m395.4286 132.45767q0 -1.90625 0.390625 -3.0625q0.390625 -1.15625 1.15625 -1.7812576q0.78125 -0.640625 1.953125 -0.640625q0.859375 0 1.515625 0.359375q0.65625 0.34375 1.078125 1.0000076q0.421875 0.640625 0.65625 1.59375q0.25 0.9375 0.25 2.53125q0 1.890625 -0.390625 3.0625q-0.390625 1.15625 -1.171875 1.796875q-0.765625 0.625 -1.9375 0.625q-1.546875 0 -2.4375 -1.125q-1.0625 -1.328125 -1.0625 -4.359375zm1.359375 0q0 2.640625 0.609375 3.515625q0.625 0.875 1.53125 0.875q0.90625 0 1.515625 -0.875q0.625 -0.875 0.625 -3.515625q0 -2.65625 -0.625 -3.515625q-0.609375 -0.875 -1.53125 -0.875q-0.90625 0 -1.453125 0.765625q-0.671875 0.984375 -0.671875 3.625zm6.276123 5.296875l2.84375 -4.046875l-2.625 -3.734375l1.640625 0l1.203125 1.828125q0.328125 0.515625 0.53125 0.875q0.328125 -0.484375 0.59375 -0.859375l1.3125 -1.84375l1.578125 0l-2.6875 3.671875l2.890625 4.109375l-1.625 0l-1.59375 -2.421875l-0.421875 -0.640625l-2.046875 3.0625l-1.59375 0zm8.3125 0l0 -10.734383l4.03125 0q1.234375 0 1.96875 0.328125q0.75 0.328125 1.171875 1.0000076q0.421875 0.671875 0.421875 1.421875q0 0.6875 -0.375 1.296875q-0.375 0.59375 -1.125 0.96875q0.96875 0.296875 1.484375 0.984375q0.53125 0.6875 0.53125 1.625q0 0.75 -0.328125 1.40625q-0.3125 0.640625 -0.78125 1.0q-0.46875 0.34375 -1.171875 0.53125q-0.703125 0.171875 -1.734375 0.171875l-4.09375 0zm1.421875 -6.21875l2.328125 0q0.9375 0 1.359375 -0.125q0.53125 -0.171875 0.796875 -0.546875q0.28125 -0.375 0.28125 -0.9375q0 -0.53125 -0.25 -0.9375q-0.25 -0.40625 -0.734375 -0.546875q-0.46875 -0.15625 -1.625 -0.15625l-2.15625 0l0 3.25zm0 4.953125l2.671875 0q0.6875 0 0.96875 -0.046875q0.5 -0.09375 0.828125 -0.296875q0.328125 -0.203125 0.53125 -0.59375q0.21875 -0.390625 0.21875 -0.90625q0 -0.609375 -0.3125 -1.046875q-0.296875 -0.4375 -0.84375 -0.609375q-0.546875 -0.1875 -1.578125 -0.1875l-2.484375 0l0 3.6875zm7.8849792 -4.03125q0 -1.90625 0.390625 -3.0625q0.390625 -1.15625 1.15625 -1.7812576q0.78125 -0.640625 1.953125 -0.640625q0.859375 0 1.515625 0.359375q0.65625 0.34375 1.078125 1.0000076q0.421875 0.640625 0.65625 1.59375q0.25 0.9375 0.25 2.53125q0 1.890625 -0.390625 3.0625q-0.390625 1.15625 -1.171875 1.796875q-0.765625 0.625 -1.9375 0.625q-1.546875 0 -2.4375 -1.125q-1.0625 -1.328125 -1.0625 -4.359375zm1.359375 0q0 2.640625 0.609375 3.515625q0.625 0.875 1.53125 0.875q0.90625 0 1.515625 -0.875q0.625 -0.875 0.625 -3.515625q0 -2.65625 -0.625 -3.515625q-0.609375 -0.875 -1.53125 -0.875q-0.90625 0 -1.453125 0.765625q-0.671875 0.984375 -0.671875 3.625z" fill-rule="nonzero"></path><path fill="#c9daf8" d="m438.19946 109.367455l53.385834 0l0 46.614174l-53.385834 0z" fill-rule="nonzero"></path><path stroke="#000000" stroke-width="2.0" stroke-linejoin="round" stroke-linecap="butt" d="m438.19946 109.367455l53.385834 0l0 46.614174l-53.385834 0z" fill-rule="nonzero"></path><path fill="#000000" d="m449.62668 132.45767q0 -1.90625 0.390625 -3.0625q0.390625 -1.15625 1.15625 -1.7812576q0.78125 -0.640625 1.953125 -0.640625q0.859375 0 1.515625 0.359375q0.65625 0.34375 1.078125 1.0000076q0.421875 0.640625 0.65625 1.59375q0.25 0.9375 0.25 2.53125q0 1.890625 -0.390625 3.0625q-0.390625 1.15625 -1.171875 1.796875q-0.765625 0.625 -1.9375 0.625q-1.546875 0 -2.4375 -1.125q-1.0625 -1.328125 -1.0625 -4.359375zm1.359375 0q0 2.640625 0.609375 3.515625q0.625 0.875 1.53125 0.875q0.90625 0 1.515625 -0.875q0.625 -0.875 0.625 -3.515625q0 -2.65625 -0.625 -3.515625q-0.609375 -0.875 -1.53125 -0.875q-0.90625 0 -1.453125 0.765625q-0.671875 0.984375 -0.671875 3.625zm6.2760925 5.296875l2.84375 -4.046875l-2.625 -3.734375l1.640625 0l1.203125 1.828125q0.328125 0.515625 0.53125 0.875q0.328125 -0.484375 0.59375 -0.859375l1.3125 -1.84375l1.578125 0l-2.6875 3.671875l2.890625 4.109375l-1.625 0l-1.59375 -2.421875l-0.421875 -0.640625l-2.046875 3.0625l-1.59375 0zm12.8125 0l-1.328125 0l0 -8.40625q-0.46875 0.453125 -1.25 0.921875q-0.765625 0.453125 -1.375 0.671875l0 -1.28125q1.09375 -0.515625 1.921875 -1.25q0.828125 -0.7343826 1.171875 -1.4375076l0.859375 0l0 10.781258zm3.182373 -2.828125l1.328125 -0.1875q0.21875 1.125 0.765625 1.625q0.546875 0.484375 1.328125 0.484375q0.9375 0 1.578125 -0.640625q0.640625 -0.640625 0.640625 -1.59375q0 -0.90625 -0.59375 -1.5q-0.59375 -0.59375 -1.515625 -0.59375q-0.375 0 -0.921875 0.15625l0.140625 -1.15625q0.140625 0.015625 0.21875 0.015625q0.84375 0 1.515625 -0.4375q0.671875 -0.453125 0.671875 -1.359375q0 -0.734375 -0.5 -1.203125q-0.484375 -0.484375 -1.265625 -0.484375q-0.765625 0 -1.28125 0.484375q-0.5 0.484375 -0.65625 1.453125l-1.3125 -0.234375q0.234375 -1.328125 1.09375 -2.0468826q0.859375 -0.734375 2.125 -0.734375q0.890625 0 1.625 0.375q0.734375 0.375 1.125 1.0312576q0.40625 0.65625 0.40625 1.390625q0 0.6875 -0.375 1.265625q-0.375 0.5625 -1.109375 0.90625q0.953125 0.21875 1.46875 0.90625q0.53125 0.6875 0.53125 1.734375q0 1.40625 -1.03125 2.390625q-1.015625 0.96875 -2.578125 0.96875q-1.421875 0 -2.359375 -0.84375q-0.921875 -0.84375 -1.0625 -2.171875z" fill-rule="nonzero"></path><path fill="#c9daf8" d="m491.5853 109.367455l53.385834 0l0 46.614174l-53.385834 0z" fill-rule="nonzero"></path><path stroke="#000000" stroke-width="2.0" stroke-linejoin="round" stroke-linecap="butt" d="m491.5853 109.367455l53.385834 0l0 46.614174l-53.385834 0z" fill-rule="nonzero"></path><path fill="#000000" d="m503.01248 132.45767q0 -1.90625 0.390625 -3.0625q0.390625 -1.15625 1.15625 -1.7812576q0.78125 -0.640625 1.953125 -0.640625q0.859375 0 1.515625 0.359375q0.65625 0.34375 1.078125 1.0000076q0.421875 0.640625 0.65625 1.59375q0.25 0.9375 0.25 2.53125q0 1.890625 -0.390625 3.0625q-0.390625 1.15625 -1.171875 1.796875q-0.765625 0.625 -1.9375 0.625q-1.546875 0 -2.4375 -1.125q-1.0625 -1.328125 -1.0625 -4.359375zm1.359375 0q0 2.640625 0.609375 3.515625q0.625 0.875 1.53125 0.875q0.90625 0 1.515625 -0.875q0.625 -0.875 0.625 -3.515625q0 -2.65625 -0.625 -3.515625q-0.609375 -0.875 -1.53125 -0.875q-0.90625 0 -1.453125 0.765625q-0.671875 0.984375 -0.671875 3.625zm6.276123 5.296875l2.8437195 -4.046875l-2.6249695 -3.734375l1.6405945 0l1.203125 1.828125q0.328125 0.515625 0.53125 0.875q0.328125 -0.484375 0.59375 -0.859375l1.3125 -1.84375l1.578125 0l-2.6875 3.671875l2.890625 4.109375l-1.625 0l-1.59375 -2.421875l-0.421875 -0.640625l-2.046875 3.0625l-1.5937195 0zm12.0624695 0l0 -2.578125l-4.65625 0l0 -1.203125l4.90625 -6.9531326l1.078125 0l0 6.9531326l1.453125 0l0 1.203125l-1.453125 0l0 2.578125l-1.328125 0zm0 -3.78125l0 -4.84375l-3.359375 4.84375l3.359375 0zm4.010498 -5.546875l0 -1.2656326l6.953125 0l0 1.0156326q-1.015625 1.09375 -2.03125 2.90625q-1.0 1.8125 -1.546875 3.71875q-0.40625 1.34375 -0.515625 2.953125l-1.34375 0q0.015625 -1.265625 0.484375 -3.0625q0.484375 -1.796875 1.375 -3.453125q0.890625 -1.671875 1.890625 -2.8125l-5.265625 0z" fill-rule="nonzero"></path><path fill="#c9daf8" d="m544.9711 109.367455l53.385803 0l0 46.614174l-53.385803 0z" fill-rule="nonzero"></path><path stroke="#000000" stroke-width="2.0" stroke-linejoin="round" stroke-linecap="butt" d="m544.9711 109.367455l53.385803 0l0 46.614174l-53.385803 0z" fill-rule="nonzero"></path><path fill="#000000" d="m555.99756 132.45767q0 -1.90625 0.390625 -3.0625q0.390625 -1.15625 1.15625 -1.7812576q0.78125 -0.640625 1.953125 -0.640625q0.859375 0 1.515625 0.359375q0.65625 0.34375 1.078125 1.0000076q0.421875 0.640625 0.65625 1.59375q0.25 0.9375 0.25 2.53125q0 1.890625 -0.390625 3.0625q-0.390625 1.15625 -1.171875 1.796875q-0.765625 0.625 -1.9375 0.625q-1.546875 0 -2.4375 -1.125q-1.0625 -1.328125 -1.0625 -4.359375zm1.359375 0q0 2.640625 0.609375 3.515625q0.625 0.875 1.53125 0.875q0.90625 0 1.515625 -0.875q0.625 -0.875 0.625 -3.515625q0 -2.65625 -0.625 -3.515625q-0.609375 -0.875 -1.53125 -0.875q-0.90625 0 -1.453125 0.765625q-0.671875 0.984375 -0.671875 3.625zm6.276123 5.296875l2.84375 -4.046875l-2.625 -3.734375l1.640625 0l1.203125 1.828125q0.328125 0.515625 0.53125 0.875q0.328125 -0.484375 0.59375 -0.859375l1.3125 -1.84375l1.578125 0l-2.6875 3.671875l2.890625 4.109375l-1.625 0l-1.59375 -2.421875l-0.421875 -0.640625l-2.046875 3.0625l-1.59375 0zm8.453125 0l0 -10.734383l7.234375 0l0 1.2656326l-5.8125 0l0 3.328125l5.03125 0l0 1.265625l-5.03125 0l0 4.875l-1.421875 0zm8.343262 -5.296875q0 -1.90625 0.390625 -3.0625q0.390625 -1.15625 1.15625 -1.7812576q0.78125 -0.640625 1.953125 -0.640625q0.859375 0 1.515625 0.359375q0.65625 0.34375 1.078125 1.0000076q0.421875 0.640625 0.65625 1.59375q0.25 0.9375 0.25 2.53125q0 1.890625 -0.390625 3.0625q-0.390625 1.15625 -1.171875 1.796875q-0.765625 0.625 -1.9375 0.625q-1.546875 0 -2.4375 -1.125q-1.0625 -1.328125 -1.0625 -4.359375zm1.359375 0q0 2.640625 0.609375 3.515625q0.625 0.875 1.53125 0.875q0.90625 0 1.515625 -0.875q0.625 -0.875 0.625 -3.515625q0 -2.65625 -0.625 -3.515625q-0.609375 -0.875 -1.53125 -0.875q-0.90625 0 -1.453125 0.765625q-0.671875 0.984375 -0.671875 3.625z" fill-rule="nonzero"></path><path fill="#c9daf8" d="m598.35693 109.367455l53.385864 0l0 46.614174l-53.385864 0z" fill-rule="nonzero"></path><path stroke="#000000" stroke-width="2.0" stroke-linejoin="round" stroke-linecap="butt" d="m598.35693 109.367455l53.385864 0l0 46.614174l-53.385864 0z" fill-rule="nonzero"></path><path fill="#000000" d="m608.9719 132.45767q0 -1.90625 0.390625 -3.0625q0.390625 -1.15625 1.15625 -1.7812576q0.78125 -0.640625 1.953125 -0.640625q0.859375 0 1.515625 0.359375q0.65625 0.34375 1.078125 1.0000076q0.421875 0.640625 0.65625 1.59375q0.25 0.9375 0.25 2.53125q0 1.890625 -0.390625 3.0625q-0.390625 1.15625 -1.171875 1.796875q-0.765625 0.625 -1.9375 0.625q-1.546875 0 -2.4375 -1.125q-1.0625 -1.328125 -1.0625 -4.359375zm1.359375 0q0 2.640625 0.609375 3.515625q0.625 0.875 1.53125 0.875q0.90625 0 1.515625 -0.875q0.625 -0.875 0.625 -3.515625q0 -2.65625 -0.625 -3.515625q-0.609375 -0.875 -1.53125 -0.875q-0.90625 0 -1.453125 0.765625q-0.671875 0.984375 -0.671875 3.625zm6.276062 5.296875l2.84375 -4.046875l-2.625 -3.734375l1.640625 0l1.203125 1.828125q0.328125 0.515625 0.53125 0.875q0.328125 -0.484375 0.59375 -0.859375l1.3125 -1.84375l1.578125 0l-2.6875 3.671875l2.890625 4.109375l-1.625 0l-1.59375 -2.421875l-0.421875 -0.640625l-2.046875 3.0625l-1.59375 0zm8.046875 -2.484375l1.265625 -0.109375q0.15625 0.890625 0.609375 1.296875q0.453125 0.390625 1.171875 0.390625q0.59375 0 1.046875 -0.265625q0.46875 -0.28125 0.765625 -0.75q0.296875 -0.46875 0.484375 -1.25q0.203125 -0.796875 0.203125 -1.625q0 -0.078125 -0.015625 -0.25q-0.390625 0.625 -1.078125 1.015625q-0.6875 0.390625 -1.484375 0.390625q-1.328125 0 -2.25 -0.96875q-0.921875 -0.96875 -0.921875 -2.546875q0 -1.640625 0.953125 -2.6250076q0.96875 -1.0 2.421875 -1.0q1.046875 0 1.90625 0.5625q0.875 0.5625076 1.328125 1.6093826q0.453125 1.046875 0.453125 3.015625q0 2.0625 -0.453125 3.28125q-0.4375 1.21875 -1.328125 1.859375q-0.875 0.640625 -2.0625 0.640625q-1.265625 0 -2.0625 -0.703125q-0.796875 -0.703125 -0.953125 -1.96875zm5.390625 -4.734375q0 -1.140625 -0.609375 -1.796875q-0.59375 -0.671875 -1.453125 -0.671875q-0.875 0 -1.53125 0.71875q-0.640625 0.71875 -0.640625 1.859375q0 1.015625 0.609375 1.65625q0.625 0.640625 1.53125 0.640625q0.921875 0 1.5 -0.640625q0.59375 -0.640625 0.59375 -1.765625zm1.916748 7.21875l4.125 -10.734383l1.515625 0l4.40625 10.734383l-1.625 0l-1.25 -3.25l-4.484375 0l-1.1875 3.25l-1.5 0zm3.09375 -4.40625l3.640625 0l-1.125 -2.984375q-0.515625 -1.34375 -0.765625 -2.21875q-0.203125 1.03125 -0.578125 2.046875l-1.171875 3.15625z" fill-rule="nonzero"></path><path fill="#f6b26b" d="m758.51447 192.19817l53.385803 0l0 46.614166l-53.385803 0z" fill-rule="nonzero"></path><path stroke="#000000" stroke-width="2.0" stroke-linejoin="round" stroke-linecap="butt" d="m758.51447 192.19817l53.385803 0l0 46.614166l-53.385803 0z" fill-rule="nonzero"></path><path fill="#000000" d="m781.9097 222.42525l-1.671875 0l0 -10.640625q-0.59375 0.578125 -1.578125 1.15625q-0.984375 0.5625 -1.765625 0.859375l0 -1.625q1.40625 -0.65625 2.453125 -1.59375q1.046875 -0.9375 1.484375 -1.8125l1.078125 0l0 13.65625zm10.375732 0l-1.671875 0l0 -10.640625q-0.59375 0.578125 -1.578125 1.15625q-0.984375 0.5625 -1.765625 0.859375l0 -1.625q1.40625 -0.65625 2.453125 -1.59375q1.046875 -0.9375 1.484375 -1.8125l1.078125 0l0 13.65625z" fill-rule="nonzero"></path><path fill="#f6b26b" d="m705.1286 192.19817l53.385864 0l0 46.614166l-53.385864 0z" fill-rule="nonzero"></path><path stroke="#000000" stroke-width="2.0" stroke-linejoin="round" stroke-linecap="butt" d="m705.1286 192.19817l53.385864 0l0 46.614166l-53.385864 0z" fill-rule="nonzero"></path><path fill="#000000" d="m729.99304 215.05025q-1.046875 -0.375 -1.546875 -1.078125q-0.5 -0.71875 -0.5 -1.703125q0 -1.484375 1.0625 -2.484375q1.078125 -1.015625 2.84375 -1.015625q1.78125 0 2.859375 1.03125q1.09375 1.03125 1.09375 2.515625q0 0.953125 -0.5 1.65625q-0.484375 0.703125 -1.5 1.078125q1.25 0.40625 1.90625 1.3125q0.65625 0.90625 0.65625 2.171875q0 1.75 -1.234375 2.9375q-1.234375 1.1875 -3.25 1.1875q-2.015625 0 -3.25 -1.1875q-1.234375 -1.203125 -1.234375 -2.984375q0 -1.328125 0.671875 -2.21875q0.671875 -0.890625 1.921875 -1.21875zm-0.328125 -2.828125q0 0.96875 0.609375 1.578125q0.625 0.609375 1.625 0.609375q0.953125 0 1.5625 -0.609375q0.625 -0.609375 0.625 -1.484375q0 -0.921875 -0.640625 -1.546875q-0.625 -0.625 -1.578125 -0.625q-0.953125 0 -1.578125 0.609375q-0.625 0.609375 -0.625 1.46875zm-0.546875 6.28125q0 0.71875 0.328125 1.390625q0.34375 0.65625 1.015625 1.03125q0.671875 0.359375 1.4375 0.359375q1.203125 0 1.984375 -0.765625q0.78125 -0.78125 0.78125 -1.96875q0 -1.203125 -0.8125 -1.984375q-0.796875 -0.796875 -2.0 -0.796875q-1.1875 0 -1.96875 0.78125q-0.765625 0.78125 -0.765625 1.953125z" fill-rule="nonzero"></path><path fill="#000000" fill-opacity="0.0" d="m651.7428 108.67454l42.299194 0l0 48.000008l-42.299194 0z" fill-rule="nonzero"></path><path fill="#000000" d="m666.4768 135.59454l0 -2.609375l2.609375 0l0 2.609375l-2.609375 0zm5.1832886 0l0 -2.609375l2.609375 0l0 2.609375l-2.609375 0zm5.1833496 0l0 -2.609375l2.609375 0l0 2.609375l-2.609375 0z" fill-rule="nonzero"></path><path fill="#000000" fill-opacity="0.0" d="m660.4068 191.50525l42.299255 0l0 48.0l-42.299255 0z" fill-rule="nonzero"></path><path fill="#000000" d="m675.14087 218.42525l0 -2.609375l2.609375 0l0 2.609375l-2.609375 0zm5.1832886 0l0 -2.609375l2.609375 0l0 2.609375l-2.609375 0zm5.1832886 0l0 -2.609375l2.609375 0l0 2.609375l-2.609375 0z" fill-rule="nonzero"></path><path fill="#000000" fill-opacity="0.0" d="m694.042 132.67455l32.724426 0" fill-rule="nonzero"></path><path stroke="#000000" stroke-width="2.0" stroke-linejoin="round" stroke-linecap="butt" d="m694.042 132.67455l20.724426 0" fill-rule="evenodd"></path><path fill="#000000" stroke="#000000" stroke-width="2.0" stroke-linecap="butt" d="m714.7664 135.97801l9.076172 -3.3034668l-9.076172 -3.3034668z" fill-rule="evenodd"></path><path fill="#000000" fill-opacity="0.0" d="m665.2861 215.50525l-35.307068 0" fill-rule="nonzero"></path><path stroke="#000000" stroke-width="2.0" stroke-linejoin="round" stroke-linecap="butt" d="m665.2861 215.50525l-23.307068 0" fill-rule="evenodd"></path><path fill="#000000" stroke="#000000" stroke-width="2.0" stroke-linecap="butt" d="m641.979 212.20178l-9.076172 3.3034668l9.076172 3.3034668z" fill-rule="evenodd"></path><path fill="#000000" fill-opacity="0.0" d="m595.66406 265.46982l223.685 0l0 48.0l-223.685 0z" fill-rule="nonzero"></path><path fill="#000000" d="m641.35345 292.3898l0 -9.859375l1.5 0l0 1.5q0.578125 -1.046875 1.0625 -1.375q0.484375 -0.34375 1.078125 -0.34375q0.84375 0 1.71875 0.546875l-0.578125 1.546875q-0.609375 -0.359375 -1.234375 -0.359375q-0.546875 0 -0.984375 0.328125q-0.421875 0.328125 -0.609375 0.90625q-0.28125 0.890625 -0.28125 1.953125l0 5.15625l-1.671875 0zm5.6032715 -4.921875q0 -2.734375 1.53125 -4.0625q1.265625 -1.09375 3.09375 -1.09375q2.03125 0 3.3125 1.34375q1.296875 1.328125 1.296875 3.671875q0 1.90625 -0.578125 3.0q-0.5625 1.078125 -1.65625 1.6875q-1.078125 0.59375 -2.375 0.59375q-2.0625 0 -3.34375 -1.328125q-1.28125 -1.328125 -1.28125 -3.8125zm1.71875 0q0 1.890625 0.828125 2.828125q0.828125 0.9375 2.078125 0.9375q1.25 0 2.0625 -0.9375q0.828125 -0.953125 0.828125 -2.890625q0 -1.828125 -0.828125 -2.765625q-0.828125 -0.9375 -2.0625 -0.9375q-1.25 0 -2.078125 0.9375q-0.828125 0.9375 -0.828125 2.828125zm8.406982 4.921875l0 -1.359375l6.265625 -7.1875q-1.0625 0.046875 -1.875 0.046875l-4.015625 0l0 -1.359375l8.046875 0l0 1.109375l-5.34375 6.25l-1.015625 1.140625q1.109375 -0.078125 2.09375 -0.078125l4.5625 0l0 1.4375l-8.71875 0zm10.203125 0l0 -9.859375l1.5 0l0 1.390625q0.453125 -0.71875 1.21875 -1.15625q0.78125 -0.453125 1.765625 -0.453125q1.09375 0 1.796875 0.453125q0.703125 0.453125 0.984375 1.28125q1.171875 -1.734375 3.046875 -1.734375q1.46875 0 2.25 0.8125q0.796875 0.8125 0.796875 2.5l0 6.765625l-1.671875 0l0 -6.203125q0 -1.0 -0.15625 -1.4375q-0.15625 -0.453125 -0.59375 -0.71875q-0.421875 -0.265625 -1.0 -0.265625q-1.03125 0 -1.71875 0.6875q-0.6875 0.6875 -0.6875 2.21875l0 5.71875l-1.671875 0l0 -6.40625q0 -1.109375 -0.40625 -1.65625q-0.40625 -0.5625 -1.34375 -0.5625q-0.703125 0 -1.3125 0.375q-0.59375 0.359375 -0.859375 1.078125q-0.265625 0.71875 -0.265625 2.0625l0 5.109375l-1.671875 0zm15.5563965 -11.6875l0 -1.90625l1.671875 0l0 1.90625l-1.671875 0zm0 11.6875l0 -9.859375l1.671875 0l0 9.859375l-1.671875 0zm10.566711 -1.21875q-0.9375 0.796875 -1.796875 1.125q-0.859375 0.3125 -1.84375 0.3125q-1.609375 0 -2.484375 -0.78125q-0.875 -0.796875 -0.875 -2.03125q0 -0.734375 0.328125 -1.328125q0.328125 -0.59375 0.859375 -0.953125q0.53125 -0.359375 1.203125 -0.546875q0.5 -0.140625 1.484375 -0.25q2.03125 -0.25 2.984375 -0.578125q0 -0.34375 0 -0.4375q0 -1.015625 -0.46875 -1.4375q-0.640625 -0.5625 -1.90625 -0.5625q-1.171875 0 -1.734375 0.40625q-0.5625 0.40625 -0.828125 1.46875l-1.640625 -0.234375q0.234375 -1.046875 0.734375 -1.6875q0.515625 -0.640625 1.46875 -0.984375q0.96875 -0.359375 2.25 -0.359375q1.265625 0 2.046875 0.296875q0.78125 0.296875 1.15625 0.75q0.375 0.453125 0.515625 1.140625q0.09375 0.421875 0.09375 1.53125l0 2.234375q0 2.328125 0.09375 2.953125q0.109375 0.609375 0.4375 1.171875l-1.75 0q-0.265625 -0.515625 -0.328125 -1.21875zm-0.140625 -3.71875q-0.90625 0.359375 -2.734375 0.625q-1.03125 0.140625 -1.453125 0.328125q-0.421875 0.1875 -0.65625 0.546875q-0.234375 0.359375 -0.234375 0.796875q0 0.671875 0.5 1.125q0.515625 0.4375 1.484375 0.4375q0.96875 0 1.71875 -0.421875q0.75 -0.4375 1.109375 -1.15625q0.265625 -0.578125 0.265625 -1.671875l0 -0.609375zm4.0632324 4.9375l0 -9.859375l1.5 0l0 1.5q0.578125 -1.046875 1.0625 -1.375q0.484375 -0.34375 1.078125 -0.34375q0.84375 0 1.71875 0.546875l-0.578125 1.546875q-0.609375 -0.359375 -1.234375 -0.359375q-0.546875 0 -0.984375 0.328125q-0.421875 0.328125 -0.609375 0.90625q-0.28125 0.890625 -0.28125 1.953125l0 5.15625l-1.671875 0zm6.1501465 3.796875l-0.171875 -1.5625q0.546875 0.140625 0.953125 0.140625q0.546875 0 0.875 -0.1875q0.34375 -0.1875 0.5625 -0.515625q0.15625 -0.25 0.5 -1.25q0.046875 -0.140625 0.15625 -0.40625l-3.734375 -9.875l1.796875 0l2.046875 5.71875q0.40625 1.078125 0.71875 2.28125q0.28125 -1.15625 0.6875 -2.25l2.09375 -5.75l1.671875 0l-3.75 10.03125q-0.59375 1.625 -0.9375 2.234375q-0.4375 0.828125 -1.015625 1.203125q-0.578125 0.390625 -1.375 0.390625q-0.484375 0 -1.078125 -0.203125zm21.0271 -7.40625l1.640625 0.21875q-0.265625 1.6875 -1.375 2.65625q-1.109375 0.953125 -2.734375 0.953125q-2.015625 0 -3.25 -1.3125q-1.21875 -1.328125 -1.21875 -3.796875q0 -1.59375 0.515625 -2.78125q0.53125 -1.203125 1.609375 -1.796875q1.09375 -0.609375 2.359375 -0.609375q1.609375 0 2.625 0.8125q1.015625 0.8125 1.3125 2.3125l-1.625 0.25q-0.234375 -1.0 -0.828125 -1.5q-0.59375 -0.5 -1.421875 -0.5q-1.265625 0 -2.0625 0.90625q-0.78125 0.90625 -0.78125 2.859375q0 1.984375 0.765625 2.890625q0.765625 0.890625 1.984375 0.890625q0.984375 0 1.640625 -0.59375q0.65625 -0.609375 0.84375 -1.859375zm2.90625 -8.078125l0 -1.90625l1.671875 0l0 1.90625l-1.671875 0zm0 11.6875l0 -9.859375l1.671875 0l0 9.859375l-1.671875 0zm10.56665 -1.21875q-0.9375 0.796875 -1.796875 1.125q-0.859375 0.3125 -1.84375 0.3125q-1.609375 0 -2.484375 -0.78125q-0.875 -0.796875 -0.875 -2.03125q0 -0.734375 0.328125 -1.328125q0.328125 -0.59375 0.859375 -0.953125q0.53125 -0.359375 1.203125 -0.546875q0.5 -0.140625 1.484375 -0.25q2.03125 -0.25 2.984375 -0.578125q0 -0.34375 0 -0.4375q0 -1.015625 -0.46875 -1.4375q-0.640625 -0.5625 -1.90625 -0.5625q-1.171875 0 -1.734375 0.40625q-0.5625 0.40625 -0.828125 1.46875l-1.640625 -0.234375q0.234375 -1.046875 0.734375 -1.6875q0.515625 -0.640625 1.46875 -0.984375q0.96875 -0.359375 2.25 -0.359375q1.265625 0 2.046875 0.296875q0.78125 0.296875 1.15625 0.75q0.375 0.453125 0.515625 1.140625q0.09375 0.421875 0.09375 1.53125l0 2.234375q0 2.328125 0.09375 2.953125q0.109375 0.609375 0.4375 1.171875l-1.75 0q-0.265625 -0.515625 -0.328125 -1.21875zm-0.140625 -3.71875q-0.90625 0.359375 -2.734375 0.625q-1.03125 0.140625 -1.453125 0.328125q-0.421875 0.1875 -0.65625 0.546875q-0.234375 0.359375 -0.234375 0.796875q0 0.671875 0.5 1.125q0.515625 0.4375 1.484375 0.4375q0.96875 0 1.71875 -0.421875q0.75 -0.4375 1.109375 -1.15625q0.265625 -0.578125 0.265625 -1.671875l0 -0.609375zm1.65625 4.9375q-0.53125 0.328125 -0.828125 0.796875q-0.28125 0.484375 -0.28125 0.96875q0 0.390625 0.203125 0.65625q0.21875 0.28125 0.703125 0.28125q0.203125 0 0.421875 -0.0625q0.234375 -0.0625 0.421875 -0.15625l0 1.1875q-0.6875 0.3125 -1.265625 0.3125q-0.46875 0 -0.828125 -0.140625q-0.34375 -0.125 -0.59375 -0.359375q-0.234375 -0.234375 -0.34375 -0.546875q-0.109375 -0.296875 -0.109375 -0.65625q0 -0.59375 0.328125 -1.203125q0.328125 -0.59375 0.9375 -1.078125l1.234375 0zm2.1257324 0.8125l1.609375 0.25q0.109375 0.75 0.578125 1.09375q0.609375 0.453125 1.6875 0.453125q1.171875 0 1.796875 -0.46875q0.625 -0.453125 0.859375 -1.28125q0.125 -0.515625 0.109375 -2.15625q-1.09375 1.296875 -2.71875 1.296875q-2.03125 0 -3.15625 -1.46875q-1.109375 -1.46875 -1.109375 -3.515625q0 -1.40625 0.515625 -2.59375q0.515625 -1.203125 1.484375 -1.84375q0.96875 -0.65625 2.265625 -0.65625q1.75 0 2.875 1.40625l0 -1.1875l1.546875 0l0 8.515625q0 2.3125 -0.46875 3.265625q-0.46875 0.96875 -1.484375 1.515625q-1.015625 0.5625 -2.5 0.5625q-1.765625 0 -2.859375 -0.796875q-1.078125 -0.796875 -1.03125 -2.390625zm1.375 -5.921875q0 1.953125 0.765625 2.84375q0.78125 0.890625 1.9375 0.890625q1.140625 0 1.921875 -0.890625q0.78125 -0.890625 0.78125 -2.78125q0 -1.8125 -0.8125 -2.71875q-0.796875 -0.921875 -1.921875 -0.921875q-1.109375 0 -1.890625 0.90625q-0.78125 0.890625 -0.78125 2.671875zm8.672607 0.1875q0 -2.734375 1.53125 -4.0625q1.265625 -1.09375 3.09375 -1.09375q2.03125 0 3.3125 1.34375q1.296875 1.328125 1.296875 3.671875q0 1.90625 -0.578125 3.0q-0.5625 1.078125 -1.65625 1.6875q-1.078125 0.59375 -2.375 0.59375q-2.0625 0 -3.34375 -1.328125q-1.28125 -1.328125 -1.28125 -3.8125zm1.71875 0q0 1.890625 0.828125 2.828125q0.828125 0.9375 2.078125 0.9375q1.25 0 2.0625 -0.9375q0.828125 -0.953125 0.828125 -2.890625q0 -1.828125 -0.828125 -2.765625q-0.828125 -0.9375 -2.0625 -0.9375q-1.25 0 -2.078125 0.9375q-0.828125 0.9375 -0.828125 2.828125zm1.71875 -6.15625l1.234375 -2.59375l2.1875 0l-2.046875 2.59375l-1.375 0zm9.391357 11.078125l-3.015625 -9.859375l1.71875 0l1.5625 5.6875l0.59375 2.125q0.03125 -0.15625 0.5 -2.03125l1.578125 -5.78125l1.71875 0l1.46875 5.71875l0.484375 1.890625l0.578125 -1.90625l1.6875 -5.703125l1.625 0l-3.078125 9.859375l-1.734375 0l-1.578125 -5.90625l-0.375 -1.671875l-2.0 7.578125l-1.734375 0z" fill-rule="nonzero"></path><path fill="#000000" fill-opacity="0.0" d="m811.90027 248.27428c0 3.2963104 -0.44537354 5.968506 -0.99468994 5.968506l-102.4043 0c-0.54937744 0 -0.99468994 2.6721954 -0.99468994 5.9684906l0 0c0 -3.2962952 -0.44537354 -5.9684906 -0.994751 -5.9684906l-102.4043 0l0 0c-0.5493164 0 -0.99468994 -2.6721954 -0.99468994 -5.968506z" fill-rule="nonzero"></path><path fill="#000000" fill-opacity="0.0" d="m811.90027 248.27428c0 3.2963104 -0.44537354 5.968506 -0.99468994 5.968506l-102.4043 0c-0.54937744 0 -0.99468994 2.6721954 -0.99468994 5.9684906l0 0c0 -3.2962952 -0.44537354 -5.9684906 -0.994751 -5.9684906l-102.4043 0l0 0c-0.5493164 0 -0.99468994 -2.6721954 -0.99468994 -5.968506" fill-rule="nonzero"></path><path stroke="#000000" stroke-width="2.0" stroke-linejoin="round" stroke-linecap="butt" d="m811.90027 248.27428c0 3.2963104 -0.44537354 5.968506 -0.99468994 5.968506l-102.4043 0c-0.54937744 0 -0.99468994 2.6721954 -0.99468994 5.9684906l0 0c0 -3.2962952 -0.44537354 -5.9684906 -0.994751 -5.9684906l-102.4043 0l0 0c-0.5493164 0 -0.99468994 -2.6721954 -0.99468994 -5.968506" fill-rule="nonzero"></path></g></svg>

